<?xml version="1.0" encoding="UTF-8"?>
<svg xmlns="http://www.w3.org/2000/svg" xmlns:xlink="http://www.w3.org/1999/xlink" version="1.2" >
<font id="Arial">
<font-face  font-family="Arial" units-per-em="2048" ascent="1491" descent="-431" font-style="normal" font-weight="400" font-stretch="normal" cap-height="1467" x-height="1062" underline-position="-217" underline-thickness="150" />
<missing-glyph  horiz-adv-x="1536" d="M256 0 L256 1280 L1280 1280 L1280 0 L256 0 Z M288 32 L1248 32 L1248 1248 L288 1248 L288 32 Z " />
<glyph glyph-name="&amp;#x20;" unicode="&#x20;" horiz-adv-x="569" d="" />
<glyph glyph-name="&amp;#xa0;" unicode="&#xa0;" horiz-adv-x="569" d="" />
<glyph glyph-name="exclam" unicode="&#x21;" horiz-adv-x="569" d="M231 364 L176 1141 L176 1466 L399 1466 L399 1141 L347 364 L231 364 Z M184 0 L184 205 L391 205 L391 0 L184 0 Z " />
<glyph glyph-name="quotedbl" unicode="&#x22;" horiz-adv-x="727" d="M144 947 L94 1226 L94 1466 L299 1466 L299 1226 L254 947 L144 947 Z M475 947 L426 1226 L426 1466 L631 1466 L631 1226 L583 947 L475 947 Z " />
<glyph glyph-name="numbersign" unicode="&#x23;" horiz-adv-x="1139" d="M103 -25 L190 401 L21 401 L21 550 L220 550 L294 913 L21 913 L21 1062 L324 1062 L411 1491 L561 1491 L474 1062 L789 1062 L876 1491 L1027 1491 L940 1062 L1113 1062 L1113 913 L910 913 L835 550 L1113 550 L1113 401 L805 401 L718 -25 L568 -25 L654 401 L340 401 L253 -25 L103 -25 Z M370 550 L684 550 L759 913 L444 913 L370 550 Z " />
<glyph glyph-name="dollar" unicode="&#x24;" horiz-adv-x="1139" d="M510 -211 L510 -31 Q375 -14 290.5 29.5 Q206 73 144.5 170 Q83 267 73 407 L254 441 Q275 296 328 228 Q404 132 510 121 L510 694 Q399 715 283 780 Q197 828 150.5 913 Q104 998 104 1106 Q104 1298 240 1417 Q331 1497 510 1515 L510 1601 L616 1601 L616 1515 Q773 1500 865 1423 Q983 1325 1007 1154 L821 1126 Q805 1232 754.5 1288.5 Q704 1345 616 1363 L616 844 Q752 810 796 791 Q880 754 933 701 Q986 648 1014.5 575 Q1043 502 1043 417 Q1043 230 924 105 Q805 -20 616 -29 L616 -211 L510 -211 Z M510 1365 Q405 1349 344.5 1281 Q284 1213 284 1120 Q284 1028 335.5 966 Q387 904 510 867 L510 1365 Z M616 121 Q721 134 789.5 212 Q858 290 858 405 Q858 503 809.5 562.5 Q761 622 616 669 L616 121 Z " />
<glyph glyph-name="percent" unicode="&#x25;" horiz-adv-x="1821" d="M119 1114 Q119 1271 198 1381 Q277 1491 427 1491 Q565 1491 655.5 1392.5 Q746 1294 746 1103 Q746 917 654.5 816.5 Q563 716 429 716 Q296 716 207.5 815 Q119 914 119 1114 Z M432 1367 Q365 1367 320.5 1309 Q276 1251 276 1096 Q276 955 321 897.5 Q366 840 432 840 Q500 840 544.5 898 Q589 956 589 1110 Q589 1252 544 1309.5 Q499 1367 432 1367 Z M433 -54 L1235 1491 L1381 1491 L582 -54 L433 -54 Z M1067 344 Q1067 502 1146 611.5 Q1225 721 1376 721 Q1514 721 1604.5 622.5 Q1695 524 1695 333 Q1695 147 1603.5 46.5 Q1512 -54 1377 -54 Q1244 -54 1155.5 45.5 Q1067 145 1067 344 Z M1381 597 Q1313 597 1268.5 539 Q1224 481 1224 326 Q1224 186 1269 128 Q1314 70 1380 70 Q1449 70 1493.5 128 Q1538 186 1538 340 Q1538 482 1493 539.5 Q1448 597 1381 597 Z " />
<glyph glyph-name="ampersand" unicode="&#x26;" horiz-adv-x="1366" d="M973 173 Q884 74 779 24.5 Q674 -25 552 -25 Q327 -25 195 127 Q88 251 88 404 Q88 540 175.5 649.5 Q263 759 437 842 Q338 956 305 1027 Q272 1098 272 1164 Q272 1296 375.5 1393.5 Q479 1491 636 1491 Q786 1491 881.5 1399 Q977 1307 977 1178 Q977 969 700 821 L963 486 Q1008 574 1033 690 L1220 650 Q1172 458 1090 334 Q1191 200 1319 109 L1198 -34 Q1089 36 973 173 Z M607 937 Q724 1006 758.5 1058 Q793 1110 793 1173 Q793 1248 745.5 1295.5 Q698 1343 627 1343 Q554 1343 505.5 1296 Q457 1249 457 1181 Q457 1147 474.5 1109.5 Q492 1072 527 1030 L607 937 Z M860 315 L530 724 Q384 637 333 562.5 Q282 488 282 415 Q282 326 353 230 Q424 134 554 134 Q635 134 721.5 184.5 Q808 235 860 315 Z " />
<glyph glyph-name="quotesingle" unicode="&#x27;" horiz-adv-x="391" d="M136 947 L90 1221 L90 1466 L295 1466 L295 1221 L247 947 L136 947 Z " />
<glyph glyph-name="parenleft" unicode="&#x28;" horiz-adv-x="682" d="M479 -431 Q330 -243 227 9 Q124 261 124 531 Q124 769 201 987 Q291 1240 479 1491 L608 1491 Q487 1283 448 1194 Q387 1056 352 906 Q309 719 309 530 Q309 49 608 -431 L479 -431 Z " />
<glyph glyph-name="parenright" unicode="&#x29;" horiz-adv-x="682" d="M253 -431 L124 -431 Q423 49 423 530 Q423 718 380 903 Q346 1053 285 1191 Q246 1281 124 1491 L253 1491 Q441 1240 531 987 Q608 769 608 531 Q608 261 504.5 9 Q401 -243 253 -431 Z " />
<glyph glyph-name="asterisk" unicode="&#x2a;" horiz-adv-x="797" d="M64 1197 L110 1339 Q269 1283 341 1242 Q322 1423 321 1491 L466 1491 Q463 1392 443 1243 Q546 1295 679 1339 L725 1197 Q598 1155 476 1141 Q537 1088 648 952 L528 867 Q470 946 391 1082 Q317 941 261 867 L143 952 Q259 1095 309 1141 Q180 1166 64 1197 Z " />
<glyph glyph-name="plus" unicode="&#x2b;" horiz-adv-x="1196" d="M513 237 L513 639 L114 639 L114 807 L513 807 L513 1206 L683 1206 L683 807 L1082 807 L1082 639 L683 639 L683 237 L513 237 Z " />
<glyph glyph-name="comma" unicode="&#x2c;" horiz-adv-x="569" d="M182 0 L182 205 L387 205 L387 0 Q387 -113 347 -182.5 Q307 -252 220 -290 L170 -213 Q227 -188 254 -139.5 Q281 -91 284 0 L182 0 Z " />
<glyph glyph-name="&amp;#x2d;" unicode="&#x2d;" horiz-adv-x="682" d="M65 440 L65 621 L618 621 L618 440 L65 440 Z " />
<glyph glyph-name="&amp;#xad;" unicode="&#xad;" horiz-adv-x="682" d="M65 440 L65 621 L618 621 L618 440 L65 440 Z " />
<glyph glyph-name="period" unicode="&#x2e;" horiz-adv-x="569" d="M186 0 L186 205 L391 205 L391 0 L186 0 Z " />
<glyph glyph-name="slash" unicode="&#x2f;" horiz-adv-x="569" d="M0 -25 L425 1491 L569 1491 L145 -25 L0 -25 Z " />
<glyph glyph-name="zero" unicode="0" horiz-adv-x="1139" d="M85 723 Q85 983 138.5 1141.5 Q192 1300 297.5 1386 Q403 1472 563 1472 Q681 1472 770 1424.5 Q859 1377 917 1287.5 Q975 1198 1008 1069.5 Q1041 941 1041 723 Q1041 465 988 306.5 Q935 148 829.5 61.5 Q724 -25 563 -25 Q351 -25 230 127 Q85 310 85 723 Z M270 723 Q270 362 354.5 242.5 Q439 123 563 123 Q687 123 771.5 243 Q856 363 856 723 Q856 1085 771.5 1204 Q687 1323 561 1323 Q437 1323 363 1218 Q270 1084 270 723 Z " />
<glyph glyph-name="one" unicode="1" horiz-adv-x="1139" d="M763 0 L583 0 L583 1147 Q518 1085 412.5 1023 Q307 961 223 930 L223 1104 Q374 1175 487 1276 Q600 1377 647 1472 L763 1472 L763 0 Z " />
<glyph glyph-name="two" unicode="2" horiz-adv-x="1139" d="M1031 173 L1031 0 L62 0 Q60 65 83 125 Q120 224 201.5 320 Q283 416 437 542 Q676 738 760 852.5 Q844 967 844 1069 Q844 1176 767.5 1249.5 Q691 1323 568 1323 Q438 1323 360 1245 Q282 1167 281 1029 L96 1048 Q115 1255 239 1363.5 Q363 1472 572 1472 Q783 1472 906 1355 Q1029 1238 1029 1065 Q1029 977 993 892 Q957 807 873.5 713 Q790 619 596 455 Q434 319 388 270.5 Q342 222 312 173 L1031 173 Z " />
<glyph glyph-name="three" unicode="3" horiz-adv-x="1139" d="M86 387 L266 411 Q297 258 371.5 190.5 Q446 123 553 123 Q680 123 767.5 211 Q855 299 855 429 Q855 553 774 633.5 Q693 714 568 714 Q517 714 441 694 L461 852 Q479 850 490 850 Q605 850 697 910 Q789 970 789 1095 Q789 1194 722 1259 Q655 1324 549 1324 Q444 1324 374 1258 Q304 1192 284 1060 L104 1092 Q137 1273 254 1372.5 Q371 1472 545 1472 Q665 1472 766 1420.5 Q867 1369 920.5 1280 Q974 1191 974 1091 Q974 996 923 918 Q872 840 772 794 Q902 764 974 669.5 Q1046 575 1046 433 Q1046 241 906 107.5 Q766 -26 552 -26 Q359 -26 231.5 89 Q104 204 86 387 Z " />
<glyph glyph-name="four" unicode="4" horiz-adv-x="1139" d="M662 0 L662 351 L26 351 L26 516 L695 1466 L842 1466 L842 516 L1040 516 L1040 351 L842 351 L842 0 L662 0 Z M662 516 L662 1177 L203 516 L662 516 Z " />
<glyph glyph-name="five" unicode="5" horiz-adv-x="1139" d="M85 384 L274 400 Q295 262 371.5 192.5 Q448 123 556 123 Q686 123 776 221 Q866 319 866 481 Q866 635 779.5 724 Q693 813 553 813 Q466 813 396 773.5 Q326 734 286 671 L117 693 L259 1446 L988 1446 L988 1274 L403 1274 L324 880 Q456 972 601 972 Q793 972 925 839 Q1057 706 1057 497 Q1057 298 941 153 Q800 -25 556 -25 Q356 -25 229.5 87 Q103 199 85 384 Z " />
<glyph glyph-name="six" unicode="6" horiz-adv-x="1139" d="M1019 1107 L840 1093 Q816 1199 772 1247 Q699 1324 592 1324 Q506 1324 441 1276 Q356 1214 307 1095 Q258 976 256 756 Q321 855 415 903 Q509 951 612 951 Q792 951 918.5 818.5 Q1045 686 1045 476 Q1045 338 985.5 219.5 Q926 101 822 38 Q718 -25 586 -25 Q361 -25 219 140.5 Q77 306 77 686 Q77 1111 234 1304 Q371 1472 603 1472 Q776 1472 886.5 1375 Q997 1278 1019 1107 Z M284 475 Q284 382 323.5 297 Q363 212 434 167.5 Q505 123 583 123 Q697 123 779 215 Q861 307 861 465 Q861 617 780 704.5 Q699 792 576 792 Q454 792 369 704.5 Q284 617 284 475 Z " />
<glyph glyph-name="seven" unicode="7" horiz-adv-x="1139" d="M97 1274 L97 1447 L1046 1447 L1046 1307 Q906 1158 768.5 911 Q631 664 556 403 Q502 219 487 0 L302 0 Q305 173 370 418 Q435 663 556.5 890.5 Q678 1118 815 1274 L97 1274 Z " />
<glyph glyph-name="eight" unicode="8" horiz-adv-x="1139" d="M362 795 Q250 836 196 912 Q142 988 142 1094 Q142 1254 257 1363 Q372 1472 563 1472 Q755 1472 872 1360.5 Q989 1249 989 1089 Q989 987 935.5 911.5 Q882 836 773 795 Q908 751 978.5 653 Q1049 555 1049 419 Q1049 231 916 103 Q783 -25 566 -25 Q349 -25 216 103.5 Q83 232 83 424 Q83 567 155.5 663.5 Q228 760 362 795 Z M326 1100 Q326 996 393 930 Q460 864 567 864 Q671 864 737.5 929.5 Q804 995 804 1090 Q804 1189 735.5 1256.5 Q667 1324 565 1324 Q462 1324 394 1258 Q326 1192 326 1100 Z M268 423 Q268 346 304.5 274 Q341 202 413 162.5 Q485 123 568 123 Q697 123 781 206 Q865 289 865 417 Q865 547 778.5 632 Q692 717 562 717 Q435 717 351.5 633 Q268 549 268 423 Z " />
<glyph glyph-name="nine" unicode="9" horiz-adv-x="1139" d="M112 339 L285 355 Q307 233 369 178 Q431 123 528 123 Q611 123 673.5 161 Q736 199 776 262.5 Q816 326 843 434 Q870 542 870 654 Q870 666 869 690 Q815 604 721.5 550.5 Q628 497 519 497 Q337 497 211 629 Q85 761 85 977 Q85 1200 216.5 1336 Q348 1472 546 1472 Q689 1472 807.5 1395 Q926 1318 987.5 1175.5 Q1049 1033 1049 763 Q1049 482 988 315.5 Q927 149 806.5 62 Q686 -25 524 -25 Q352 -25 243 70.5 Q134 166 112 339 Z M849 986 Q849 1141 766.5 1232 Q684 1323 568 1323 Q448 1323 359 1225 Q270 1127 270 971 Q270 831 354.5 743.5 Q439 656 563 656 Q688 656 768.5 743.5 Q849 831 849 986 Z " />
<glyph glyph-name="colon" unicode="&#x3a;" horiz-adv-x="569" d="M185 857 L185 1062 L390 1062 L390 857 L185 857 Z M185 0 L185 205 L390 205 L390 0 L185 0 Z " />
<glyph glyph-name="&amp;#x3b;" unicode="&#x3b;" horiz-adv-x="569" d="M182 857 L182 1062 L387 1062 L387 857 L182 857 Z M182 0 L182 205 L387 205 L387 0 Q387 -113 347 -182.5 Q307 -252 220 -290 L170 -213 Q227 -188 254 -139.5 Q281 -91 284 0 L182 0 Z " />
<glyph glyph-name="&amp;#x37e;" unicode="&#x37e;" horiz-adv-x="569" d="M182 857 L182 1062 L387 1062 L387 857 L182 857 Z M182 0 L182 205 L387 205 L387 0 Q387 -113 347 -182.5 Q307 -252 220 -290 L170 -213 Q227 -188 254 -139.5 Q281 -91 284 0 L182 0 Z " />
<glyph glyph-name="less" unicode="&#x3c;" horiz-adv-x="1196" d="M112 641 L112 809 L1083 1219 L1083 1040 L313 724 L1083 405 L1083 226 L112 641 Z " />
<glyph glyph-name="equal" unicode="&#x3d;" horiz-adv-x="1196" d="M1082 862 L114 862 L114 1030 L1082 1030 L1082 862 Z M1082 417 L114 417 L114 585 L1082 585 L1082 417 Z " />
<glyph glyph-name="greater" unicode="&#x3e;" horiz-adv-x="1196" d="M1083 641 L112 226 L112 405 L881 724 L112 1040 L112 1219 L1083 809 L1083 641 Z " />
<glyph glyph-name="question" unicode="&#x3f;" horiz-adv-x="1139" d="M472 361 Q471 397 471 415 Q471 521 501 598 Q523 656 572 715 Q608 758 701.5 840.5 Q795 923 823 972 Q851 1021 851 1079 Q851 1184 769 1263.5 Q687 1343 568 1343 Q453 1343 376 1271 Q299 1199 275 1046 L90 1068 Q115 1273 238.5 1382 Q362 1491 565 1491 Q780 1491 908 1374 Q1036 1257 1036 1091 Q1036 995 991 914 Q946 833 815 717 Q727 639 700 602 Q673 565 660 517 Q647 469 645 361 L472 361 Z M461 0 L461 205 L666 205 L666 0 L461 0 Z " />
<glyph glyph-name="at" unicode="&#x40;" horiz-adv-x="2079" d="M1161 163 Q1096 88 1015.5 42.5 Q935 -3 854 -3 Q765 -3 681 49 Q597 101 544.5 209 Q492 317 492 446 Q492 605 573.5 764.5 Q655 924 776 1004 Q897 1084 1011 1084 Q1098 1084 1177 1038.5 Q1256 993 1313 900 L1347 1055 L1526 1055 L1382 384 Q1352 244 1352 229 Q1352 202 1372.5 182.5 Q1393 163 1422 163 Q1475 163 1561 224 Q1675 304 1741.5 438.5 Q1808 573 1808 716 Q1808 883 1722.5 1028 Q1637 1173 1467.5 1260 Q1298 1347 1093 1347 Q859 1347 665.5 1237.5 Q472 1128 365.5 923.5 Q259 719 259 485 Q259 240 365.5 63 Q472 -114 673.5 -198.5 Q875 -283 1120 -283 Q1382 -283 1559 -195 Q1736 -107 1824 19 L2005 19 Q1954 -86 1830 -195 Q1706 -304 1535 -367.5 Q1364 -431 1123 -431 Q901 -431 713.5 -374 Q526 -317 394 -202.5 Q262 -88 195 61 Q111 250 111 469 Q111 713 211 934 Q333 1205 557.5 1349 Q782 1493 1102 1493 Q1350 1493 1547.5 1391.5 Q1745 1290 1859 1089 Q1956 916 1956 713 Q1956 423 1752 198 Q1570 -4 1354 -4 Q1285 -4 1242.5 17 Q1200 38 1180 77 Q1167 102 1161 163 Z M677 434 Q677 297 742 221 Q807 145 891 145 Q947 145 1009 178.5 Q1071 212 1127.5 278 Q1184 344 1220 445.5 Q1256 547 1256 649 Q1256 785 1188.5 860 Q1121 935 1024 935 Q960 935 903.5 902.5 Q847 870 794 798 Q741 726 709 623 Q677 520 677 434 Z " />
<glyph glyph-name="A" unicode="A" horiz-adv-x="1366" d="M-3 0 L560 1466 L769 1466 L1369 0 L1148 0 L977 444 L364 444 L203 0 L-3 0 Z M420 602 L917 602 L764 1008 Q694 1193 660 1312 Q632 1171 581 1032 L420 602 Z " />
<glyph glyph-name="B" unicode="B" horiz-adv-x="1366" d="M150 0 L150 1466 L700 1466 Q868 1466 969.5 1421.5 Q1071 1377 1128.5 1284.5 Q1186 1192 1186 1091 Q1186 997 1135 914 Q1084 831 981 780 Q1114 741 1185.5 647 Q1257 553 1257 425 Q1257 322 1213.5 233.5 Q1170 145 1106 97 Q1042 49 945.5 24.5 Q849 0 709 0 L150 0 Z M344 850 L661 850 Q790 850 846 867 Q920 889 957.5 940 Q995 991 995 1068 Q995 1141 960 1196.5 Q925 1252 860 1272.5 Q795 1293 637 1293 L344 1293 L344 850 Z M344 173 L709 173 Q803 173 841 180 Q908 192 953 220 Q998 248 1027 301.5 Q1056 355 1056 425 Q1056 507 1014 567.5 Q972 628 897.5 652.5 Q823 677 683 677 L344 677 L344 173 Z " />
<glyph glyph-name="C" unicode="C" horiz-adv-x="1479" d="M1204 514 L1398 465 Q1337 226 1178.5 100.5 Q1020 -25 791 -25 Q554 -25 405.5 71.5 Q257 168 179.5 351 Q102 534 102 744 Q102 973 189.5 1143.5 Q277 1314 438.5 1402.5 Q600 1491 794 1491 Q1014 1491 1164 1379 Q1314 1267 1373 1064 L1182 1019 Q1131 1179 1034 1252 Q937 1325 790 1325 Q621 1325 507.5 1244 Q394 1163 348 1026.5 Q302 890 302 745 Q302 558 356.5 418.5 Q411 279 526 210 Q641 141 775 141 Q938 141 1051 235 Q1164 329 1204 514 Z " />
<glyph glyph-name="D" unicode="D" horiz-adv-x="1479" d="M158 0 L158 1466 L663 1466 Q834 1466 924 1445 Q1050 1416 1139 1340 Q1255 1242 1312.5 1089.5 Q1370 937 1370 741 Q1370 574 1331 445 Q1292 316 1231 231.5 Q1170 147 1097.5 98.5 Q1025 50 922.5 25 Q820 0 687 0 L158 0 Z M352 173 L665 173 Q810 173 892.5 200 Q975 227 1024 276 Q1093 345 1131.5 461.5 Q1170 578 1170 744 Q1170 974 1094.5 1097.5 Q1019 1221 911 1263 Q833 1293 660 1293 L352 1293 L352 173 Z " />
<glyph glyph-name="E" unicode="E" horiz-adv-x="1366" d="M162 0 L162 1466 L1222 1466 L1222 1293 L356 1293 L356 844 L1167 844 L1167 672 L356 672 L356 173 L1256 173 L1256 0 L162 0 Z " />
<glyph glyph-name="F" unicode="F" horiz-adv-x="1251" d="M168 0 L168 1466 L1157 1466 L1157 1293 L362 1293 L362 839 L1050 839 L1050 666 L362 666 L362 0 L168 0 Z " />
<glyph glyph-name="G" unicode="G" horiz-adv-x="1593" d="M844 575 L844 747 L1465 748 L1465 204 Q1322 90 1170 32.5 Q1018 -25 858 -25 Q642 -25 465.5 67.5 Q289 160 199 335 Q109 510 109 726 Q109 940 198.5 1125.5 Q288 1311 456 1401 Q624 1491 843 1491 Q1002 1491 1130.5 1439.5 Q1259 1388 1332 1296 Q1405 1204 1443 1056 L1268 1008 Q1235 1120 1186 1184 Q1137 1248 1046 1286.5 Q955 1325 844 1325 Q711 1325 614 1284.5 Q517 1244 457.5 1178 Q398 1112 365 1033 Q309 897 309 738 Q309 542 376.5 410 Q444 278 573 214 Q702 150 847 150 Q973 150 1093 198.5 Q1213 247 1275 302 L1275 575 L844 575 Z " />
<glyph glyph-name="H" unicode="H" horiz-adv-x="1479" d="M164 0 L164 1466 L358 1466 L358 864 L1120 864 L1120 1466 L1314 1466 L1314 0 L1120 0 L1120 691 L358 691 L358 0 L164 0 Z " />
<glyph glyph-name="I" unicode="I" horiz-adv-x="569" d="M191 0 L191 1466 L385 1466 L385 0 L191 0 Z " />
<glyph glyph-name="J" unicode="J" horiz-adv-x="1024" d="M59 416 L234 440 Q241 272 297 210 Q353 148 452 148 Q525 148 578 181.5 Q631 215 651 272.5 Q671 330 671 456 L671 1466 L865 1466 L865 467 Q865 283 820.5 182 Q776 81 679.5 28 Q583 -25 453 -25 Q260 -25 157.5 86 Q55 197 59 416 Z " />
<glyph glyph-name="K" unicode="K" horiz-adv-x="1366" d="M150 0 L150 1466 L344 1466 L344 739 L1072 1466 L1335 1466 L720 872 L1362 0 L1106 0 L584 742 L344 508 L344 0 L150 0 Z " />
<glyph glyph-name="L" unicode="L" horiz-adv-x="1139" d="M150 0 L150 1466 L344 1466 L344 173 L1066 173 L1066 0 L150 0 Z " />
<glyph glyph-name="M" unicode="M" horiz-adv-x="1706" d="M152 0 L152 1466 L444 1466 L791 428 Q839 283 861 211 Q886 291 939 446 L1290 1466 L1551 1466 L1551 0 L1364 0 L1364 1227 L938 0 L763 0 L339 1248 L339 0 L152 0 Z " />
<glyph glyph-name="N" unicode="N" horiz-adv-x="1479" d="M156 0 L156 1466 L355 1466 L1125 315 L1125 1466 L1311 1466 L1311 0 L1112 0 L342 1152 L342 0 L156 0 Z " />
<glyph glyph-name="O" unicode="O" horiz-adv-x="1593" d="M99 714 Q99 1079 295 1285.5 Q491 1492 801 1492 Q1004 1492 1167 1395 Q1330 1298 1415.5 1124.5 Q1501 951 1501 731 Q1501 508 1411 332 Q1321 156 1156 65.5 Q991 -25 800 -25 Q593 -25 430 75 Q267 175 183 348 Q99 521 99 714 Z M299 711 Q299 446 441.5 293.5 Q584 141 799 141 Q1018 141 1159.5 295 Q1301 449 1301 732 Q1301 911 1240.5 1044.5 Q1180 1178 1063.5 1251.5 Q947 1325 802 1325 Q596 1325 447.5 1183.5 Q299 1042 299 711 Z " />
<glyph glyph-name="P" unicode="P" horiz-adv-x="1366" d="M158 0 L158 1466 L711 1466 Q857 1466 934 1452 Q1042 1434 1115 1383.5 Q1188 1333 1232.5 1242 Q1277 1151 1277 1042 Q1277 855 1158 725.5 Q1039 596 728 596 L352 596 L352 0 L158 0 Z M352 769 L731 769 Q919 769 998 839 Q1077 909 1077 1036 Q1077 1128 1030.5 1193.5 Q984 1259 908 1280 Q859 1293 727 1293 L352 1293 L352 769 Z " />
<glyph glyph-name="Q" unicode="Q" horiz-adv-x="1593" d="M1269 157 Q1404 64 1518 21 L1461 -114 Q1303 -57 1146 66 Q983 -25 786 -25 Q587 -25 425 71 Q263 167 175.5 341 Q88 515 88 733 Q88 950 176 1128 Q264 1306 426.5 1399 Q589 1492 790 1492 Q993 1492 1156 1395.5 Q1319 1299 1404.5 1125.5 Q1490 952 1490 734 Q1490 553 1435 408.5 Q1380 264 1269 157 Z M842 405 Q1010 358 1119 265 Q1290 421 1290 734 Q1290 912 1229.5 1045 Q1169 1178 1052.5 1251.5 Q936 1325 791 1325 Q574 1325 431 1176.5 Q288 1028 288 733 Q288 447 429.5 294 Q571 141 791 141 Q895 141 987 180 Q896 239 795 264 L842 405 Z " />
<glyph glyph-name="R" unicode="R" horiz-adv-x="1479" d="M161 0 L161 1466 L811 1466 Q1007 1466 1109 1426.5 Q1211 1387 1272 1287 Q1333 1187 1333 1066 Q1333 910 1232 803 Q1131 696 920 667 Q997 630 1037 594 Q1122 516 1198 399 L1453 0 L1209 0 L1015 305 Q930 437 875 507 Q820 577 776.5 605 Q733 633 688 644 Q655 651 580 651 L355 651 L355 0 L161 0 Z M355 819 L772 819 Q905 819 980 846.5 Q1055 874 1094 934.5 Q1133 995 1133 1066 Q1133 1170 1057.5 1237 Q982 1304 819 1304 L355 1304 L355 819 Z " />
<glyph glyph-name="S" unicode="S" horiz-adv-x="1366" d="M92 471 L275 487 Q288 377 335.5 306.5 Q383 236 483 192.5 Q583 149 708 149 Q819 149 904 182 Q989 215 1030.5 272.5 Q1072 330 1072 398 Q1072 467 1032 518.5 Q992 570 900 605 Q841 628 639 676.5 Q437 725 356 768 Q251 823 199.5 904.5 Q148 986 148 1087 Q148 1198 211 1294.5 Q274 1391 395 1441 Q516 1491 664 1491 Q827 1491 951.5 1438.5 Q1076 1386 1143 1284 Q1210 1182 1215 1053 L1029 1039 Q1014 1178 927.5 1249 Q841 1320 672 1320 Q496 1320 415.5 1255.5 Q335 1191 335 1100 Q335 1021 392 970 Q448 919 684.5 865.5 Q921 812 1009 772 Q1137 713 1198 622.5 Q1259 532 1259 414 Q1259 297 1192 193.5 Q1125 90 999.5 32.5 Q874 -25 717 -25 Q518 -25 383.5 33 Q249 91 172.5 207.5 Q96 324 92 471 Z " />
<glyph glyph-name="T" unicode="T" horiz-adv-x="1251" d="M531 0 L531 1293 L48 1293 L48 1466 L1210 1466 L1210 1293 L725 1293 L725 0 L531 0 Z " />
<glyph glyph-name="U" unicode="U" horiz-adv-x="1479" d="M1120 1466 L1314 1466 L1314 619 Q1314 398 1264 268 Q1214 138 1083.5 56.5 Q953 -25 741 -25 Q535 -25 404 46 Q273 117 217 251.5 Q161 386 161 619 L161 1466 L355 1466 L355 620 Q355 429 390.5 338.5 Q426 248 512.5 199 Q599 150 724 150 Q938 150 1029 247 Q1120 344 1120 620 L1120 1466 Z " />
<glyph glyph-name="V" unicode="V" horiz-adv-x="1366" d="M577 0 L9 1466 L219 1466 L600 401 Q646 273 677 161 Q711 281 756 401 L1152 1466 L1350 1466 L776 0 L577 0 Z " />
<glyph glyph-name="W" unicode="W" horiz-adv-x="1933" d="M414 0 L25 1466 L224 1466 L447 505 Q483 354 509 205 Q565 440 575 476 L854 1466 L1088 1466 L1298 724 Q1377 448 1412 205 Q1440 344 1485 524 L1715 1466 L1910 1466 L1508 0 L1321 0 L1012 1117 Q973 1257 966 1289 Q943 1188 923 1117 L612 0 L414 0 Z " />
<glyph glyph-name="X" unicode="X" horiz-adv-x="1366" d="M9 0 L576 764 L76 1466 L307 1466 L573 1090 Q656 973 691 910 Q740 990 807 1077 L1102 1466 L1313 1466 L798 775 L1353 0 L1113 0 L744 523 Q713 568 680 621 Q631 541 610 511 L242 0 L9 0 Z " />
<glyph glyph-name="Y" unicode="Y" horiz-adv-x="1366" d="M571 0 L571 621 L6 1466 L242 1466 L531 1024 Q611 900 680 776 Q746 891 840 1035 L1124 1466 L1350 1466 L765 621 L765 0 L571 0 Z " />
<glyph glyph-name="Z" unicode="Z" horiz-adv-x="1251" d="M41 0 L41 180 L792 1119 Q872 1219 944 1293 L126 1293 L126 1466 L1176 1466 L1176 1293 L353 276 L264 173 L1200 173 L1200 0 L41 0 Z " />
<glyph glyph-name="bracketleft" unicode="&#x5b;" horiz-adv-x="569" d="M139 -407 L139 1466 L536 1466 L536 1317 L319 1317 L319 -258 L536 -258 L536 -407 L139 -407 Z " />
<glyph glyph-name="backslash" unicode="&#x5c;" horiz-adv-x="569" d="M425 -25 L0 1491 L145 1491 L569 -25 L425 -25 Z " />
<glyph glyph-name="bracketright" unicode="&#x5d;" horiz-adv-x="569" d="M436 -407 L39 -407 L39 -258 L256 -258 L256 1317 L39 1317 L39 1466 L436 1466 L436 -407 Z " />
<glyph glyph-name="asciicircum" unicode="&#x5e;" horiz-adv-x="961" d="M239 690 L54 690 L407 1491 L552 1491 L907 690 L726 690 L479 1287 L239 690 Z " />
<glyph glyph-name="underscore" unicode="&#x5f;" horiz-adv-x="1139" d="M-31 -407 L-31 -277 L1162 -277 L1162 -407 L-31 -407 Z " />
<glyph glyph-name="grave" unicode="&#x60;" horiz-adv-x="682" d="M465 1194 L320 1194 L89 1474 L330 1474 L465 1194 Z " />
<glyph glyph-name="a" unicode="a" horiz-adv-x="1139" d="M828 131 Q728 46 635.5 11 Q543 -24 437 -24 Q262 -24 168 61.5 Q74 147 74 280 Q74 358 109.5 422.5 Q145 487 202.5 526 Q260 565 332 585 Q385 599 492 612 Q710 638 813 674 Q814 711 814 721 Q814 831 763 876 Q694 937 558 937 Q431 937 370.5 892.5 Q310 848 281 735 L105 759 Q129 872 184 941.5 Q239 1011 343 1048.5 Q447 1086 584 1086 Q720 1086 805 1054 Q890 1022 930 973.5 Q970 925 986 851 Q995 805 995 685 L995 445 Q995 194 1006.5 127.5 Q1018 61 1052 0 L864 0 Q836 56 828 131 Z M813 533 Q715 493 519 465 Q408 449 362 429 Q316 409 291 370.5 Q266 332 266 285 Q266 213 320.5 165 Q375 117 480 117 Q584 117 665 162.5 Q746 208 784 287 Q813 348 813 467 L813 533 Z " />
<glyph glyph-name="b" unicode="b" horiz-adv-x="1139" d="M301 0 L134 0 L134 1466 L314 1466 L314 943 Q428 1086 605 1086 Q703 1086 790.5 1046.5 Q878 1007 934.5 935.5 Q991 864 1023 763 Q1055 662 1055 547 Q1055 274 920 125 Q785 -24 596 -24 Q408 -24 301 133 L301 0 Z M299 539 Q299 348 351 263 Q436 124 581 124 Q699 124 785 226.5 Q871 329 871 532 Q871 740 788.5 839 Q706 938 589 938 Q471 938 385 835.5 Q299 733 299 539 Z " />
<glyph glyph-name="c" unicode="c" horiz-adv-x="1024" d="M828 389 L1005 366 Q976 183 856.5 79.5 Q737 -24 563 -24 Q345 -24 212.5 118.5 Q80 261 80 527 Q80 699 137 828 Q194 957 310.5 1021.5 Q427 1086 564 1086 Q737 1086 847 998.5 Q957 911 988 750 L813 723 Q788 830 724.5 884 Q661 938 571 938 Q435 938 350 840.5 Q265 743 265 532 Q265 318 347 221 Q429 124 561 124 Q667 124 738 189 Q809 254 828 389 Z " />
<glyph glyph-name="d" unicode="d" horiz-adv-x="1139" d="M824 0 L824 134 Q723 -24 527 -24 Q400 -24 293.5 46 Q187 116 128.5 241.5 Q70 367 70 530 Q70 689 123 818.5 Q176 948 282 1017 Q388 1086 519 1086 Q615 1086 690 1045.5 Q765 1005 812 940 L812 1466 L991 1466 L991 0 L824 0 Z M255 530 Q255 326 341 225 Q427 124 544 124 Q662 124 744.5 220.5 Q827 317 827 515 Q827 733 743 835 Q659 937 536 937 Q416 937 335.5 839 Q255 741 255 530 Z " />
<glyph glyph-name="e" unicode="e" horiz-adv-x="1139" d="M862 342 L1048 319 Q1004 156 885 66 Q766 -24 581 -24 Q348 -24 211.5 119.5 Q75 263 75 522 Q75 790 213 938 Q351 1086 571 1086 Q784 1086 919 941 Q1054 796 1054 533 Q1054 517 1053 485 L261 485 Q271 310 360 217 Q449 124 582 124 Q681 124 751 176 Q821 228 862 342 Z M271 633 L864 633 Q852 767 796 834 Q710 938 573 938 Q449 938 364.5 855 Q280 772 271 633 Z " />
<glyph glyph-name="f" unicode="f" horiz-adv-x="569" d="M178 0 L178 922 L19 922 L19 1062 L178 1062 L178 1175 Q178 1282 197 1334 Q223 1404 288.5 1447.5 Q354 1491 472 1491 Q548 1491 640 1473 L613 1316 Q557 1326 507 1326 Q425 1326 391 1291 Q357 1256 357 1160 L357 1062 L564 1062 L564 922 L357 922 L357 0 L178 0 Z " />
<glyph glyph-name="g" unicode="g" horiz-adv-x="1139" d="M102 -88 L277 -114 Q288 -195 338 -232 Q405 -282 521 -282 Q646 -282 714 -232 Q782 -182 806 -92 Q820 -37 819 139 Q701 0 525 0 Q306 0 186 158 Q66 316 66 537 Q66 689 121 817.5 Q176 946 280.5 1016 Q385 1086 526 1086 Q714 1086 836 934 L836 1062 L1002 1062 L1002 144 Q1002 -104 951.5 -207.5 Q901 -311 791.5 -371 Q682 -431 522 -431 Q332 -431 215 -345.5 Q98 -260 102 -88 Z M251 550 Q251 341 334 245 Q417 149 542 149 Q666 149 750 244.5 Q834 340 834 544 Q834 739 747.5 838 Q661 937 539 937 Q419 937 335 839.5 Q251 742 251 550 Z " />
<glyph glyph-name="h" unicode="h" horiz-adv-x="1139" d="M135 0 L135 1466 L315 1466 L315 940 Q441 1086 633 1086 Q751 1086 838 1039.5 Q925 993 962.5 911 Q1000 829 1000 673 L1000 0 L820 0 L820 673 Q820 808 761.5 869.5 Q703 931 596 931 Q516 931 445.5 889.5 Q375 848 345 777 Q315 706 315 581 L315 0 L135 0 Z " />
<glyph glyph-name="i" unicode="i" horiz-adv-x="455" d="M136 1259 L136 1466 L316 1466 L316 1259 L136 1259 Z M136 0 L136 1062 L316 1062 L316 0 L136 0 Z " />
<glyph glyph-name="j" unicode="j" horiz-adv-x="455" d="M134 1257 L134 1466 L314 1466 L314 1257 L134 1257 Z M-94 -412 L-60 -259 Q-6 -273 25 -273 Q80 -273 107 -236.5 Q134 -200 134 -54 L134 1062 L314 1062 L314 -58 Q314 -254 263 -331 Q198 -431 47 -431 Q-26 -431 -94 -412 Z " />
<glyph glyph-name="k" unicode="k" horiz-adv-x="1024" d="M136 0 L136 1466 L316 1466 L316 630 L742 1062 L975 1062 L569 668 L1016 0 L794 0 L443 543 L316 421 L316 0 L136 0 Z " />
<glyph glyph-name="l" unicode="l" horiz-adv-x="455" d="M131 0 L131 1466 L311 1466 L311 0 L131 0 Z " />
<glyph glyph-name="m" unicode="m" horiz-adv-x="1706" d="M135 0 L135 1062 L296 1062 L296 913 Q346 991 429 1038.5 Q512 1086 618 1086 Q736 1086 811.5 1037 Q887 988 918 900 Q1044 1086 1246 1086 Q1404 1086 1489 998.5 Q1574 911 1574 729 L1574 0 L1395 0 L1395 669 Q1395 777 1377.5 824.5 Q1360 872 1314 901 Q1268 930 1206 930 Q1094 930 1020 855.5 Q946 781 946 617 L946 0 L766 0 L766 690 Q766 810 722 870 Q678 930 578 930 Q502 930 437.5 890 Q373 850 344 773 Q315 696 315 551 L315 0 L135 0 Z " />
<glyph glyph-name="n" unicode="n" horiz-adv-x="1139" d="M135 0 L135 1062 L297 1062 L297 911 Q414 1086 635 1086 Q731 1086 811.5 1051.5 Q892 1017 932 961 Q972 905 988 828 Q998 778 998 653 L998 0 L818 0 L818 646 Q818 756 797 810.5 Q776 865 722.5 897.5 Q669 930 597 930 Q482 930 398.5 857 Q315 784 315 580 L315 0 L135 0 Z " />
<glyph glyph-name="o" unicode="o" horiz-adv-x="1139" d="M68 531 Q68 826 232 968 Q369 1086 566 1086 Q785 1086 924 942.5 Q1063 799 1063 546 Q1063 341 1001.5 223.5 Q940 106 822.5 41 Q705 -24 566 -24 Q343 -24 205.5 119 Q68 262 68 531 Z M253 531 Q253 327 342 225.5 Q431 124 566 124 Q700 124 789 226 Q878 328 878 537 Q878 734 788.5 835.5 Q699 937 566 937 Q431 937 342 836 Q253 735 253 531 Z " />
<glyph glyph-name="p" unicode="p" horiz-adv-x="1139" d="M135 -407 L135 1062 L299 1062 L299 924 Q357 1005 430 1045.5 Q503 1086 607 1086 Q743 1086 847 1016 Q951 946 1004 818.5 Q1057 691 1057 539 Q1057 376 998.5 245.5 Q940 115 828.5 45.5 Q717 -24 594 -24 Q504 -24 432.5 14 Q361 52 315 110 L315 -407 L135 -407 Z M298 525 Q298 320 381 222 Q464 124 582 124 Q702 124 787.5 225.5 Q873 327 873 540 Q873 743 789.5 844 Q706 945 590 945 Q475 945 386.5 837.5 Q298 730 298 525 Z " />
<glyph glyph-name="q" unicode="q" horiz-adv-x="1139" d="M812 -407 L812 113 Q770 54 694.5 15 Q619 -24 534 -24 Q345 -24 208.5 127 Q72 278 72 541 Q72 701 127.5 828 Q183 955 288.5 1020.5 Q394 1086 520 1086 Q717 1086 830 920 L830 1062 L992 1062 L992 -407 L812 -407 Z M257 534 Q257 329 343 226.5 Q429 124 549 124 Q664 124 747 221.5 Q830 319 830 518 Q830 730 742.5 837 Q655 944 537 944 Q420 944 338.5 844.5 Q257 745 257 534 Z " />
<glyph glyph-name="r" unicode="r" horiz-adv-x="682" d="M133 0 L133 1062 L295 1062 L295 901 Q357 1014 409.5 1050 Q462 1086 525 1086 Q616 1086 710 1028 L648 861 Q582 900 516 900 Q457 900 410 864.5 Q363 829 343 766 Q313 670 313 556 L313 0 L133 0 Z " />
<glyph glyph-name="s" unicode="s" horiz-adv-x="1024" d="M63 317 L241 345 Q256 238 324.5 181 Q393 124 516 124 Q640 124 700 174.5 Q760 225 760 293 Q760 354 707 389 Q670 413 523 450 Q325 500 248.5 536.5 Q172 573 132.5 637.5 Q93 702 93 780 Q93 851 125.5 911.5 Q158 972 214 1012 Q256 1043 328.5 1064.5 Q401 1086 484 1086 Q609 1086 703.5 1050 Q798 1014 843 952.5 Q888 891 905 788 L729 764 Q717 846 659.5 892 Q602 938 497 938 Q373 938 320 897 Q267 856 267 801 Q267 766 289 738 Q311 709 358 690 Q385 680 517 644 Q708 593 783.5 560.5 Q859 528 902 466 Q945 404 945 312 Q945 222 892.5 142.5 Q840 63 741 19.5 Q642 -24 517 -24 Q310 -24 201.5 62 Q93 148 63 317 Z " />
<glyph glyph-name="t" unicode="t" horiz-adv-x="569" d="M528 161 L554 2 Q478 -14 418 -14 Q320 -14 266 17 Q212 48 190 98.5 Q168 149 168 311 L168 922 L36 922 L36 1062 L168 1062 L168 1325 L347 1433 L347 1062 L528 1062 L528 922 L347 922 L347 301 Q347 224 356.5 202 Q366 180 387.5 167 Q409 154 449 154 Q479 154 528 161 Z " />
<glyph glyph-name="u" unicode="u" horiz-adv-x="1139" d="M831 0 L831 156 Q707 -24 494 -24 Q400 -24 318.5 12 Q237 48 197.5 102.5 Q158 157 142 236 Q131 289 131 404 L131 1062 L311 1062 L311 473 Q311 332 322 283 Q339 212 394 171.5 Q449 131 530 131 Q611 131 682 172.5 Q753 214 782.5 285.5 Q812 357 812 493 L812 1062 L992 1062 L992 0 L831 0 Z " />
<glyph glyph-name="v" unicode="v" horiz-adv-x="1024" d="M430 0 L26 1062 L216 1062 L444 426 Q481 323 512 212 Q536 296 579 414 L815 1062 L1000 1062 L598 0 L430 0 Z " />
<glyph glyph-name="w" unicode="w" horiz-adv-x="1479" d="M331 0 L6 1062 L192 1062 L361 449 L424 221 Q428 238 479 440 L648 1062 L833 1062 L992 446 L1045 243 L1106 448 L1288 1062 L1463 1062 L1131 0 L944 0 L775 636 L734 817 L519 0 L331 0 Z " />
<glyph glyph-name="x" unicode="x" horiz-adv-x="1024" d="M15 0 L403 552 L44 1062 L269 1062 L432 813 Q478 742 506 694 Q550 760 587 811 L766 1062 L981 1062 L614 562 L1009 0 L788 0 L570 330 L512 419 L233 0 L15 0 Z " />
<glyph glyph-name="y" unicode="y" horiz-adv-x="1024" d="M127 -409 L107 -240 Q166 -256 210 -256 Q270 -256 306 -236 Q342 -216 365 -180 Q382 -153 420 -46 Q425 -31 436 -2 L33 1062 L227 1062 L448 447 Q491 330 525 201 Q556 325 599 443 L826 1062 L1006 1062 L602 -18 Q537 -193 501 -259 Q453 -348 391 -389.5 Q329 -431 243 -431 Q191 -431 127 -409 Z " />
<glyph glyph-name="z" unicode="z" horiz-adv-x="1024" d="M40 0 L40 146 L716 922 Q601 916 513 916 L80 916 L80 1062 L948 1062 L948 943 L373 269 L262 146 Q383 155 489 155 L980 155 L980 0 L40 0 Z " />
<glyph glyph-name="braceleft" unicode="&#x7b;" horiz-adv-x="684" d="M57 612 Q134 614 182.5 653.5 Q231 693 247 762 Q263 831 264 998 Q265 1165 270 1218 Q279 1302 303.5 1353 Q328 1404 364 1434.5 Q400 1465 456 1481 Q494 1491 580 1491 L636 1491 L636 1334 L605 1334 Q501 1334 467 1296.5 Q433 1259 433 1129 Q433 867 422 798 Q404 691 360.5 633 Q317 575 224 530 Q334 484 383.5 389.5 Q433 295 433 80 Q433 -115 437 -152 Q445 -220 477.5 -247 Q510 -274 605 -274 L636 -274 L636 -431 L580 -431 Q482 -431 438 -415 Q374 -392 332 -340.5 Q290 -289 277.5 -210 Q265 -131 264 49 Q263 229 247 298 Q231 367 182.5 407 Q134 447 57 449 L57 612 Z " />
<glyph glyph-name="bar" unicode="&#x7c;" horiz-adv-x="532" d="M188 -431 L188 1491 L345 1491 L345 -431 L188 -431 Z " />
<glyph glyph-name="braceright" unicode="&#x7d;" horiz-adv-x="684" d="M626 612 L626 449 Q549 447 500.5 407 Q452 367 436 298.5 Q420 230 419 63 Q418 -104 413 -157 Q404 -242 379.5 -292.5 Q355 -343 319 -373.5 Q283 -404 227 -420 Q189 -431 103 -431 L47 -431 L47 -274 L78 -274 Q182 -274 216 -236.5 Q250 -199 250 -68 Q250 182 259 249 Q275 360 323 426.5 Q371 493 459 530 Q344 585 297 675.5 Q250 766 250 981 Q250 1176 245 1214 Q238 1281 205.5 1307.5 Q173 1334 78 1334 L47 1334 L47 1491 L103 1491 Q201 1491 245 1475 Q309 1453 351 1401 Q393 1349 405.5 1270 Q418 1191 419 1011 Q420 831 436 762.5 Q452 694 500.5 654 Q549 614 626 612 Z " />
<glyph glyph-name="asciitilde" unicode="&#x7e;" horiz-adv-x="1196" d="M87 557 L87 762 Q193 882 365 882 Q425 882 491 864.5 Q557 847 679 795 Q748 766 782.5 757 Q817 748 852 748 Q917 748 986.5 787 Q1056 826 1110 885 L1110 673 Q1046 613 980.5 586 Q915 559 833 559 Q773 559 718.5 573 Q664 587 545.5 640 Q427 693 348 693 Q284 693 227.5 665.5 Q171 638 87 557 Z " />
<glyph glyph-name="Adieresis" unicode="&#xc4;" horiz-adv-x="1366" d="M-3 0 L560 1466 L769 1466 L1369 0 L1148 0 L977 444 L364 444 L203 0 L-3 0 Z M420 602 L917 602 L764 1008 Q694 1193 660 1312 Q632 1171 581 1032 L420 602 Z M379 1556 L379 1761 L567 1761 L567 1556 L379 1556 Z M752 1556 L752 1761 L940 1761 L940 1556 L752 1556 Z " />
<glyph glyph-name="Aring" unicode="&#xc5;" horiz-adv-x="1366" d="M-3 0 L560 1466 L769 1466 L1369 0 L1148 0 L977 444 L364 444 L203 0 L-3 0 Z M420 602 L917 602 L764 1008 Q694 1193 660 1312 Q632 1171 581 1032 L420 602 Z M481 1601 Q481 1674 534.5 1727 Q588 1780 661 1780 Q735 1780 788 1726.5 Q841 1673 841 1597 Q841 1520 788 1467 Q735 1414 662 1414 Q587 1414 534 1467.5 Q481 1521 481 1601 Z M557 1600 Q557 1553 588.5 1521 Q620 1489 663 1489 Q706 1489 737.5 1521 Q769 1553 769 1598 Q769 1643 738 1675 Q707 1707 663 1707 Q620 1707 588.5 1675.5 Q557 1644 557 1600 Z " />
<glyph glyph-name="Ccedilla" unicode="&#xc7;" horiz-adv-x="1479" d="M1204 514 L1398 465 Q1337 226 1178.5 100.5 Q1020 -25 791 -25 Q554 -25 405.5 71.5 Q257 168 179.5 351 Q102 534 102 744 Q102 973 189.5 1143.5 Q277 1314 438.5 1402.5 Q600 1491 794 1491 Q1014 1491 1164 1379 Q1314 1267 1373 1064 L1182 1019 Q1131 1179 1034 1252 Q937 1325 790 1325 Q621 1325 507.5 1244 Q394 1163 348 1026.5 Q302 890 302 745 Q302 558 356.5 418.5 Q411 279 526 210 Q641 141 775 141 Q938 141 1051 235 Q1164 329 1204 514 Z M620 -154 L672 23 L806 23 L773 -84 Q858 -94 901 -136.5 Q944 -179 944 -231 Q944 -306 872 -363.5 Q800 -421 655 -421 Q573 -421 511 -409 L522 -292 Q586 -296 616 -296 Q710 -296 748 -270 Q777 -250 777 -221 Q777 -203 765.5 -189 Q754 -175 723 -165 Q692 -155 620 -154 Z " />
<glyph glyph-name="Eacute" unicode="&#xc9;" horiz-adv-x="1366" d="M162 0 L162 1466 L1222 1466 L1222 1293 L356 1293 L356 844 L1167 844 L1167 672 L356 672 L356 173 L1256 173 L1256 0 L162 0 Z M562 1556 L695 1836 L931 1836 L711 1556 L562 1556 Z " />
<glyph glyph-name="Ntilde" unicode="&#xd1;" horiz-adv-x="1479" d="M156 0 L156 1466 L355 1466 L1125 315 L1125 1466 L1311 1466 L1311 0 L1112 0 L342 1152 L342 0 L156 0 Z M430 1556 Q429 1660 487 1722 Q544 1784 633 1784 Q695 1784 802 1730 Q861 1700 896 1700 Q928 1700 945 1717.5 Q962 1735 969 1787 L1099 1787 Q1096 1673 1041.5 1616 Q987 1559 903 1559 Q840 1559 737 1615 Q670 1651 639 1651 Q605 1651 584 1627 Q562 1603 563 1556 L430 1556 Z " />
<glyph glyph-name="Odieresis" unicode="&#xd6;" horiz-adv-x="1593" d="M99 714 Q99 1079 295 1285.5 Q491 1492 801 1492 Q1004 1492 1167 1395 Q1330 1298 1415.5 1124.5 Q1501 951 1501 731 Q1501 508 1411 332 Q1321 156 1156 65.5 Q991 -25 800 -25 Q593 -25 430 75 Q267 175 183 348 Q99 521 99 714 Z M299 711 Q299 446 441.5 293.5 Q584 141 799 141 Q1018 141 1159.5 295 Q1301 449 1301 732 Q1301 911 1240.5 1044.5 Q1180 1178 1063.5 1251.5 Q947 1325 802 1325 Q596 1325 447.5 1183.5 Q299 1042 299 711 Z M516 1556 L516 1761 L704 1761 L704 1556 L516 1556 Z M889 1556 L889 1761 L1077 1761 L1077 1556 L889 1556 Z " />
<glyph glyph-name="Udieresis" unicode="&#xdc;" horiz-adv-x="1479" d="M1120 1466 L1314 1466 L1314 619 Q1314 398 1264 268 Q1214 138 1083.5 56.5 Q953 -25 741 -25 Q535 -25 404 46 Q273 117 217 251.5 Q161 386 161 619 L161 1466 L355 1466 L355 620 Q355 429 390.5 338.5 Q426 248 512.5 199 Q599 150 724 150 Q938 150 1029 247 Q1120 344 1120 620 L1120 1466 Z M454 1556 L454 1761 L642 1761 L642 1556 L454 1556 Z M827 1556 L827 1761 L1015 1761 L1015 1556 L827 1556 Z " />
<glyph glyph-name="aacute" unicode="&#xe1;" horiz-adv-x="1139" d="M828 131 Q728 46 635.5 11 Q543 -24 437 -24 Q262 -24 168 61.5 Q74 147 74 280 Q74 358 109.5 422.5 Q145 487 202.5 526 Q260 565 332 585 Q385 599 492 612 Q710 638 813 674 Q814 711 814 721 Q814 831 763 876 Q694 937 558 937 Q431 937 370.5 892.5 Q310 848 281 735 L105 759 Q129 872 184 941.5 Q239 1011 343 1048.5 Q447 1086 584 1086 Q720 1086 805 1054 Q890 1022 930 973.5 Q970 925 986 851 Q995 805 995 685 L995 445 Q995 194 1006.5 127.5 Q1018 61 1052 0 L864 0 Q836 56 828 131 Z M813 533 Q715 493 519 465 Q408 449 362 429 Q316 409 291 370.5 Q266 332 266 285 Q266 213 320.5 165 Q375 117 480 117 Q584 117 665 162.5 Q746 208 784 287 Q813 348 813 467 L813 533 Z M463 1194 L596 1474 L832 1474 L612 1194 L463 1194 Z " />
<glyph glyph-name="agrave" unicode="&#xe0;" horiz-adv-x="1139" d="M828 131 Q728 46 635.5 11 Q543 -24 437 -24 Q262 -24 168 61.5 Q74 147 74 280 Q74 358 109.5 422.5 Q145 487 202.5 526 Q260 565 332 585 Q385 599 492 612 Q710 638 813 674 Q814 711 814 721 Q814 831 763 876 Q694 937 558 937 Q431 937 370.5 892.5 Q310 848 281 735 L105 759 Q129 872 184 941.5 Q239 1011 343 1048.5 Q447 1086 584 1086 Q720 1086 805 1054 Q890 1022 930 973.5 Q970 925 986 851 Q995 805 995 685 L995 445 Q995 194 1006.5 127.5 Q1018 61 1052 0 L864 0 Q836 56 828 131 Z M813 533 Q715 493 519 465 Q408 449 362 429 Q316 409 291 370.5 Q266 332 266 285 Q266 213 320.5 165 Q375 117 480 117 Q584 117 665 162.5 Q746 208 784 287 Q813 348 813 467 L813 533 Z M715 1194 L570 1194 L339 1474 L580 1474 L715 1194 Z " />
<glyph glyph-name="acircumflex" unicode="&#xe2;" horiz-adv-x="1139" d="M828 131 Q728 46 635.5 11 Q543 -24 437 -24 Q262 -24 168 61.5 Q74 147 74 280 Q74 358 109.5 422.5 Q145 487 202.5 526 Q260 565 332 585 Q385 599 492 612 Q710 638 813 674 Q814 711 814 721 Q814 831 763 876 Q694 937 558 937 Q431 937 370.5 892.5 Q310 848 281 735 L105 759 Q129 872 184 941.5 Q239 1011 343 1048.5 Q447 1086 584 1086 Q720 1086 805 1054 Q890 1022 930 973.5 Q970 925 986 851 Q995 805 995 685 L995 445 Q995 194 1006.5 127.5 Q1018 61 1052 0 L864 0 Q836 56 828 131 Z M813 533 Q715 493 519 465 Q408 449 362 429 Q316 409 291 370.5 Q266 332 266 285 Q266 213 320.5 165 Q375 117 480 117 Q584 117 665 162.5 Q746 208 784 287 Q813 348 813 467 L813 533 Z M566 1364 L453 1194 L247 1194 L463 1474 L655 1474 L880 1194 L676 1194 L566 1364 Z " />
<glyph glyph-name="adieresis" unicode="&#xe4;" horiz-adv-x="1139" d="M828 131 Q728 46 635.5 11 Q543 -24 437 -24 Q262 -24 168 61.5 Q74 147 74 280 Q74 358 109.5 422.5 Q145 487 202.5 526 Q260 565 332 585 Q385 599 492 612 Q710 638 813 674 Q814 711 814 721 Q814 831 763 876 Q694 937 558 937 Q431 937 370.5 892.5 Q310 848 281 735 L105 759 Q129 872 184 941.5 Q239 1011 343 1048.5 Q447 1086 584 1086 Q720 1086 805 1054 Q890 1022 930 973.5 Q970 925 986 851 Q995 805 995 685 L995 445 Q995 194 1006.5 127.5 Q1018 61 1052 0 L864 0 Q836 56 828 131 Z M813 533 Q715 493 519 465 Q408 449 362 429 Q316 409 291 370.5 Q266 332 266 285 Q266 213 320.5 165 Q375 117 480 117 Q584 117 665 162.5 Q746 208 784 287 Q813 348 813 467 L813 533 Z M283 1270 L283 1475 L471 1475 L471 1270 L283 1270 Z M656 1270 L656 1475 L844 1475 L844 1270 L656 1270 Z " />
<glyph glyph-name="atilde" unicode="&#xe3;" horiz-adv-x="1139" d="M828 131 Q728 46 635.5 11 Q543 -24 437 -24 Q262 -24 168 61.5 Q74 147 74 280 Q74 358 109.5 422.5 Q145 487 202.5 526 Q260 565 332 585 Q385 599 492 612 Q710 638 813 674 Q814 711 814 721 Q814 831 763 876 Q694 937 558 937 Q431 937 370.5 892.5 Q310 848 281 735 L105 759 Q129 872 184 941.5 Q239 1011 343 1048.5 Q447 1086 584 1086 Q720 1086 805 1054 Q890 1022 930 973.5 Q970 925 986 851 Q995 805 995 685 L995 445 Q995 194 1006.5 127.5 Q1018 61 1052 0 L864 0 Q836 56 828 131 Z M813 533 Q715 493 519 465 Q408 449 362 429 Q316 409 291 370.5 Q266 332 266 285 Q266 213 320.5 165 Q375 117 480 117 Q584 117 665 162.5 Q746 208 784 287 Q813 348 813 467 L813 533 Z M229 1219 Q228 1323 286 1385 Q343 1447 432 1447 Q494 1447 601 1393 Q660 1363 695 1363 Q727 1363 744 1380.5 Q761 1398 768 1450 L898 1450 Q895 1336 840.5 1279 Q786 1222 702 1222 Q639 1222 536 1278 Q469 1314 438 1314 Q404 1314 383 1290 Q361 1266 362 1219 L229 1219 Z " />
<glyph glyph-name="aring" unicode="&#xe5;" horiz-adv-x="1139" d="M828 131 Q728 46 635.5 11 Q543 -24 437 -24 Q262 -24 168 61.5 Q74 147 74 280 Q74 358 109.5 422.5 Q145 487 202.5 526 Q260 565 332 585 Q385 599 492 612 Q710 638 813 674 Q814 711 814 721 Q814 831 763 876 Q694 937 558 937 Q431 937 370.5 892.5 Q310 848 281 735 L105 759 Q129 872 184 941.5 Q239 1011 343 1048.5 Q447 1086 584 1086 Q720 1086 805 1054 Q890 1022 930 973.5 Q970 925 986 851 Q995 805 995 685 L995 445 Q995 194 1006.5 127.5 Q1018 61 1052 0 L864 0 Q836 56 828 131 Z M813 533 Q715 493 519 465 Q408 449 362 429 Q316 409 291 370.5 Q266 332 266 285 Q266 213 320.5 165 Q375 117 480 117 Q584 117 665 162.5 Q746 208 784 287 Q813 348 813 467 L813 533 Z M383 1338 Q383 1411 436.5 1464 Q490 1517 563 1517 Q637 1517 690 1463.5 Q743 1410 743 1334 Q743 1257 690 1204 Q637 1151 564 1151 Q489 1151 436 1204.5 Q383 1258 383 1338 Z M459 1337 Q459 1290 490.5 1258 Q522 1226 565 1226 Q608 1226 639.5 1258 Q671 1290 671 1335 Q671 1380 640 1412 Q609 1444 565 1444 Q522 1444 490.5 1412.5 Q459 1381 459 1337 Z " />
<glyph glyph-name="ccedilla" unicode="&#xe7;" horiz-adv-x="1024" d="M828 389 L1005 366 Q976 183 856.5 79.5 Q737 -24 563 -24 Q345 -24 212.5 118.5 Q80 261 80 527 Q80 699 137 828 Q194 957 310.5 1021.5 Q427 1086 564 1086 Q737 1086 847 998.5 Q957 911 988 750 L813 723 Q788 830 724.5 884 Q661 938 571 938 Q435 938 350 840.5 Q265 743 265 532 Q265 318 347 221 Q429 124 561 124 Q667 124 738 189 Q809 254 828 389 Z M411 -134 L463 43 L597 43 L564 -64 Q649 -74 692 -116.5 Q735 -159 735 -211 Q735 -286 663 -343.5 Q591 -401 446 -401 Q364 -401 302 -389 L313 -272 Q377 -276 407 -276 Q501 -276 539 -250 Q568 -230 568 -201 Q568 -183 556.5 -169 Q545 -155 514 -145 Q483 -135 411 -134 Z " />
<glyph glyph-name="eacute" unicode="&#xe9;" horiz-adv-x="1139" d="M862 342 L1048 319 Q1004 156 885 66 Q766 -24 581 -24 Q348 -24 211.5 119.5 Q75 263 75 522 Q75 790 213 938 Q351 1086 571 1086 Q784 1086 919 941 Q1054 796 1054 533 Q1054 517 1053 485 L261 485 Q271 310 360 217 Q449 124 582 124 Q681 124 751 176 Q821 228 862 342 Z M271 633 L864 633 Q852 767 796 834 Q710 938 573 938 Q449 938 364.5 855 Q280 772 271 633 Z M465 1194 L598 1474 L834 1474 L614 1194 L465 1194 Z " />
<glyph glyph-name="egrave" unicode="&#xe8;" horiz-adv-x="1139" d="M862 342 L1048 319 Q1004 156 885 66 Q766 -24 581 -24 Q348 -24 211.5 119.5 Q75 263 75 522 Q75 790 213 938 Q351 1086 571 1086 Q784 1086 919 941 Q1054 796 1054 533 Q1054 517 1053 485 L261 485 Q271 310 360 217 Q449 124 582 124 Q681 124 751 176 Q821 228 862 342 Z M271 633 L864 633 Q852 767 796 834 Q710 938 573 938 Q449 938 364.5 855 Q280 772 271 633 Z M686 1194 L541 1194 L310 1474 L551 1474 L686 1194 Z " />
<glyph glyph-name="ecircumflex" unicode="&#xea;" horiz-adv-x="1139" d="M862 342 L1048 319 Q1004 156 885 66 Q766 -24 581 -24 Q348 -24 211.5 119.5 Q75 263 75 522 Q75 790 213 938 Q351 1086 571 1086 Q784 1086 919 941 Q1054 796 1054 533 Q1054 517 1053 485 L261 485 Q271 310 360 217 Q449 124 582 124 Q681 124 751 176 Q821 228 862 342 Z M271 633 L864 633 Q852 767 796 834 Q710 938 573 938 Q449 938 364.5 855 Q280 772 271 633 Z M567 1364 L454 1194 L248 1194 L464 1474 L656 1474 L881 1194 L677 1194 L567 1364 Z " />
<glyph glyph-name="edieresis" unicode="&#xeb;" horiz-adv-x="1139" d="M862 342 L1048 319 Q1004 156 885 66 Q766 -24 581 -24 Q348 -24 211.5 119.5 Q75 263 75 522 Q75 790 213 938 Q351 1086 571 1086 Q784 1086 919 941 Q1054 796 1054 533 Q1054 517 1053 485 L261 485 Q271 310 360 217 Q449 124 582 124 Q681 124 751 176 Q821 228 862 342 Z M271 633 L864 633 Q852 767 796 834 Q710 938 573 938 Q449 938 364.5 855 Q280 772 271 633 Z M284 1270 L284 1475 L472 1475 L472 1270 L284 1270 Z M657 1270 L657 1475 L845 1475 L845 1270 L657 1270 Z " />
<glyph glyph-name="iacute" unicode="&#xed;" horiz-adv-x="569" d="M198 0 L198 1062 L378 1062 L378 0 L198 0 Z M189 1194 L322 1474 L558 1474 L338 1194 L189 1194 Z " />
<glyph glyph-name="igrave" unicode="&#xec;" horiz-adv-x="569" d="M198 0 L198 1062 L378 1062 L378 0 L198 0 Z M411 1194 L266 1194 L35 1474 L276 1474 L411 1194 Z " />
<glyph glyph-name="icircumflex" unicode="&#xee;" horiz-adv-x="569" d="M198 0 L198 1062 L378 1062 L378 0 L198 0 Z M302 1364 L189 1194 L-17 1194 L199 1474 L391 1474 L616 1194 L412 1194 L302 1364 Z " />
<glyph glyph-name="idieresis" unicode="&#xef;" horiz-adv-x="569" d="M198 0 L198 1062 L378 1062 L378 0 L198 0 Z M9 1270 L9 1475 L197 1475 L197 1270 L9 1270 Z M382 1270 L382 1475 L570 1475 L570 1270 L382 1270 Z " />
<glyph glyph-name="ntilde" unicode="&#xf1;" horiz-adv-x="1139" d="M135 0 L135 1062 L297 1062 L297 911 Q414 1086 635 1086 Q731 1086 811.5 1051.5 Q892 1017 932 961 Q972 905 988 828 Q998 778 998 653 L998 0 L818 0 L818 646 Q818 756 797 810.5 Q776 865 722.5 897.5 Q669 930 597 930 Q482 930 398.5 857 Q315 784 315 580 L315 0 L135 0 Z M262 1219 Q261 1323 319 1385 Q376 1447 465 1447 Q527 1447 634 1393 Q693 1363 728 1363 Q760 1363 777 1380.5 Q794 1398 801 1450 L931 1450 Q928 1336 873.5 1279 Q819 1222 735 1222 Q672 1222 569 1278 Q502 1314 471 1314 Q437 1314 416 1290 Q394 1266 395 1219 L262 1219 Z " />
<glyph glyph-name="oacute" unicode="&#xf3;" horiz-adv-x="1139" d="M68 531 Q68 826 232 968 Q369 1086 566 1086 Q785 1086 924 942.5 Q1063 799 1063 546 Q1063 341 1001.5 223.5 Q940 106 822.5 41 Q705 -24 566 -24 Q343 -24 205.5 119 Q68 262 68 531 Z M253 531 Q253 327 342 225.5 Q431 124 566 124 Q700 124 789 226 Q878 328 878 537 Q878 734 788.5 835.5 Q699 937 566 937 Q431 937 342 836 Q253 735 253 531 Z M466 1194 L599 1474 L835 1474 L615 1194 L466 1194 Z " />
<glyph glyph-name="ograve" unicode="&#xf2;" horiz-adv-x="1139" d="M68 531 Q68 826 232 968 Q369 1086 566 1086 Q785 1086 924 942.5 Q1063 799 1063 546 Q1063 341 1001.5 223.5 Q940 106 822.5 41 Q705 -24 566 -24 Q343 -24 205.5 119 Q68 262 68 531 Z M253 531 Q253 327 342 225.5 Q431 124 566 124 Q700 124 789 226 Q878 328 878 537 Q878 734 788.5 835.5 Q699 937 566 937 Q431 937 342 836 Q253 735 253 531 Z M687 1194 L542 1194 L311 1474 L552 1474 L687 1194 Z " />
<glyph glyph-name="ocircumflex" unicode="&#xf4;" horiz-adv-x="1139" d="M68 531 Q68 826 232 968 Q369 1086 566 1086 Q785 1086 924 942.5 Q1063 799 1063 546 Q1063 341 1001.5 223.5 Q940 106 822.5 41 Q705 -24 566 -24 Q343 -24 205.5 119 Q68 262 68 531 Z M253 531 Q253 327 342 225.5 Q431 124 566 124 Q700 124 789 226 Q878 328 878 537 Q878 734 788.5 835.5 Q699 937 566 937 Q431 937 342 836 Q253 735 253 531 Z M568 1364 L455 1194 L249 1194 L465 1474 L657 1474 L882 1194 L678 1194 L568 1364 Z " />
<glyph glyph-name="odieresis" unicode="&#xf6;" horiz-adv-x="1139" d="M68 531 Q68 826 232 968 Q369 1086 566 1086 Q785 1086 924 942.5 Q1063 799 1063 546 Q1063 341 1001.5 223.5 Q940 106 822.5 41 Q705 -24 566 -24 Q343 -24 205.5 119 Q68 262 68 531 Z M253 531 Q253 327 342 225.5 Q431 124 566 124 Q700 124 789 226 Q878 328 878 537 Q878 734 788.5 835.5 Q699 937 566 937 Q431 937 342 836 Q253 735 253 531 Z M285 1270 L285 1475 L473 1475 L473 1270 L285 1270 Z M658 1270 L658 1475 L846 1475 L846 1270 L658 1270 Z " />
<glyph glyph-name="otilde" unicode="&#xf5;" horiz-adv-x="1139" d="M68 531 Q68 826 232 968 Q369 1086 566 1086 Q785 1086 924 942.5 Q1063 799 1063 546 Q1063 341 1001.5 223.5 Q940 106 822.5 41 Q705 -24 566 -24 Q343 -24 205.5 119 Q68 262 68 531 Z M253 531 Q253 327 342 225.5 Q431 124 566 124 Q700 124 789 226 Q878 328 878 537 Q878 734 788.5 835.5 Q699 937 566 937 Q431 937 342 836 Q253 735 253 531 Z M231 1219 Q230 1323 288 1385 Q345 1447 434 1447 Q496 1447 603 1393 Q662 1363 697 1363 Q729 1363 746 1380.5 Q763 1398 770 1450 L900 1450 Q897 1336 842.5 1279 Q788 1222 704 1222 Q641 1222 538 1278 Q471 1314 440 1314 Q406 1314 385 1290 Q363 1266 364 1219 L231 1219 Z " />
<glyph glyph-name="uacute" unicode="&#xfa;" horiz-adv-x="1139" d="M831 0 L831 156 Q707 -24 494 -24 Q400 -24 318.5 12 Q237 48 197.5 102.5 Q158 157 142 236 Q131 289 131 404 L131 1062 L311 1062 L311 473 Q311 332 322 283 Q339 212 394 171.5 Q449 131 530 131 Q611 131 682 172.5 Q753 214 782.5 285.5 Q812 357 812 493 L812 1062 L992 1062 L992 0 L831 0 Z M453 1194 L586 1474 L822 1474 L602 1194 L453 1194 Z " />
<glyph glyph-name="ugrave" unicode="&#xf9;" horiz-adv-x="1139" d="M831 0 L831 156 Q707 -24 494 -24 Q400 -24 318.5 12 Q237 48 197.5 102.5 Q158 157 142 236 Q131 289 131 404 L131 1062 L311 1062 L311 473 Q311 332 322 283 Q339 212 394 171.5 Q449 131 530 131 Q611 131 682 172.5 Q753 214 782.5 285.5 Q812 357 812 493 L812 1062 L992 1062 L992 0 L831 0 Z M728 1194 L583 1194 L352 1474 L593 1474 L728 1194 Z " />
<glyph glyph-name="ucircumflex" unicode="&#xfb;" horiz-adv-x="1139" d="M831 0 L831 156 Q707 -24 494 -24 Q400 -24 318.5 12 Q237 48 197.5 102.5 Q158 157 142 236 Q131 289 131 404 L131 1062 L311 1062 L311 473 Q311 332 322 283 Q339 212 394 171.5 Q449 131 530 131 Q611 131 682 172.5 Q753 214 782.5 285.5 Q812 357 812 493 L812 1062 L992 1062 L992 0 L831 0 Z M564 1364 L451 1194 L245 1194 L461 1474 L653 1474 L878 1194 L674 1194 L564 1364 Z " />
<glyph glyph-name="udieresis" unicode="&#xfc;" horiz-adv-x="1139" d="M831 0 L831 156 Q707 -24 494 -24 Q400 -24 318.5 12 Q237 48 197.5 102.5 Q158 157 142 236 Q131 289 131 404 L131 1062 L311 1062 L311 473 Q311 332 322 283 Q339 212 394 171.5 Q449 131 530 131 Q611 131 682 172.5 Q753 214 782.5 285.5 Q812 357 812 493 L812 1062 L992 1062 L992 0 L831 0 Z M281 1270 L281 1475 L469 1475 L469 1270 L281 1270 Z M654 1270 L654 1475 L842 1475 L842 1270 L654 1270 Z " />
<glyph glyph-name="dagger" unicode="&#x2020;" horiz-adv-x="1139" d="M472 -346 L472 866 L73 866 L73 1026 L472 1026 L472 1432 L652 1432 L652 1026 L1054 1026 L1054 866 L652 866 L652 -346 L472 -346 Z " />
<glyph glyph-name="degree" unicode="&#xb0;" horiz-adv-x="819" d="M128 1214 Q128 1329 209.5 1410 Q291 1491 405 1491 Q521 1491 602 1410 Q683 1329 683 1214 Q683 1099 601.5 1017.5 Q520 936 405 936 Q291 936 209.5 1017 Q128 1098 128 1214 Z M237 1214 Q237 1144 286.5 1094.5 Q336 1045 406 1045 Q475 1045 524.5 1094.5 Q574 1144 574 1214 Q574 1284 524.5 1333.5 Q475 1383 406 1383 Q336 1383 286.5 1333.5 Q237 1284 237 1214 Z " />
<glyph glyph-name="cent" unicode="&#xa2;" horiz-adv-x="1139" d="M744 894 L522 128 Q555 119 583 119 Q687 119 762.5 190 Q838 261 855 389 L1034 369 Q1001 184 877.5 78 Q754 -28 586 -28 Q537 -28 483 -14 L365 -409 L253 -377 L368 21 Q253 76 180 204.5 Q107 333 107 526 Q107 704 165.5 831.5 Q224 959 340.5 1023 Q457 1087 578 1087 Q614 1087 678 1079 L791 1466 L901 1434 L789 1047 Q888 1004 941 931.5 Q994 859 1015 750 L840 723 Q814 835 744 894 Z M638 940 Q606 943 588 943 Q506 943 434.5 897.5 Q363 852 327.5 756.5 Q292 661 292 535 Q292 403 324 312 Q356 221 415 177 L638 940 Z " />
<glyph glyph-name="sterling" unicode="&#xa3;" horiz-adv-x="1139" d="M396 809 L711 809 L711 661 L427 661 Q446 617 446 573 Q446 486 404.5 389 Q363 292 268 191 Q347 213 412 213 Q495 213 599 188 Q771 147 832 147 Q906 147 1024 203 L1082 38 Q990 -1 939.5 -13 Q889 -25 839 -25 Q797 -25 754 -17 Q727 -12 624.5 19.5 Q522 51 492 57 Q445 65 398 65 Q326 65 244.5 40 Q163 15 96 -28 L27 145 Q123 198 190 296.5 Q257 395 257 537 Q257 598 240 661 L44 661 L44 809 L198 809 Q165 921 156 972.5 Q147 1024 147 1073 Q147 1281 301 1398 Q425 1491 601 1491 Q782 1491 899.5 1391.5 Q1017 1292 1044 1112 L865 1085 Q850 1205 775.5 1274 Q701 1343 597 1343 Q486 1343 412.5 1271.5 Q339 1200 339 1099 Q339 988 396 809 Z " />
<glyph glyph-name="section" unicode="&#xa7;" horiz-adv-x="1139" d="M143 -70 L324 -44 Q352 -174 413 -226.5 Q474 -279 579 -279 Q681 -279 738.5 -227 Q796 -175 796 -105 Q796 -54 760 -11 Q698 64 420 234 Q272 325 213.5 376.5 Q155 428 118 498 Q81 568 81 644 Q81 740 141 818 Q201 896 306 927 Q235 995 206 1052.5 Q177 1110 177 1175 Q177 1303 277 1397 Q377 1491 542 1491 Q729 1491 834 1402 Q939 1313 960 1144 L773 1125 Q752 1247 699.5 1295 Q647 1343 558 1343 Q466 1343 409.5 1293.5 Q353 1244 353 1184 Q353 1132 389 1088 Q445 1020 695 868 Q852 772 907 727 Q978 667 1011.5 603 Q1045 539 1045 464 Q1045 351 972 271 Q930 225 818 178 Q898 117 937.5 47 Q977 -23 977 -103 Q977 -191 927 -269.5 Q877 -348 783 -389.5 Q689 -431 580 -431 Q389 -431 277 -335.5 Q165 -240 143 -70 Z M728 244 Q802 282 838.5 332.5 Q875 383 875 431 Q875 488 823 551 Q770 614 598 720 Q461 804 394 858 Q313 812 278.5 766 Q244 720 244 664 Q244 601 290 544 Q336 487 497 392 Q631 313 728 244 Z " />
<glyph glyph-name="bullet" unicode="&#x2022;" horiz-adv-x="717" d="M109 718 Q109 823 183.5 897 Q258 971 362 971 Q467 971 541.5 897 Q616 823 616 718 Q616 613 541.5 538.5 Q467 464 362 464 Q258 464 183.5 538.5 Q109 613 109 718 Z " />
<glyph glyph-name="paragraph" unicode="&#xb6;" horiz-adv-x="1100" d="M405 -407 L405 638 Q218 648 109.5 759.5 Q1 871 1 1044 Q1 1237 121.5 1351.5 Q242 1466 474 1466 L1107 1466 L1107 1293 L963 1293 L963 -407 L793 -407 L793 1293 L570 1293 L570 -407 L405 -407 Z " />
<glyph glyph-name="germandbls" unicode="&#xdf;" horiz-adv-x="1251" d="M153 0 L153 999 Q153 1182 197.5 1280.5 Q242 1379 346 1435 Q450 1491 580 1491 Q753 1491 852 1404.5 Q951 1318 951 1204 Q951 1153 933 1099 Q915 1045 869 964.5 Q823 884 811 852.5 Q799 821 799 797 Q799 765 821 734 Q842 702 942 637 Q1078 548 1123 494 Q1187 417 1187 312 Q1187 173 1084.5 74 Q982 -25 822 -25 Q696 -25 601 42.5 Q506 110 459 216 L614 288 Q664 195 714 159 Q764 123 819 123 Q895 123 949 175 Q1003 227 1003 297 Q1003 353 971 393 Q950 419 859 481 Q693 595 654 652 Q614 709 614 769 Q614 808 627.5 848 Q641 888 692.5 976 Q744 1064 760 1108 Q776 1152 776 1186 Q776 1248 721.5 1295.5 Q667 1343 576 1343 Q469 1343 401 1277 Q333 1211 333 991 L333 0 L153 0 Z " />
<glyph glyph-name="registered" unicode="&#xae;" horiz-adv-x="1509" d="M758 1491 Q948 1491 1129 1393.5 Q1310 1296 1411 1114.5 Q1512 933 1512 736 Q1512 541 1412.5 361 Q1313 181 1133.5 81.5 Q954 -18 758 -18 Q562 -18 382.5 81.5 Q203 181 103 361 Q3 541 3 736 Q3 933 104.5 1114.5 Q206 1296 387 1393.5 Q568 1491 758 1491 Z M758 1366 Q599 1366 448.5 1284.5 Q298 1203 213 1051.5 Q128 900 128 736 Q128 573 211.5 423.5 Q295 274 445 190.5 Q595 107 758 107 Q921 107 1071 190.5 Q1221 274 1304 423.5 Q1387 573 1387 736 Q1387 900 1302.5 1051.5 Q1218 1203 1067 1284.5 Q916 1366 758 1366 Z M427 319 L427 1131 L706 1131 Q849 1131 913 1108.5 Q977 1086 1015 1030 Q1053 974 1053 911 Q1053 822 989.5 756 Q926 690 821 682 Q864 664 890 639 Q939 591 1010 478 L1109 319 L949 319 L877 447 Q792 598 740 636 Q704 664 635 664 L558 664 L558 319 L427 319 Z M558 776 L717 776 Q831 776 872.5 810 Q914 844 914 900 Q914 936 894 964.5 Q874 993 838.5 1007 Q803 1021 707 1021 L558 1021 L558 776 Z " />
<glyph glyph-name="copyright" unicode="&#xa9;" horiz-adv-x="1509" d="M758 1491 Q948 1491 1129 1393.5 Q1310 1296 1411 1114.5 Q1512 933 1512 736 Q1512 541 1412.5 361 Q1313 181 1133.5 81.5 Q954 -18 758 -18 Q562 -18 382.5 81.5 Q203 181 103 361 Q3 541 3 736 Q3 933 104.5 1114.5 Q206 1296 387 1393.5 Q568 1491 758 1491 Z M758 1366 Q599 1366 448.5 1284.5 Q298 1203 213 1051.5 Q128 900 128 736 Q128 573 211.5 423.5 Q295 274 445 190.5 Q595 107 758 107 Q921 107 1071 190.5 Q1221 274 1304 423.5 Q1387 573 1387 736 Q1387 900 1302.5 1051.5 Q1218 1203 1067 1284.5 Q916 1366 758 1366 Z M1000 614 L1123 578 Q1093 453 995.5 378.5 Q898 304 759 304 Q583 304 473 418 Q363 532 363 734 Q363 866 413 963.5 Q463 1061 555.5 1110.5 Q648 1160 767 1160 Q900 1160 988 1096.5 Q1076 1033 1108 924 L989 895 Q959 969 900.5 1008.5 Q842 1048 763 1048 Q648 1048 573.5 966 Q499 884 499 731 Q499 578 569.5 499.5 Q640 421 752 421 Q842 421 910 473 Q978 525 1000 614 Z " />
<glyph glyph-name="trademark" unicode="&#x2122;" horiz-adv-x="2048" d="M489 651 L489 1345 L225 1345 L225 1466 L891 1466 L891 1345 L625 1345 L625 651 L489 651 Z M982 651 L982 1466 L1182 1466 L1388 815 L1587 1466 L1783 1466 L1783 651 L1659 651 L1659 1335 L1449 651 L1326 651 L1107 1345 L1107 651 L982 651 Z " />
<glyph glyph-name="acute" unicode="&#xb4;" horiz-adv-x="682" d="M222 1194 L355 1474 L591 1474 L371 1194 L222 1194 Z " />
<glyph glyph-name="dieresis" unicode="&#xa8;" horiz-adv-x="682" d="M61 1270 L61 1475 L249 1475 L249 1270 L61 1270 Z M434 1270 L434 1475 L622 1475 L622 1270 L434 1270 Z " />
<glyph glyph-name="notequal" unicode="&#x2260;" horiz-adv-x="1124" d="M495 417 L301 -28 L165 -28 L360 417 L78 417 L78 585 L434 585 L556 862 L78 862 L78 1030 L629 1030 L825 1474 L959 1474 L764 1030 L1046 1030 L1046 862 L690 862 L569 585 L1046 585 L1046 417 L495 417 Z " />
<glyph glyph-name="AE" unicode="&#xc6;" horiz-adv-x="2048" d="M1 0 L706 1466 L1909 1466 L1909 1293 L1172 1293 L1172 842 L1857 842 L1857 670 L1172 670 L1172 173 L1936 173 L1936 0 L977 0 L977 423 L411 423 L211 0 L1 0 Z M493 595 L977 595 L977 1293 L832 1293 L493 595 Z " />
<glyph glyph-name="Oslash" unicode="&#xd8;" horiz-adv-x="1593" d="M1250 1332 L1418 1520 L1517 1436 L1341 1238 Q1427 1110 1457 1014 Q1497 888 1497 732 Q1497 507 1406 331 Q1315 155 1150.5 65 Q986 -25 801 -25 Q663 -25 551 14 Q465 44 350 129 L182 -59 L83 25 L259 222 Q161 371 128 476.5 Q95 582 95 730 Q95 956 185 1132.5 Q275 1309 437.5 1400 Q600 1491 799 1491 Q933 1491 1033.5 1455.5 Q1134 1420 1250 1332 Z M1130 1197 Q1036 1271 965.5 1298 Q895 1325 800 1325 Q581 1325 438 1176.5 Q295 1028 295 733 Q295 617 317 527 Q333 460 384 362 L1130 1197 Z M1212 1094 L469 262 Q546 199 611 174 Q696 141 795 141 Q1013 141 1155 295 Q1297 449 1297 727 Q1297 935 1212 1094 Z " />
<glyph glyph-name="infinity" unicode="&#x221e;" horiz-adv-x="1460" d="M689 812 Q794 944 853 986 Q933 1044 1022 1044 Q1127 1044 1218.5 968 Q1310 892 1310 723 Q1310 605 1276 537.5 Q1242 470 1170 429 Q1098 388 1022 388 Q933 388 853 445 Q794 488 689 620 Q553 449 400 449 Q299 449 226.5 525.5 Q154 602 154 716 Q154 829 226.5 906 Q299 983 400 983 Q553 983 689 812 Z M758 717 Q845 582 917 532 Q963 499 1020 499 Q1096 499 1147.5 555 Q1199 611 1199 713 Q1199 819 1146.5 875 Q1094 931 1016 931 Q967 931 924 903 Q866 864 758 717 Z M620 716 Q540 816 492 844.5 Q444 873 400 873 Q342 873 303.5 832 Q265 791 265 719 Q265 648 305 605.5 Q345 563 402 563 Q503 563 620 716 Z " />
<glyph glyph-name="plusminus" unicode="&#xb1;" horiz-adv-x="1124" d="M477 260 L477 663 L78 663 L78 830 L477 830 L477 1229 L647 1229 L647 830 L1046 830 L1046 663 L647 663 L647 260 L477 260 Z M1046 0 L78 0 L78 168 L1046 168 L1046 0 Z " />
<glyph glyph-name="lessequal" unicode="&#x2264;" horiz-adv-x="1124" d="M77 762 L77 930 L1048 1340 L1048 1160 L278 845 L1048 526 L1048 347 L77 762 Z M1046 106 L78 106 L78 273 L1046 273 L1046 106 Z " />
<glyph glyph-name="greaterequal" unicode="&#x2265;" horiz-adv-x="1124" d="M1048 762 L77 347 L77 526 L846 845 L77 1160 L77 1340 L1048 930 L1048 762 Z M1046 106 L78 106 L78 273 L1046 273 L1046 106 Z " />
<glyph glyph-name="yen" unicode="&#xa5;" horiz-adv-x="1139" d="M477 0 L477 325 L62 325 L62 464 L477 464 L477 607 L62 607 L62 755 L403 755 L-3 1466 L197 1466 L487 950 Q536 862 563 796 Q586 849 645 959 L919 1466 L1133 1466 L728 755 L1069 755 L1069 607 L657 607 L657 464 L1069 464 L1069 325 L657 325 L657 0 L477 0 Z " />
<glyph glyph-name="mu" unicode="&#xb5;" horiz-adv-x="1180" d="M1018 1062 L1018 0 L857 0 L857 126 Q805 46 754 16 Q684 -25 591 -25 Q508 -25 444 8 Q396 33 338 107 L338 -407 L160 -407 L160 1062 L338 1062 L338 612 Q338 367 364 294.5 Q390 222 448.5 180 Q507 138 583 138 Q663 138 726 182 Q789 226 815 295.5 Q841 365 841 609 L841 1062 L1018 1062 Z " />
<glyph glyph-name="partialdiff" unicode="&#x2202;" horiz-adv-x="1012" d="M426 1138 L291 1198 Q361 1355 459 1423 Q557 1491 651 1491 Q727 1491 788.5 1451.5 Q850 1412 881 1361 Q928 1282 950.5 1174 Q973 1066 973 926 Q973 638 886.5 413.5 Q800 189 653 82 Q506 -25 364 -25 Q227 -25 141.5 66 Q56 157 56 322 Q56 548 209 709 Q406 916 858 924 Q854 1092 834 1180 Q814 1268 766 1315.5 Q718 1363 653 1363 Q591 1363 532 1313.5 Q473 1264 426 1138 Z M854 796 Q610 782 496.5 728 Q383 674 309.5 551.5 Q236 429 236 303 Q236 220 287 166 Q338 112 406 112 Q481 112 566 167 Q683 243 756.5 401.5 Q830 560 854 796 Z " />
<glyph glyph-name="summation" unicode="&#x2211;" horiz-adv-x="1460" d="M139 1491 L1376 1491 L1376 1327 L388 1327 L995 552 L346 -270 L1386 -270 L1386 -431 L122 -431 L122 -244 L742 544 L139 1316 L139 1491 Z " />
<glyph glyph-name="product" unicode="&#x220f;" horiz-adv-x="1686" d="M161 1491 L1523 1491 L1523 -431 L1332 -431 L1332 1317 L354 1317 L354 -431 L161 -431 L161 1491 Z " />
<glyph glyph-name="integral" unicode="&#x222b;" horiz-adv-x="561" d="M201 948 L218 1479 Q227 1632 268 1733 Q295 1798 342.5 1830.5 Q390 1863 435 1863 Q485 1863 522.5 1829.5 Q560 1796 560 1756 Q560 1709 533.5 1680.5 Q507 1652 468 1652 Q433 1652 392 1688 Q369 1708 352 1708 Q335 1708 323.5 1693.5 Q312 1679 312 1644 Q312 1602 321 1499 Q358 1089 358 834 Q358 767 342 246 Q334 -49 252 -153 Q198 -220 118 -220 Q66 -220 33 -186 Q0 -152 0 -99 Q0 -54 25.5 -27 Q51 0 90 0 Q130 0 159 -32 Q188 -64 208 -64 Q225 -64 236 -50 Q247 -36 247 -3 Q247 39 238 117 Q201 432 201 948 Z " />
<glyph glyph-name="ordfeminine" unicode="&#xaa;" horiz-adv-x="758" d="M548 853 Q426 746 292 746 Q179 746 113 807.5 Q47 869 47 965 Q47 1013 63 1049 Q79 1085 110.5 1113 Q142 1141 192 1158 Q227 1169 291 1179 L438 1201 Q510 1215 534 1221 Q533 1291 520 1315 Q507 1339 471.5 1356.5 Q436 1374 377 1374 Q298 1374 259 1341.5 Q220 1309 211 1249 L74 1283 Q86 1372 162 1431.5 Q238 1491 379 1491 Q543 1491 611 1430 Q678 1368 678 1249 L678 1009 L677 948 Q677 814 718 764 L570 764 Q550 804 548 853 Z M533 1104 Q480 1090 341 1068 Q251 1054 224 1029 Q196 1003 196 965 Q196 924 230 895 Q264 866 326 866 Q399 866 453 905 Q507 944 525 1001 Q532 1021 533 1104 Z " />
<glyph glyph-name="ordmasculine" unicode="&#xba;" horiz-adv-x="748" d="M373 1491 Q518 1491 609.5 1391 Q701 1291 701 1115 Q701 940 609 840 Q517 740 374 740 Q229 740 137 838 Q45 936 45 1111 Q45 1291 136.5 1391 Q228 1491 373 1491 Z M373 1358 Q292 1358 242.5 1301 Q193 1244 193 1115 Q193 989 243.5 930.5 Q294 872 373 872 Q453 872 503 930.5 Q553 989 553 1120 Q553 1242 502.5 1300 Q452 1358 373 1358 Z " />
<glyph glyph-name="Omega" unicode="&#x2126;" horiz-adv-x="1573" d="M496 160 Q388 227 331 290 Q244 386 197 515.5 Q150 645 150 802 Q150 998 229.5 1162.5 Q309 1327 460.5 1415 Q612 1503 808 1503 Q1144 1503 1324 1249 Q1455 1063 1455 801 Q1455 633 1401 503.5 Q1347 374 1260 281 Q1207 223 1111 160 L1475 166 L1475 0 L900 0 L900 177 Q980 217 1024 255 Q1096 316 1146 400 Q1196 484 1221.5 579 Q1247 674 1247 777 Q1247 915 1197.5 1054.5 Q1148 1194 1047.5 1267 Q947 1340 804 1340 Q613 1340 508 1220 Q362 1051 362 780 Q362 563 453 407.5 Q544 252 704 180 L704 0 L127 0 L127 168 L496 160 Z " />
<glyph glyph-name="ae" unicode="&#xe6;" horiz-adv-x="1821" d="M1734 325 Q1684 158 1564 67 Q1444 -24 1266 -24 Q1139 -24 1043.5 24 Q948 72 871 174 Q767 72 660.5 24 Q554 -24 431 -24 Q259 -24 163.5 64.5 Q68 153 68 280 Q68 366 117.5 441.5 Q167 517 255.5 556 Q344 595 538 620 Q688 640 790 669 Q791 694 791 710 Q791 836 738.5 886.5 Q686 937 555 937 Q468 937 408 916 Q348 895 319.5 856.5 Q291 818 272 733 L97 754 Q125 871 177.5 939.5 Q230 1008 328 1047 Q426 1086 557 1086 Q724 1086 826 1036 Q885 1007 925 943 Q989 1013 1070 1049.5 Q1151 1086 1266 1086 Q1428 1086 1534 1007.5 Q1640 929 1689 800 Q1738 671 1738 546 Q1738 527 1736 485 L969 485 Q971 341 1004.5 276 Q1038 211 1111.5 167.5 Q1185 124 1273 124 Q1376 124 1447.5 183 Q1519 242 1546 349 L1734 325 Z M969 633 L1553 633 Q1539 791 1463 864 Q1387 937 1265 937 Q1139 937 1058.5 857 Q978 777 969 633 Z M793 533 Q714 499 471 460 Q362 443 318 409 Q259 362 259 286 Q259 215 312 166.5 Q365 118 466 118 Q581 118 666.5 175 Q752 232 778 317 Q793 369 793 533 Z " />
<glyph glyph-name="oslash" unicode="&#xf8;" horiz-adv-x="1251" d="M919 999 L1018 1127 L1114 1057 L1007 919 Q1070 833 1093 763 Q1124 663 1124 530 Q1124 230 955 89 Q818 -24 625 -24 Q466 -24 344 56 L239 -79 L145 -8 L253 133 Q194 201 169 269 Q129 378 129 516 Q129 817 276 951.5 Q423 1086 621 1086 Q703 1086 772 1065 Q841 1044 919 999 Z M818 867 Q727 937 627 937 Q494 937 404 835 Q314 733 314 531 Q314 381 366 280 L818 867 Z M893 770 L444 187 Q522 124 620 124 Q759 124 849.5 226 Q940 328 940 532 Q940 608 928 665 Q920 707 893 770 Z " />
<glyph glyph-name="questiondown" unicode="&#xbf;" horiz-adv-x="1251" d="M733 1062 L733 857 L528 857 L528 1062 L733 1062 Z M721 701 Q722 667 722 650 Q722 540 692 463 Q670 405 621 346 Q585 303 491.5 221 Q398 139 370.5 90 Q343 41 343 -17 Q343 -123 425 -202 Q507 -281 626 -281 Q740 -281 817.5 -209 Q895 -137 919 15 L1103 -6 Q1078 -209 954.5 -319 Q831 -429 629 -429 Q413 -429 285.5 -312 Q158 -195 158 -29 Q158 68 202.5 148 Q247 228 378 344 Q467 423 494 460 Q521 497 533.5 545 Q546 593 548 701 L721 701 Z " />
<glyph glyph-name="exclamdown" unicode="&#xa1;" horiz-adv-x="682" d="M447 1062 L447 857 L240 857 L240 1062 L447 1062 Z M400 697 L455 -79 L455 -404 L232 -404 L232 -79 L284 697 L400 697 Z " />
<glyph glyph-name="logicalnot" unicode="&#xac;" horiz-adv-x="1196" d="M1082 424 L912 424 L912 862 L114 862 L114 1030 L1082 1030 L1082 424 Z " />
<glyph glyph-name="radical" unicode="&#x221a;" horiz-adv-x="1124" d="M1050 1869 L1124 1869 L812 -78 L316 943 L118 852 L84 916 L385 1067 L790 244 L1050 1869 Z " />
<glyph glyph-name="florin" unicode="&#x192;" horiz-adv-x="1139" d="M46 -405 L81 -250 Q182 -272 233 -272 Q287 -272 316 -244 Q345 -216 361 -120 L538 922 L337 922 L361 1062 L562 1062 L586 1195 Q608 1315 631 1360 Q662 1422 719.5 1457 Q777 1492 870 1492 Q950 1492 1085 1454 L1050 1301 Q947 1325 896 1325 Q840 1325 812 1297.5 Q784 1270 765 1165 L746 1062 L950 1062 L925 922 L721 922 L530 -170 Q504 -318 443 -374.5 Q382 -431 270 -431 Q176 -431 46 -405 Z " />
<glyph glyph-name="approxequal" unicode="&#x2248;" horiz-adv-x="1124" d="M51 738 L51 943 Q157 1063 329 1063 Q389 1063 454.5 1046 Q520 1029 643 976 Q712 946 746.5 937.5 Q781 929 816 929 Q881 929 950.5 968 Q1020 1007 1074 1066 L1074 854 Q1010 794 944.5 767 Q879 740 797 740 Q737 740 683 753.5 Q629 767 510 820.5 Q391 874 312 874 Q248 874 191.5 846.5 Q135 819 51 738 Z M51 376 L51 581 Q157 701 329 701 Q389 701 454.5 684 Q520 667 643 614 Q712 585 746.5 576 Q781 567 816 567 Q881 567 950.5 606 Q1020 645 1074 704 L1074 492 Q1010 432 944.5 405 Q879 378 797 378 Q737 378 683 392 Q629 406 510 459 Q391 512 312 512 Q248 512 191.5 484.5 Q135 457 51 376 Z " />
<glyph glyph-name="Delta" unicode="&#x2206;" horiz-adv-x="1253" d="M1226 0 L26 0 L654 1387 L1226 0 Z M990 82 L591 1049 L151 82 L990 82 Z " />
<glyph glyph-name="guillemotleft" unicode="&#xab;" horiz-adv-x="1139" d="M340 528 L599 72 L453 72 L134 528 L453 984 L601 984 L340 528 Z M727 528 L991 72 L839 72 L526 528 L839 984 L991 984 L727 528 Z " />
<glyph glyph-name="guillemotright" unicode="&#xbb;" horiz-adv-x="1139" d="M791 528 L530 984 L678 984 L997 528 L678 72 L531 72 L791 528 Z M404 528 L140 984 L291 984 L605 528 L291 72 L140 72 L404 528 Z " />
<glyph glyph-name="ellipsis" unicode="&#x2026;" horiz-adv-x="2048" d="M239 0 L239 205 L444 205 L444 0 L239 0 Z M922 0 L922 205 L1127 205 L1127 0 L922 0 Z M1604 0 L1604 205 L1810 205 L1810 0 L1604 0 Z " />
<glyph glyph-name="Agrave" unicode="&#xc0;" horiz-adv-x="1366" d="M-3 0 L560 1466 L769 1466 L1369 0 L1148 0 L977 444 L364 444 L203 0 L-3 0 Z M420 602 L917 602 L764 1008 Q694 1193 660 1312 Q632 1171 581 1032 L420 602 Z M824 1556 L679 1556 L448 1836 L689 1836 L824 1556 Z " />
<glyph glyph-name="Atilde" unicode="&#xc3;" horiz-adv-x="1366" d="M-3 0 L560 1466 L769 1466 L1369 0 L1148 0 L977 444 L364 444 L203 0 L-3 0 Z M420 602 L917 602 L764 1008 Q694 1193 660 1312 Q632 1171 581 1032 L420 602 Z M349 1556 Q348 1660 406 1722 Q463 1784 552 1784 Q614 1784 721 1730 Q780 1700 815 1700 Q847 1700 864 1717.5 Q881 1735 888 1787 L1018 1787 Q1015 1673 960.5 1616 Q906 1559 822 1559 Q759 1559 656 1615 Q589 1651 558 1651 Q524 1651 503 1627 Q481 1603 482 1556 L349 1556 Z " />
<glyph glyph-name="Otilde" unicode="&#xd5;" horiz-adv-x="1593" d="M99 714 Q99 1079 295 1285.5 Q491 1492 801 1492 Q1004 1492 1167 1395 Q1330 1298 1415.5 1124.5 Q1501 951 1501 731 Q1501 508 1411 332 Q1321 156 1156 65.5 Q991 -25 800 -25 Q593 -25 430 75 Q267 175 183 348 Q99 521 99 714 Z M299 711 Q299 446 441.5 293.5 Q584 141 799 141 Q1018 141 1159.5 295 Q1301 449 1301 732 Q1301 911 1240.5 1044.5 Q1180 1178 1063.5 1251.5 Q947 1325 802 1325 Q596 1325 447.5 1183.5 Q299 1042 299 711 Z M466 1556 Q465 1660 523 1722 Q580 1784 669 1784 Q731 1784 838 1730 Q897 1700 932 1700 Q964 1700 981 1717.5 Q998 1735 1005 1787 L1135 1787 Q1132 1673 1077.5 1616 Q1023 1559 939 1559 Q876 1559 773 1615 Q706 1651 675 1651 Q641 1651 620 1627 Q598 1603 599 1556 L466 1556 Z " />
<glyph glyph-name="OE" unicode="&#x152;" horiz-adv-x="2048" d="M1983 173 L1983 0 L1121 0 L1121 212 Q986 -25 721 -25 Q420 -25 265 207 Q129 412 129 735 Q129 1057 271 1274 Q413 1491 721 1491 Q985 1491 1121 1268 L1121 1466 L1952 1466 L1952 1293 L1302 1293 L1302 845 L1901 845 L1901 673 L1302 673 L1302 173 L1983 173 Z M720 1334 Q619 1334 523 1269 Q427 1204 378 1071.5 Q329 939 329 720 Q329 417 444.5 274 Q560 131 720 131 Q881 131 995.5 273.5 Q1110 416 1110 745 Q1110 1051 994.5 1192.5 Q879 1334 720 1334 Z " />
<glyph glyph-name="oe" unicode="&#x153;" horiz-adv-x="1933" d="M978 175 Q902 76 803 26 Q704 -24 582 -24 Q357 -24 219.5 119 Q82 262 82 518 Q82 687 140.5 820.5 Q199 954 318.5 1020 Q438 1086 584 1086 Q722 1086 824.5 1028.5 Q927 971 978 883 Q1042 976 1142.5 1031 Q1243 1086 1367 1086 Q1587 1086 1723 935 Q1859 784 1857 483 L1073 483 Q1076 317 1165.5 220.5 Q1255 124 1389 124 Q1488 124 1559.5 179.5 Q1631 235 1663 346 L1843 320 Q1800 155 1682.5 65.5 Q1565 -24 1386 -24 Q1252 -24 1146 28.5 Q1040 81 978 175 Z M267 533 Q267 347 338 250 Q430 124 577 124 Q706 124 798 230 Q890 336 890 535 Q890 733 799.5 835.5 Q709 938 577 938 Q490 938 417 889 Q344 840 305.5 744 Q267 648 267 533 Z M1080 631 L1667 631 Q1655 782 1575.5 860 Q1496 938 1378 938 Q1258 938 1174.5 856 Q1091 774 1080 631 Z " />
<glyph glyph-name="endash" unicode="&#x2013;" horiz-adv-x="1139" d="M-4 458 L-4 603 L1135 603 L1135 458 L-4 458 Z " />
<glyph glyph-name="emdash" unicode="&#x2014;" horiz-adv-x="2048" d="M0 458 L0 603 L2048 603 L2048 458 L0 458 Z " />
<glyph glyph-name="quotedblleft" unicode="&#x201c;" horiz-adv-x="682" d="M276 1220 L276 1011 L83 1011 L83 1176 Q83 1310 115 1370 Q157 1450 248 1491 L292 1421 Q237 1398 211 1352.5 Q185 1307 182 1220 L276 1220 Z M586 1220 L586 1011 L393 1011 L393 1176 Q393 1310 425 1370 Q467 1450 558 1491 L602 1421 Q547 1398 521 1352.5 Q495 1307 492 1220 L586 1220 Z " />
<glyph glyph-name="quotedblright" unicode="&#x201d;" horiz-adv-x="682" d="M87 1272 L87 1481 L280 1481 L280 1316 Q280 1182 249 1123 Q206 1042 115 1001 L71 1072 Q125 1094 151.5 1141.5 Q178 1189 181 1272 L87 1272 Z M397 1272 L397 1481 L590 1481 L590 1316 Q590 1182 559 1123 Q516 1042 425 1001 L381 1072 Q435 1094 461.5 1141.5 Q488 1189 491 1272 L397 1272 Z " />
<glyph glyph-name="quoteleft" unicode="&#x2018;" horiz-adv-x="455" d="M321 1220 L321 1011 L128 1011 L128 1176 Q128 1310 160 1370 Q202 1450 293 1491 L337 1421 Q282 1398 256 1352.5 Q230 1307 227 1220 L321 1220 Z " />
<glyph glyph-name="quoteright" unicode="&#x2019;" horiz-adv-x="455" d="M124 1272 L124 1481 L317 1481 L317 1316 Q317 1182 286 1123 Q243 1042 152 1001 L108 1072 Q162 1094 188.5 1141.5 Q215 1189 218 1272 L124 1272 Z " />
<glyph glyph-name="divide" unicode="&#xf7;" horiz-adv-x="1124" d="M459 922 L459 1127 L664 1127 L664 922 L459 922 Z M1046 639 L78 639 L78 807 L1046 807 L1046 639 Z M459 319 L459 524 L664 524 L664 319 L459 319 Z " />
<glyph glyph-name="lozenge" unicode="&#x25ca;" horiz-adv-x="1012" d="M549 1422 L967 709 L549 0 L438 0 L47 709 L438 1422 L549 1422 Z M495 1325 L155 709 L495 94 L854 709 L495 1325 Z " />
<glyph glyph-name="ydieresis" unicode="&#xff;" horiz-adv-x="1024" d="M127 -409 L107 -240 Q166 -256 210 -256 Q270 -256 306 -236 Q342 -216 365 -180 Q382 -153 420 -46 Q425 -31 436 -2 L33 1062 L227 1062 L448 447 Q491 330 525 201 Q556 325 599 443 L826 1062 L1006 1062 L602 -18 Q537 -193 501 -259 Q453 -348 391 -389.5 Q329 -431 243 -431 Q191 -431 127 -409 Z M243 1270 L243 1475 L431 1475 L431 1270 L243 1270 Z M616 1270 L616 1475 L804 1475 L804 1270 L616 1270 Z " />
<glyph glyph-name="Ydieresis" unicode="&#x178;" horiz-adv-x="1366" d="M571 0 L571 621 L6 1466 L242 1466 L531 1024 Q611 900 680 776 Q746 891 840 1035 L1124 1466 L1350 1466 L765 621 L765 0 L571 0 Z M397 1556 L397 1761 L585 1761 L585 1556 L397 1556 Z M770 1556 L770 1761 L958 1761 L958 1556 L770 1556 Z " />
<glyph glyph-name="&amp;#x2044;" unicode="&#x2044;" horiz-adv-x="342" d="M-455 -57 L646 1491 L803 1491 L-298 -57 L-455 -57 Z " />
<glyph glyph-name="&amp;#x2215;" unicode="&#x2215;" horiz-adv-x="342" d="M-455 -57 L646 1491 L803 1491 L-298 -57 L-455 -57 Z " />
<glyph glyph-name="Euro" unicode="&#x20ac;" horiz-adv-x="1139" d="M790 1325 Q622 1325 508 1244 Q440 1196 385 1108 Q329 1017 319 935 L1001 935 L974 801 L303 801 Q302 780 302 761 Q302 684 303 669 L947 669 L919 535 L324 535 Q366 306 526 210 Q641 141 775 141 Q962 141 1067 239 L1067 33 Q942 -25 791 -25 Q339 -25 180 351 Q148 427 125 535 L-28 535 L0 669 L105 669 Q102 711 102 760 Q102 780 103 801 L-28 801 L0 935 L116 935 Q178 1261 439 1403 Q600 1491 794 1491 Q980 1491 1107 1410 L1067 1224 Q945 1325 790 1325 Z " />
<glyph glyph-name="guilsinglleft" unicode="&#x2039;" horiz-adv-x="682" d="M291 527 L556 72 L407 72 L92 527 L407 984 L556 984 L291 527 Z " />
<glyph glyph-name="guilsinglright" unicode="&#x203a;" horiz-adv-x="682" d="M357 530 L92 984 L241 984 L545 536 L241 72 L92 72 L357 530 Z " />
<glyph glyph-name="fi" unicode="&#xfb01;" horiz-adv-x="1024" d="M183 0 L183 923 L23 923 L23 1062 L183 1062 L183 1165 Q183 1323 251 1407 Q319 1491 466 1491 Q565 1491 649 1468 L621 1316 Q568 1325 524 1325 Q431 1325 397 1288 Q363 1251 363 1131 L363 1062 L569 1062 L569 923 L363 923 L363 0 L183 0 Z M705 1259 L705 1466 L885 1466 L885 1259 L705 1259 Z M705 0 L705 1062 L885 1062 L885 0 L705 0 Z " />
<glyph glyph-name="fl" unicode="&#xfb02;" horiz-adv-x="1024" d="M183 0 L183 923 L23 923 L23 1062 L183 1062 L183 1165 Q183 1323 251 1407 Q319 1491 466 1491 Q565 1491 649 1468 L621 1316 Q568 1325 524 1325 Q431 1325 397 1288 Q363 1251 363 1131 L363 1062 L569 1062 L569 923 L363 923 L363 0 L183 0 Z M703 0 L703 1466 L883 1466 L883 0 L703 0 Z " />
<glyph glyph-name="daggerdbl" unicode="&#x2021;" horiz-adv-x="1139" d="M475 -346 L475 24 L73 24 L73 185 L475 185 L475 910 L73 910 L73 1071 L475 1071 L475 1446 L655 1446 L655 1071 L1058 1071 L1058 910 L655 910 L655 185 L1058 185 L1058 24 L655 24 L655 -346 L475 -346 Z " />
<glyph glyph-name="uni2219" unicode="&#x2219;" horiz-adv-x="569" d="M185 619 L185 824 L390 824 L390 619 L185 619 Z " />
<glyph glyph-name="quotesinglbase" unicode="&#x201a;" horiz-adv-x="455" d="M124 0 L124 209 L317 209 L317 44 Q317 -90 286 -149 Q243 -230 152 -271 L108 -200 Q162 -178 188.5 -130.5 Q215 -83 218 0 L124 0 Z " />
<glyph glyph-name="quotedblbase" unicode="&#x201e;" horiz-adv-x="682" d="M87 0 L87 209 L280 209 L280 44 Q280 -90 249 -149 Q206 -230 115 -271 L71 -200 Q125 -178 151.5 -130.5 Q178 -83 181 0 L87 0 Z M397 0 L397 209 L590 209 L590 44 Q590 -90 559 -149 Q516 -230 425 -271 L381 -200 Q435 -178 461.5 -130.5 Q488 -83 491 0 L397 0 Z " />
<glyph glyph-name="perthousand" unicode="&#x2030;" horiz-adv-x="2048" d="M320 -54 L921 1491 L1052 1491 L452 -54 L320 -54 Z M37 1099 Q37 1298 115.5 1388.5 Q194 1479 323 1479 Q451 1479 531 1388 Q611 1297 611 1103 Q611 907 541 807.5 Q471 708 325 708 Q197 708 117 801 Q37 894 37 1099 Z M185 1091 Q185 939 224.5 886 Q264 833 329 833 Q388 833 420 878 Q463 938 463 1093 Q463 1245 419 1308 Q385 1355 325 1355 Q263 1355 230 1309 Q185 1246 185 1091 Z M763 336 Q763 535 841.5 625.5 Q920 716 1048 716 Q1176 716 1256.5 625 Q1337 534 1337 340 Q1337 144 1267 45 Q1197 -54 1051 -54 Q923 -54 843 38.5 Q763 131 763 336 Z M911 328 Q911 177 950.5 123.5 Q990 70 1055 70 Q1114 70 1146 115 Q1189 176 1189 330 Q1189 483 1144 545 Q1110 592 1051 592 Q989 592 956 546 Q911 484 911 328 Z M1437 336 Q1437 535 1515.5 625.5 Q1594 716 1723 716 Q1851 716 1931 625 Q2011 534 2011 340 Q2011 144 1941.5 45 Q1872 -54 1725 -54 Q1597 -54 1517 38.5 Q1437 131 1437 336 Z M1585 328 Q1585 177 1624.5 123.5 Q1664 70 1729 70 Q1788 70 1820 115 Q1863 176 1863 330 Q1863 483 1819 545 Q1785 592 1725 592 Q1663 592 1630 546 Q1585 484 1585 328 Z " />
<glyph glyph-name="Acircumflex" unicode="&#xc2;" horiz-adv-x="1366" d="M-3 0 L560 1466 L769 1466 L1369 0 L1148 0 L977 444 L364 444 L203 0 L-3 0 Z M420 602 L917 602 L764 1008 Q694 1193 660 1312 Q632 1171 581 1032 L420 602 Z M664 1726 L551 1556 L345 1556 L561 1836 L753 1836 L978 1556 L774 1556 L664 1726 Z " />
<glyph glyph-name="Ecircumflex" unicode="&#xca;" horiz-adv-x="1366" d="M162 0 L162 1466 L1222 1466 L1222 1293 L356 1293 L356 844 L1167 844 L1167 672 L356 672 L356 173 L1256 173 L1256 0 L162 0 Z M707 1726 L594 1556 L388 1556 L604 1836 L796 1836 L1021 1556 L817 1556 L707 1726 Z " />
<glyph glyph-name="Aacute" unicode="&#xc1;" horiz-adv-x="1366" d="M-3 0 L560 1466 L769 1466 L1369 0 L1148 0 L977 444 L364 444 L203 0 L-3 0 Z M420 602 L917 602 L764 1008 Q694 1193 660 1312 Q632 1171 581 1032 L420 602 Z M541 1556 L674 1836 L910 1836 L690 1556 L541 1556 Z " />
<glyph glyph-name="Edieresis" unicode="&#xcb;" horiz-adv-x="1366" d="M162 0 L162 1466 L1222 1466 L1222 1293 L356 1293 L356 844 L1167 844 L1167 672 L356 672 L356 173 L1256 173 L1256 0 L162 0 Z M425 1556 L425 1761 L613 1761 L613 1556 L425 1556 Z M798 1556 L798 1761 L986 1761 L986 1556 L798 1556 Z " />
<glyph glyph-name="Egrave" unicode="&#xc8;" horiz-adv-x="1366" d="M162 0 L162 1466 L1222 1466 L1222 1293 L356 1293 L356 844 L1167 844 L1167 672 L356 672 L356 173 L1256 173 L1256 0 L162 0 Z M850 1556 L705 1556 L474 1836 L715 1836 L850 1556 Z " />
<glyph glyph-name="Iacute" unicode="&#xcd;" horiz-adv-x="569" d="M191 0 L191 1466 L385 1466 L385 0 L191 0 Z M141 1556 L274 1836 L510 1836 L290 1556 L141 1556 Z " />
<glyph glyph-name="Icircumflex" unicode="&#xce;" horiz-adv-x="569" d="M191 0 L191 1466 L385 1466 L385 0 L191 0 Z M287 1726 L174 1556 L-32 1556 L184 1836 L376 1836 L601 1556 L397 1556 L287 1726 Z " />
<glyph glyph-name="Idieresis" unicode="&#xcf;" horiz-adv-x="569" d="M191 0 L191 1466 L385 1466 L385 0 L191 0 Z M4 1556 L4 1761 L192 1761 L192 1556 L4 1556 Z M377 1556 L377 1761 L565 1761 L565 1556 L377 1556 Z " />
<glyph glyph-name="Igrave" unicode="&#xcc;" horiz-adv-x="569" d="M191 0 L191 1466 L385 1466 L385 0 L191 0 Z M430 1556 L285 1556 L54 1836 L295 1836 L430 1556 Z " />
<glyph glyph-name="Oacute" unicode="&#xd3;" horiz-adv-x="1593" d="M99 714 Q99 1079 295 1285.5 Q491 1492 801 1492 Q1004 1492 1167 1395 Q1330 1298 1415.5 1124.5 Q1501 951 1501 731 Q1501 508 1411 332 Q1321 156 1156 65.5 Q991 -25 800 -25 Q593 -25 430 75 Q267 175 183 348 Q99 521 99 714 Z M299 711 Q299 446 441.5 293.5 Q584 141 799 141 Q1018 141 1159.5 295 Q1301 449 1301 732 Q1301 911 1240.5 1044.5 Q1180 1178 1063.5 1251.5 Q947 1325 802 1325 Q596 1325 447.5 1183.5 Q299 1042 299 711 Z M677 1556 L810 1836 L1046 1836 L826 1556 L677 1556 Z " />
<glyph glyph-name="Ocircumflex" unicode="&#xd4;" horiz-adv-x="1593" d="M99 714 Q99 1079 295 1285.5 Q491 1492 801 1492 Q1004 1492 1167 1395 Q1330 1298 1415.5 1124.5 Q1501 951 1501 731 Q1501 508 1411 332 Q1321 156 1156 65.5 Q991 -25 800 -25 Q593 -25 430 75 Q267 175 183 348 Q99 521 99 714 Z M299 711 Q299 446 441.5 293.5 Q584 141 799 141 Q1018 141 1159.5 295 Q1301 449 1301 732 Q1301 911 1240.5 1044.5 Q1180 1178 1063.5 1251.5 Q947 1325 802 1325 Q596 1325 447.5 1183.5 Q299 1042 299 711 Z M798 1726 L685 1556 L479 1556 L695 1836 L887 1836 L1112 1556 L908 1556 L798 1726 Z " />
<glyph glyph-name="Ograve" unicode="&#xd2;" horiz-adv-x="1593" d="M99 714 Q99 1079 295 1285.5 Q491 1492 801 1492 Q1004 1492 1167 1395 Q1330 1298 1415.5 1124.5 Q1501 951 1501 731 Q1501 508 1411 332 Q1321 156 1156 65.5 Q991 -25 800 -25 Q593 -25 430 75 Q267 175 183 348 Q99 521 99 714 Z M299 711 Q299 446 441.5 293.5 Q584 141 799 141 Q1018 141 1159.5 295 Q1301 449 1301 732 Q1301 911 1240.5 1044.5 Q1180 1178 1063.5 1251.5 Q947 1325 802 1325 Q596 1325 447.5 1183.5 Q299 1042 299 711 Z M916 1556 L771 1556 L540 1836 L781 1836 L916 1556 Z " />
<glyph glyph-name="Uacute" unicode="&#xda;" horiz-adv-x="1479" d="M1120 1466 L1314 1466 L1314 619 Q1314 398 1264 268 Q1214 138 1083.5 56.5 Q953 -25 741 -25 Q535 -25 404 46 Q273 117 217 251.5 Q161 386 161 619 L161 1466 L355 1466 L355 620 Q355 429 390.5 338.5 Q426 248 512.5 199 Q599 150 724 150 Q938 150 1029 247 Q1120 344 1120 620 L1120 1466 Z M614 1556 L747 1836 L983 1836 L763 1556 L614 1556 Z " />
<glyph glyph-name="Ucircumflex" unicode="&#xdb;" horiz-adv-x="1479" d="M1120 1466 L1314 1466 L1314 619 Q1314 398 1264 268 Q1214 138 1083.5 56.5 Q953 -25 741 -25 Q535 -25 404 46 Q273 117 217 251.5 Q161 386 161 619 L161 1466 L355 1466 L355 620 Q355 429 390.5 338.5 Q426 248 512.5 199 Q599 150 724 150 Q938 150 1029 247 Q1120 344 1120 620 L1120 1466 Z M736 1726 L623 1556 L417 1556 L633 1836 L825 1836 L1050 1556 L846 1556 L736 1726 Z " />
<glyph glyph-name="Ugrave" unicode="&#xd9;" horiz-adv-x="1479" d="M1120 1466 L1314 1466 L1314 619 Q1314 398 1264 268 Q1214 138 1083.5 56.5 Q953 -25 741 -25 Q535 -25 404 46 Q273 117 217 251.5 Q161 386 161 619 L161 1466 L355 1466 L355 620 Q355 429 390.5 338.5 Q426 248 512.5 199 Q599 150 724 150 Q938 150 1029 247 Q1120 344 1120 620 L1120 1466 Z M854 1556 L709 1556 L478 1836 L719 1836 L854 1556 Z " />
<glyph glyph-name="dotlessi" unicode="&#x131;" horiz-adv-x="569" d="M198 0 L198 1062 L378 1062 L378 0 L198 0 Z " />
<glyph glyph-name="circumflex" unicode="&#x2c6;" horiz-adv-x="682" d="M344 1364 L231 1194 L25 1194 L241 1474 L433 1474 L658 1194 L454 1194 L344 1364 Z " />
<glyph glyph-name="tilde" unicode="&#x2dc;" horiz-adv-x="682" d="M7 1219 Q6 1323 64 1385 Q121 1447 210 1447 Q272 1447 379 1393 Q438 1363 473 1363 Q505 1363 522 1380.5 Q539 1398 546 1450 L676 1450 Q673 1336 618.5 1279 Q564 1222 480 1222 Q417 1222 314 1278 Q247 1314 216 1314 Q182 1314 161 1290 Q139 1266 140 1219 L7 1219 Z " />
<glyph glyph-name="uni02C9" unicode="&#x2c9;" horiz-adv-x="682" d="M29 1227 L29 1375 L653 1375 L653 1227 L29 1227 Z " />
<glyph glyph-name="breve" unicode="&#x2d8;" horiz-adv-x="682" d="M514 1464 L637 1464 Q622 1339 545.5 1272 Q469 1205 342 1205 Q214 1205 137.5 1271.5 Q61 1338 46 1464 L169 1464 Q183 1396 224.5 1362.5 Q266 1329 336 1329 Q417 1329 458.5 1361.5 Q500 1394 514 1464 Z " />
<glyph glyph-name="dotaccent" unicode="&#x2d9;" horiz-adv-x="682" d="M229 1194 L229 1418 L452 1418 L452 1194 L229 1194 Z " />
<glyph glyph-name="ring" unicode="&#x2da;" horiz-adv-x="682" d="M162 1338 Q162 1411 215.5 1464 Q269 1517 342 1517 Q416 1517 469 1463.5 Q522 1410 522 1334 Q522 1257 469 1204 Q416 1151 343 1151 Q268 1151 215 1204.5 Q162 1258 162 1338 Z M238 1337 Q238 1290 269.5 1258 Q301 1226 344 1226 Q387 1226 418.5 1258 Q450 1290 450 1335 Q450 1380 419 1412 Q388 1444 344 1444 Q301 1444 269.5 1412.5 Q238 1381 238 1337 Z " />
<glyph glyph-name="cedilla" unicode="&#xb8;" horiz-adv-x="682" d="M216 -154 L268 23 L402 23 L369 -84 Q454 -94 497 -136.5 Q540 -179 540 -231 Q540 -306 468 -363.5 Q396 -421 251 -421 Q169 -421 107 -409 L118 -292 Q182 -296 212 -296 Q306 -296 344 -270 Q373 -250 373 -221 Q373 -203 361.5 -189 Q350 -175 319 -165 Q288 -155 216 -154 Z " />
<glyph glyph-name="hungarumlaut" unicode="&#x2dd;" horiz-adv-x="682" d="M58 1194 L179 1474 L413 1474 L202 1194 L58 1194 Z M405 1194 L532 1474 L763 1474 L556 1194 L405 1194 Z " />
<glyph glyph-name="ogonek" unicode="&#x2db;" horiz-adv-x="682" d="M345 0 Q288 -35 256.5 -86.5 Q225 -138 225 -191 Q225 -233 248 -262 Q271 -291 323 -291 Q346 -291 370 -284.5 Q394 -278 414 -267 L414 -395 Q341 -430 278 -430 Q227 -430 189 -415.5 Q151 -401 125.5 -375.5 Q100 -350 87.5 -317 Q75 -284 75 -246 Q75 -182 111 -117.5 Q147 -53 213 0 L345 0 Z " />
<glyph glyph-name="caron" unicode="&#x2c7;" horiz-adv-x="682" d="M359 1304 L469 1474 L673 1474 L448 1194 L256 1194 L40 1474 L246 1474 L359 1304 Z " />
<glyph glyph-name="Lslash" unicode="&#x141;" horiz-adv-x="1139" d="M145 565 L0 442 L0 609 L145 733 L145 1466 L339 1466 L339 898 L671 1179 L671 1012 L339 731 L339 173 L1067 173 L1067 0 L145 0 L145 565 Z " />
<glyph glyph-name="lslash" unicode="&#x142;" horiz-adv-x="455" d="M133 574 L3 464 L3 622 L133 732 L133 1466 L312 1466 L312 884 L447 999 L447 842 L312 727 L312 0 L133 0 L133 574 Z " />
<glyph glyph-name="Scaron" unicode="&#x160;" horiz-adv-x="1366" d="M92 471 L275 487 Q288 377 335.5 306.5 Q383 236 483 192.5 Q583 149 708 149 Q819 149 904 182 Q989 215 1030.5 272.5 Q1072 330 1072 398 Q1072 467 1032 518.5 Q992 570 900 605 Q841 628 639 676.5 Q437 725 356 768 Q251 823 199.5 904.5 Q148 986 148 1087 Q148 1198 211 1294.5 Q274 1391 395 1441 Q516 1491 664 1491 Q827 1491 951.5 1438.5 Q1076 1386 1143 1284 Q1210 1182 1215 1053 L1029 1039 Q1014 1178 927.5 1249 Q841 1320 672 1320 Q496 1320 415.5 1255.5 Q335 1191 335 1100 Q335 1021 392 970 Q448 919 684.5 865.5 Q921 812 1009 772 Q1137 713 1198 622.5 Q1259 532 1259 414 Q1259 297 1192 193.5 Q1125 90 999.5 32.5 Q874 -25 717 -25 Q518 -25 383.5 33 Q249 91 172.5 207.5 Q96 324 92 471 Z M655 1660 L765 1830 L969 1830 L744 1550 L552 1550 L336 1830 L542 1830 L655 1660 Z " />
<glyph glyph-name="scaron" unicode="&#x161;" horiz-adv-x="1024" d="M63 317 L241 345 Q256 238 324.5 181 Q393 124 516 124 Q640 124 700 174.5 Q760 225 760 293 Q760 354 707 389 Q670 413 523 450 Q325 500 248.5 536.5 Q172 573 132.5 637.5 Q93 702 93 780 Q93 851 125.5 911.5 Q158 972 214 1012 Q256 1043 328.5 1064.5 Q401 1086 484 1086 Q609 1086 703.5 1050 Q798 1014 843 952.5 Q888 891 905 788 L729 764 Q717 846 659.5 892 Q602 938 497 938 Q373 938 320 897 Q267 856 267 801 Q267 766 289 738 Q311 709 358 690 Q385 680 517 644 Q708 593 783.5 560.5 Q859 528 902 466 Q945 404 945 312 Q945 222 892.5 142.5 Q840 63 741 19.5 Q642 -24 517 -24 Q310 -24 201.5 62 Q93 148 63 317 Z M507 1304 L617 1474 L821 1474 L596 1194 L404 1194 L188 1474 L394 1474 L507 1304 Z " />
<glyph glyph-name="Zcaron" unicode="&#x17d;" horiz-adv-x="1251" d="M41 0 L41 180 L792 1119 Q872 1219 944 1293 L126 1293 L126 1466 L1176 1466 L1176 1293 L353 276 L264 173 L1200 173 L1200 0 L41 0 Z M635 1660 L745 1830 L949 1830 L724 1550 L532 1550 L316 1830 L522 1830 L635 1660 Z " />
<glyph glyph-name="zcaron" unicode="&#x17e;" horiz-adv-x="1024" d="M40 0 L40 146 L716 922 Q601 916 513 916 L80 916 L80 1062 L948 1062 L948 943 L373 269 L262 146 Q383 155 489 155 L980 155 L980 0 L40 0 Z M543 1304 L653 1474 L857 1474 L632 1194 L440 1194 L224 1474 L430 1474 L543 1304 Z " />
<glyph glyph-name="brokenbar" unicode="&#xa6;" horiz-adv-x="532" d="M345 1491 L345 701 L188 701 L188 1491 L345 1491 Z M345 360 L345 -431 L188 -431 L188 360 L345 360 Z " />
<glyph glyph-name="Eth" unicode="&#xd0;" horiz-adv-x="1479" d="M158 0 L158 667 L-3 667 L-3 799 L158 799 L158 1466 L664 1466 Q834 1466 924 1445 Q1050 1416 1139 1340 Q1255 1242 1312.5 1089.5 Q1370 937 1370 741 Q1370 517 1299 355.5 Q1228 194 1129 121 Q1030 48 901 17 Q830 0 687 0 L158 0 Z M352 173 L665 173 Q811 173 893 200 Q975 227 1023 275 Q1092 344 1131 460 Q1170 576 1170 743 Q1170 915 1131.5 1018 Q1093 1121 1031 1183 Q969 1245 893 1269 Q817 1293 660 1293 L352 1293 L352 799 L756 799 L756 667 L352 667 L352 173 Z " />
<glyph glyph-name="eth" unicode="&#xf0;" horiz-adv-x="1139" d="M308 1466 L525 1466 Q597 1412 650 1364 L864 1466 L909 1364 L737 1281 Q1057 913 1057 521 Q1057 268 918 121.5 Q779 -25 564 -25 Q309 -25 166 169 Q73 296 73 517 Q73 778 202 920 Q331 1062 525 1062 Q583 1062 627 1050 Q671 1038 737 1003 Q701 1076 674 1116.5 Q647 1157 595 1216 L320 1089 L276 1192 L515 1301 Q418 1391 308 1466 Z M870 529 Q870 721 779.5 822.5 Q689 924 557 924 Q427 924 342 822.5 Q257 721 257 512 Q257 318 344.5 220 Q432 122 563 122 Q691 122 780.5 225.5 Q870 329 870 529 Z " />
<glyph glyph-name="Yacute" unicode="&#xdd;" horiz-adv-x="1366" d="M571 0 L571 621 L6 1466 L242 1466 L531 1024 Q611 900 680 776 Q746 891 840 1035 L1124 1466 L1350 1466 L765 621 L765 0 L571 0 Z M555 1556 L688 1836 L924 1836 L704 1556 L555 1556 Z " />
<glyph glyph-name="yacute" unicode="&#xfd;" horiz-adv-x="1024" d="M127 -409 L107 -240 Q166 -256 210 -256 Q270 -256 306 -236 Q342 -216 365 -180 Q382 -153 420 -46 Q425 -31 436 -2 L33 1062 L227 1062 L448 447 Q491 330 525 201 Q556 325 599 443 L826 1062 L1006 1062 L602 -18 Q537 -193 501 -259 Q453 -348 391 -389.5 Q329 -431 243 -431 Q191 -431 127 -409 Z M420 1194 L553 1474 L789 1474 L569 1194 L420 1194 Z " />
<glyph glyph-name="Thorn" unicode="&#xde;" horiz-adv-x="1366" d="M158 0 L158 1466 L352 1466 L352 1168 L711 1168 Q857 1168 935 1154 Q1043 1135 1116 1084.5 Q1189 1034 1233 943 Q1277 852 1277 743 Q1277 557 1158 427.5 Q1039 298 728 298 L352 298 L352 0 L158 0 Z M352 471 L731 471 Q919 471 998 541 Q1077 611 1077 737 Q1077 828 1031 894 Q985 960 909 981 Q860 995 727 995 L352 995 L352 471 Z " />
<glyph glyph-name="thorn" unicode="&#xfe;" horiz-adv-x="1139" d="M135 -407 L135 1466 L315 1466 L315 950 Q388 1027 443 1052 Q515 1086 607 1086 Q743 1086 847 1016 Q951 946 1004 818.5 Q1057 691 1057 539 Q1057 375 998.5 245 Q940 115 828.5 45.5 Q717 -24 595 -24 Q512 -24 441 9 Q387 35 315 110 L315 -407 L135 -407 Z M298 525 Q298 320 381 222 Q464 124 582 124 Q702 124 787.5 225.5 Q873 327 873 540 Q873 743 789.5 844 Q706 945 590 945 Q475 945 386.5 837.5 Q298 730 298 525 Z " />
<glyph glyph-name="minus" unicode="&#x2212;" horiz-adv-x="1196" d="M1082 639 L114 639 L114 807 L1082 807 L1082 639 Z " />
<glyph glyph-name="multiply" unicode="&#xd7;" horiz-adv-x="1196" d="M161 409 L476 724 L162 1038 L284 1160 L598 846 L911 1159 L1031 1038 L719 725 L1033 411 L911 289 L597 603 L282 288 L161 409 Z " />
<glyph glyph-name="onesuperior" unicode="&#xb9;" horiz-adv-x="682" d="M331 733 L331 1287 Q229 1206 107 1174 L107 1297 Q169 1317 245 1370 Q321 1423 368 1484 L476 1484 L476 733 L331 733 Z " />
<glyph glyph-name="twosuperior" unicode="&#xb2;" horiz-adv-x="682" d="M25 733 Q31 790 72 847 Q135 933 279 1037.5 Q423 1142 450 1172 Q487 1213 487 1256 Q487 1304 452 1335 Q417 1366 349 1366 Q283 1366 250.5 1342.5 Q218 1319 197 1252 L46 1268 Q75 1379 146.5 1431.5 Q218 1484 352 1484 Q503 1484 573.5 1425 Q644 1366 644 1281 Q644 1197 585 1122 Q540 1066 380 951 Q297 890 262 854 L648 854 L648 733 L25 733 Z " />
<glyph glyph-name="threesuperior" unicode="&#xb3;" horiz-adv-x="682" d="M33 929 L179 944 Q199 884 231 862 Q274 832 333 832 Q404 832 447 871 Q490 910 490 965 Q490 1015 454 1045 Q418 1075 331 1075 Q319 1075 298 1073 Q284 1072 276 1072 L298 1182 Q379 1181 416.5 1211 Q454 1241 454 1284 Q454 1321 424 1347 Q394 1373 335 1373 Q279 1373 247.5 1351 Q216 1329 193 1271 L50 1294 Q91 1400 153.5 1442 Q216 1484 336 1484 Q480 1484 545.5 1430.5 Q611 1377 611 1297 Q611 1242 575.5 1199 Q540 1156 473 1137 Q562 1115 604 1064.5 Q646 1014 646 946 Q646 853 567 784 Q488 715 342 715 Q202 715 128 770.5 Q54 826 33 929 Z " />
<glyph glyph-name="onehalf" unicode="&#xbd;" horiz-adv-x="1708" d="M228 -57 L1329 1491 L1486 1491 L385 -57 L228 -57 Z M331 733 L331 1287 Q229 1206 107 1174 L107 1297 Q169 1317 245 1370 Q321 1423 368 1484 L476 1484 L476 733 L331 733 Z M1049 -31 Q1055 25 1097 82 Q1159 169 1303 273 Q1447 377 1474 408 Q1511 449 1511 492 Q1511 540 1476.5 570.5 Q1442 601 1373 601 Q1307 601 1274.5 577.5 Q1242 554 1221 488 L1070 503 Q1099 615 1171 667.5 Q1243 720 1376 720 Q1527 720 1597.5 661 Q1668 602 1668 517 Q1668 433 1609 358 Q1564 302 1405 186 Q1321 125 1286 90 L1672 90 L1672 -31 L1049 -31 Z " />
<glyph glyph-name="onequarter" unicode="&#xbc;" horiz-adv-x="1708" d="M252 -57 L1354 1491 L1510 1491 L409 -57 L252 -57 Z M331 733 L331 1287 Q229 1206 107 1174 L107 1297 Q169 1317 245 1370 Q321 1423 368 1484 L476 1484 L476 733 L331 733 Z M1430 -31 L1430 123 L1047 123 L1047 246 L1452 720 L1574 720 L1574 231 L1678 231 L1678 123 L1574 123 L1574 -31 L1430 -31 Z M1430 231 L1430 494 L1200 231 L1430 231 Z " />
<glyph glyph-name="threequarters" unicode="&#xbe;" horiz-adv-x="1708" d="M252 -57 L1353 1491 L1510 1491 L409 -57 L252 -57 Z M33 929 L179 944 Q199 884 231 862 Q274 832 333 832 Q404 832 447 871 Q490 910 490 965 Q490 1015 454 1045 Q418 1075 334 1075 Q284 1072 276 1072 L298 1182 Q379 1181 416.5 1211 Q454 1241 454 1284 Q454 1321 424 1347 Q394 1373 335 1373 Q279 1373 247.5 1351 Q216 1329 193 1271 L50 1294 Q91 1400 153.5 1442 Q216 1484 336 1484 Q480 1484 545.5 1430.5 Q611 1377 611 1297 Q611 1242 575.5 1199 Q540 1156 473 1137 Q562 1115 604 1064.5 Q646 1014 646 946 Q646 853 567 784 Q488 715 342 715 Q202 715 128 770.5 Q54 826 33 929 Z M1429 -31 L1429 123 L1047 123 L1047 246 L1451 720 L1574 720 L1574 231 L1678 231 L1678 123 L1574 123 L1574 -31 L1429 -31 Z M1429 231 L1429 494 L1200 231 L1429 231 Z " />
<glyph glyph-name="franc" unicode="&#x20a3;" horiz-adv-x="1139" d="M168 246 L0 246 L0 395 L168 395 L168 1466 L1037 1466 L1037 1293 L362 1293 L362 839 L930 839 L930 666 L362 666 L362 395 L677 395 L677 246 L362 246 L362 0 L168 0 L168 246 Z " />
<glyph glyph-name="Gbreve" unicode="&#x11e;" horiz-adv-x="1593" d="M844 575 L844 747 L1465 748 L1465 204 Q1322 90 1170 32.5 Q1018 -25 858 -25 Q642 -25 465.5 67.5 Q289 160 199 335 Q109 510 109 726 Q109 940 198.5 1125.5 Q288 1311 456 1401 Q624 1491 843 1491 Q1002 1491 1130.5 1439.5 Q1259 1388 1332 1296 Q1405 1204 1443 1056 L1268 1008 Q1235 1120 1186 1184 Q1137 1248 1046 1286.5 Q955 1325 844 1325 Q711 1325 614 1284.5 Q517 1244 457.5 1178 Q398 1112 365 1033 Q309 897 309 738 Q309 542 376.5 410 Q444 278 573 214 Q702 150 847 150 Q973 150 1093 198.5 Q1213 247 1275 302 L1275 575 L844 575 Z M1040 1815 L1163 1815 Q1148 1690 1071.5 1623 Q995 1556 868 1556 Q740 1556 663.5 1622.5 Q587 1689 572 1815 L695 1815 Q709 1747 750.5 1713.5 Q792 1680 862 1680 Q943 1680 984.5 1712.5 Q1026 1745 1040 1815 Z " />
<glyph glyph-name="gbreve" unicode="&#x11f;" horiz-adv-x="1139" d="M102 -88 L277 -114 Q288 -195 338 -232 Q405 -282 521 -282 Q646 -282 714 -232 Q782 -182 806 -92 Q820 -37 819 139 Q701 0 525 0 Q306 0 186 158 Q66 316 66 537 Q66 689 121 817.5 Q176 946 280.5 1016 Q385 1086 526 1086 Q714 1086 836 934 L836 1062 L1002 1062 L1002 144 Q1002 -104 951.5 -207.5 Q901 -311 791.5 -371 Q682 -431 522 -431 Q332 -431 215 -345.5 Q98 -260 102 -88 Z M251 550 Q251 341 334 245 Q417 149 542 149 Q666 149 750 244.5 Q834 340 834 544 Q834 739 747.5 838 Q661 937 539 937 Q419 937 335 839.5 Q251 742 251 550 Z M742 1464 L865 1464 Q850 1339 773.5 1272 Q697 1205 570 1205 Q442 1205 365.5 1271.5 Q289 1338 274 1464 L397 1464 Q411 1396 452.5 1362.5 Q494 1329 564 1329 Q645 1329 686.5 1361.5 Q728 1394 742 1464 Z " />
<glyph glyph-name="Idotaccent" unicode="&#x130;" horiz-adv-x="569" d="M191 0 L191 1466 L385 1466 L385 0 L191 0 Z M177 1556 L177 1780 L400 1780 L400 1556 L177 1556 Z " />
<glyph glyph-name="Scedilla" unicode="&#x15e;" horiz-adv-x="1366" d="M92 471 L275 487 Q288 377 335.5 306.5 Q383 236 483 192.5 Q583 149 708 149 Q819 149 904 182 Q989 215 1030.5 272.5 Q1072 330 1072 398 Q1072 467 1032 518.5 Q992 570 900 605 Q841 628 639 676.5 Q437 725 356 768 Q251 823 199.5 904.5 Q148 986 148 1087 Q148 1198 211 1294.5 Q274 1391 395 1441 Q516 1491 664 1491 Q827 1491 951.5 1438.5 Q1076 1386 1143 1284 Q1210 1182 1215 1053 L1029 1039 Q1014 1178 927.5 1249 Q841 1320 672 1320 Q496 1320 415.5 1255.5 Q335 1191 335 1100 Q335 1021 392 970 Q448 919 684.5 865.5 Q921 812 1009 772 Q1137 713 1198 622.5 Q1259 532 1259 414 Q1259 297 1192 193.5 Q1125 90 999.5 32.5 Q874 -25 717 -25 Q518 -25 383.5 33 Q249 91 172.5 207.5 Q96 324 92 471 Z M555 -144 L607 33 L741 33 L708 -74 Q793 -84 836 -126.5 Q879 -169 879 -221 Q879 -296 807 -353.5 Q735 -411 590 -411 Q508 -411 446 -399 L457 -282 Q521 -286 551 -286 Q645 -286 683 -260 Q712 -240 712 -211 Q712 -193 700.5 -179 Q689 -165 658 -155 Q627 -145 555 -144 Z " />
<glyph glyph-name="scedilla" unicode="&#x15f;" horiz-adv-x="1024" d="M63 317 L241 345 Q256 238 324.5 181 Q393 124 516 124 Q640 124 700 174.5 Q760 225 760 293 Q760 354 707 389 Q670 413 523 450 Q325 500 248.5 536.5 Q172 573 132.5 637.5 Q93 702 93 780 Q93 851 125.5 911.5 Q158 972 214 1012 Q256 1043 328.5 1064.5 Q401 1086 484 1086 Q609 1086 703.5 1050 Q798 1014 843 952.5 Q888 891 905 788 L729 764 Q717 846 659.5 892 Q602 938 497 938 Q373 938 320 897 Q267 856 267 801 Q267 766 289 738 Q311 709 358 690 Q385 680 517 644 Q708 593 783.5 560.5 Q859 528 902 466 Q945 404 945 312 Q945 222 892.5 142.5 Q840 63 741 19.5 Q642 -24 517 -24 Q310 -24 201.5 62 Q93 148 63 317 Z M375 -134 L427 43 L561 43 L528 -64 Q613 -74 656 -116.5 Q699 -159 699 -211 Q699 -286 627 -343.5 Q555 -401 410 -401 Q328 -401 266 -389 L277 -272 Q341 -276 371 -276 Q465 -276 503 -250 Q532 -230 532 -201 Q532 -183 520.5 -169 Q509 -155 478 -145 Q447 -135 375 -134 Z " />
<glyph glyph-name="Cacute" unicode="&#x106;" horiz-adv-x="1479" d="M1204 514 L1398 465 Q1337 226 1178.5 100.5 Q1020 -25 791 -25 Q554 -25 405.5 71.5 Q257 168 179.5 351 Q102 534 102 744 Q102 973 189.5 1143.5 Q277 1314 438.5 1402.5 Q600 1491 794 1491 Q1014 1491 1164 1379 Q1314 1267 1373 1064 L1182 1019 Q1131 1179 1034 1252 Q937 1325 790 1325 Q621 1325 507.5 1244 Q394 1163 348 1026.5 Q302 890 302 745 Q302 558 356.5 418.5 Q411 279 526 210 Q641 141 775 141 Q938 141 1051 235 Q1164 329 1204 514 Z M663 1556 L796 1836 L1032 1836 L812 1556 L663 1556 Z " />
<glyph glyph-name="cacute" unicode="&#x107;" horiz-adv-x="1024" d="M828 389 L1005 366 Q976 183 856.5 79.5 Q737 -24 563 -24 Q345 -24 212.5 118.5 Q80 261 80 527 Q80 699 137 828 Q194 957 310.5 1021.5 Q427 1086 564 1086 Q737 1086 847 998.5 Q957 911 988 750 L813 723 Q788 830 724.5 884 Q661 938 571 938 Q435 938 350 840.5 Q265 743 265 532 Q265 318 347 221 Q429 124 561 124 Q667 124 738 189 Q809 254 828 389 Z M424 1194 L557 1474 L793 1474 L573 1194 L424 1194 Z " />
<glyph glyph-name="Ccaron" unicode="&#x10c;" horiz-adv-x="1479" d="M1204 514 L1398 465 Q1337 226 1178.5 100.5 Q1020 -25 791 -25 Q554 -25 405.5 71.5 Q257 168 179.5 351 Q102 534 102 744 Q102 973 189.5 1143.5 Q277 1314 438.5 1402.5 Q600 1491 794 1491 Q1014 1491 1164 1379 Q1314 1267 1373 1064 L1182 1019 Q1131 1179 1034 1252 Q937 1325 790 1325 Q621 1325 507.5 1244 Q394 1163 348 1026.5 Q302 890 302 745 Q302 558 356.5 418.5 Q411 279 526 210 Q641 141 775 141 Q938 141 1051 235 Q1164 329 1204 514 Z M791 1660 L901 1830 L1105 1830 L880 1550 L688 1550 L472 1830 L678 1830 L791 1660 Z " />
<glyph glyph-name="ccaron" unicode="&#x10d;" horiz-adv-x="1024" d="M828 389 L1005 366 Q976 183 856.5 79.5 Q737 -24 563 -24 Q345 -24 212.5 118.5 Q80 261 80 527 Q80 699 137 828 Q194 957 310.5 1021.5 Q427 1086 564 1086 Q737 1086 847 998.5 Q957 911 988 750 L813 723 Q788 830 724.5 884 Q661 938 571 938 Q435 938 350 840.5 Q265 743 265 532 Q265 318 347 221 Q429 124 561 124 Q667 124 738 189 Q809 254 828 389 Z M561 1304 L671 1474 L875 1474 L650 1194 L458 1194 L242 1474 L448 1474 L561 1304 Z " />
<glyph glyph-name="dcroat" unicode="&#x111;" horiz-adv-x="1139" d="M812 1219 L466 1219 L466 1351 L812 1351 L812 1466 L991 1466 L991 1351 L1136 1351 L1136 1219 L991 1219 L991 0 L824 0 L824 134 Q723 -24 527 -24 Q400 -24 293.5 46 Q187 116 128.5 241.5 Q70 367 70 530 Q70 689 123 818.5 Q176 948 282 1017 Q388 1086 519 1086 Q615 1086 690 1045.5 Q765 1005 812 940 L812 1219 Z M255 530 Q255 326 341 225 Q427 124 544 124 Q662 124 744.5 220.5 Q827 317 827 515 Q827 733 743 835 Q659 937 536 937 Q416 937 335.5 839 Q255 741 255 530 Z " />
<glyph glyph-name="macron" unicode="&#xaf;" horiz-adv-x="1131" d="M-31 1566 L-31 1695 L1162 1695 L1162 1566 L-31 1566 Z " />
<glyph glyph-name="periodcentered" unicode="&#xb7;" horiz-adv-x="682" d="M238 637 L238 842 L443 842 L443 637 L238 637 Z " />
<glyph glyph-name="Abreve" unicode="&#x102;" horiz-adv-x="1366" d="M-3 0 L560 1466 L769 1466 L1369 0 L1148 0 L977 444 L364 444 L203 0 L-3 0 Z M420 602 L917 602 L764 1008 Q694 1193 660 1312 Q632 1171 581 1032 L420 602 Z M852 1815 L975 1815 Q960 1690 883.5 1623 Q807 1556 680 1556 Q552 1556 475.5 1622.5 Q399 1689 384 1815 L507 1815 Q521 1747 562.5 1713.5 Q604 1680 674 1680 Q755 1680 796.5 1712.5 Q838 1745 852 1815 Z " />
<glyph glyph-name="abreve" unicode="&#x103;" horiz-adv-x="1139" d="M828 131 Q728 46 635.5 11 Q543 -24 437 -24 Q262 -24 168 61.5 Q74 147 74 280 Q74 358 109.5 422.5 Q145 487 202.5 526 Q260 565 332 585 Q385 599 492 612 Q710 638 813 674 Q814 711 814 721 Q814 831 763 876 Q694 937 558 937 Q431 937 370.5 892.5 Q310 848 281 735 L105 759 Q129 872 184 941.5 Q239 1011 343 1048.5 Q447 1086 584 1086 Q720 1086 805 1054 Q890 1022 930 973.5 Q970 925 986 851 Q995 805 995 685 L995 445 Q995 194 1006.5 127.5 Q1018 61 1052 0 L864 0 Q836 56 828 131 Z M813 533 Q715 493 519 465 Q408 449 362 429 Q316 409 291 370.5 Q266 332 266 285 Q266 213 320.5 165 Q375 117 480 117 Q584 117 665 162.5 Q746 208 784 287 Q813 348 813 467 L813 533 Z M759 1464 L882 1464 Q867 1339 790.5 1272 Q714 1205 587 1205 Q459 1205 382.5 1271.5 Q306 1338 291 1464 L414 1464 Q428 1396 469.5 1362.5 Q511 1329 581 1329 Q662 1329 703.5 1361.5 Q745 1394 759 1464 Z " />
<glyph glyph-name="Aogonek" unicode="&#x104;" horiz-adv-x="1366" d="M-3 0 L560 1466 L769 1466 L1369 0 L1148 0 L977 444 L364 444 L203 0 L-3 0 Z M420 602 L917 602 L764 1008 Q694 1193 660 1312 Q632 1171 581 1032 L420 602 Z M1305 0 Q1248 -35 1216.5 -86.5 Q1185 -138 1185 -191 Q1185 -233 1208 -262 Q1231 -291 1283 -291 Q1306 -291 1330 -284.5 Q1354 -278 1374 -267 L1374 -395 Q1301 -430 1238 -430 Q1187 -430 1149 -415.5 Q1111 -401 1085.5 -375.5 Q1060 -350 1047.5 -317 Q1035 -284 1035 -246 Q1035 -182 1071 -117.5 Q1107 -53 1173 0 L1305 0 Z " />
<glyph glyph-name="aogonek" unicode="&#x105;" horiz-adv-x="1139" d="M828 131 Q728 46 635.5 11 Q543 -24 437 -24 Q262 -24 168 61.5 Q74 147 74 280 Q74 358 109.5 422.5 Q145 487 202.5 526 Q260 565 332 585 Q385 599 492 612 Q710 638 813 674 Q814 711 814 721 Q814 831 763 876 Q694 937 558 937 Q431 937 370.5 892.5 Q310 848 281 735 L105 759 Q129 872 184 941.5 Q239 1011 343 1048.5 Q447 1086 584 1086 Q720 1086 805 1054 Q890 1022 930 973.5 Q970 925 986 851 Q995 805 995 685 L995 445 Q995 194 1006.5 127.5 Q1018 61 1052 0 L864 0 Q836 56 828 131 Z M813 533 Q715 493 519 465 Q408 449 362 429 Q316 409 291 370.5 Q266 332 266 285 Q266 213 320.5 165 Q375 117 480 117 Q584 117 665 162.5 Q746 208 784 287 Q813 348 813 467 L813 533 Z M1015 0 Q958 -35 926.5 -86.5 Q895 -138 895 -191 Q895 -233 918 -262 Q941 -291 993 -291 Q1016 -291 1040 -284.5 Q1064 -278 1084 -267 L1084 -395 Q1011 -430 948 -430 Q897 -430 859 -415.5 Q821 -401 795.5 -375.5 Q770 -350 757.5 -317 Q745 -284 745 -246 Q745 -182 781 -117.5 Q817 -53 883 0 L1015 0 Z " />
<glyph glyph-name="Dcaron" unicode="&#x10e;" horiz-adv-x="1479" d="M158 0 L158 1466 L663 1466 Q834 1466 924 1445 Q1050 1416 1139 1340 Q1255 1242 1312.5 1089.5 Q1370 937 1370 741 Q1370 574 1331 445 Q1292 316 1231 231.5 Q1170 147 1097.5 98.5 Q1025 50 922.5 25 Q820 0 687 0 L158 0 Z M352 173 L665 173 Q810 173 892.5 200 Q975 227 1024 276 Q1093 345 1131.5 461.5 Q1170 578 1170 744 Q1170 974 1094.5 1097.5 Q1019 1221 911 1263 Q833 1293 660 1293 L352 1293 L352 173 Z M630 1660 L740 1830 L944 1830 L719 1550 L527 1550 L311 1830 L517 1830 L630 1660 Z " />
<glyph glyph-name="dcaron" unicode="&#x10f;" horiz-adv-x="1259" d="M1078 1281 L1078 1466 L1262 1466 L1262 1281 Q1262 1180 1226 1117.5 Q1190 1055 1112 1021 L1067 1089 Q1118 1112 1142.5 1155.5 Q1167 1199 1169 1281 L1078 1281 Z M825 0 L825 134 Q724 -24 528 -24 Q401 -24 294.5 46 Q188 116 129.5 241.5 Q71 367 71 530 Q71 689 124 818.5 Q177 948 283 1017 Q389 1086 520 1086 Q616 1086 691 1045.5 Q766 1005 813 940 L813 1466 L992 1466 L992 0 L825 0 Z M256 530 Q256 326 342 225 Q428 124 545 124 Q663 124 745.5 220.5 Q828 317 828 515 Q828 733 744 835 Q660 937 537 937 Q417 937 336.5 839 Q256 741 256 530 Z " />
<glyph glyph-name="Dcroat" unicode="&#x110;" horiz-adv-x="1479" d="M158 0 L158 667 L-3 667 L-3 799 L158 799 L158 1466 L664 1466 Q834 1466 924 1445 Q1050 1416 1139 1340 Q1255 1242 1312.5 1089.5 Q1370 937 1370 741 Q1370 517 1299 355.5 Q1228 194 1129 121 Q1030 48 901 17 Q830 0 687 0 L158 0 Z M352 173 L665 173 Q811 173 893 200 Q975 227 1023 275 Q1092 344 1131 460 Q1170 576 1170 743 Q1170 915 1131.5 1018 Q1093 1121 1031 1183 Q969 1245 893 1269 Q817 1293 660 1293 L352 1293 L352 799 L756 799 L756 667 L352 667 L352 173 Z " />
<glyph glyph-name="Eogonek" unicode="&#x118;" horiz-adv-x="1366" d="M162 0 L162 1466 L1222 1466 L1222 1293 L356 1293 L356 844 L1167 844 L1167 672 L356 672 L356 173 L1256 173 L1256 0 L162 0 Z M1187 0 Q1130 -35 1098.5 -86.5 Q1067 -138 1067 -191 Q1067 -233 1090 -262 Q1113 -291 1165 -291 Q1188 -291 1212 -284.5 Q1236 -278 1256 -267 L1256 -395 Q1183 -430 1120 -430 Q1069 -430 1031 -415.5 Q993 -401 967.5 -375.5 Q942 -350 929.5 -317 Q917 -284 917 -246 Q917 -182 953 -117.5 Q989 -53 1055 0 L1187 0 Z " />
<glyph glyph-name="eogonek" unicode="&#x119;" horiz-adv-x="1139" d="M862 342 L1048 319 Q1004 156 885 66 Q766 -24 581 -24 Q348 -24 211.5 119.5 Q75 263 75 522 Q75 790 213 938 Q351 1086 571 1086 Q784 1086 919 941 Q1054 796 1054 533 Q1054 517 1053 485 L261 485 Q271 310 360 217 Q449 124 582 124 Q681 124 751 176 Q821 228 862 342 Z M271 633 L864 633 Q852 767 796 834 Q710 938 573 938 Q449 938 364.5 855 Q280 772 271 633 Z M735 0 Q678 -35 646.5 -86.5 Q615 -138 615 -191 Q615 -233 638 -262 Q661 -291 713 -291 Q736 -291 760 -284.5 Q784 -278 804 -267 L804 -395 Q731 -430 668 -430 Q617 -430 579 -415.5 Q541 -401 515.5 -375.5 Q490 -350 477.5 -317 Q465 -284 465 -246 Q465 -182 501 -117.5 Q537 -53 603 0 L735 0 Z " />
<glyph glyph-name="Ecaron" unicode="&#x11a;" horiz-adv-x="1366" d="M162 0 L162 1466 L1222 1466 L1222 1293 L356 1293 L356 844 L1167 844 L1167 672 L356 672 L356 173 L1256 173 L1256 0 L162 0 Z M666 1660 L776 1830 L980 1830 L755 1550 L563 1550 L347 1830 L553 1830 L666 1660 Z " />
<glyph glyph-name="ecaron" unicode="&#x11b;" horiz-adv-x="1139" d="M862 342 L1048 319 Q1004 156 885 66 Q766 -24 581 -24 Q348 -24 211.5 119.5 Q75 263 75 522 Q75 790 213 938 Q351 1086 571 1086 Q784 1086 919 941 Q1054 796 1054 533 Q1054 517 1053 485 L261 485 Q271 310 360 217 Q449 124 582 124 Q681 124 751 176 Q821 228 862 342 Z M271 633 L864 633 Q852 767 796 834 Q710 938 573 938 Q449 938 364.5 855 Q280 772 271 633 Z M583 1304 L693 1474 L897 1474 L672 1194 L480 1194 L264 1474 L470 1474 L583 1304 Z " />
<glyph glyph-name="Lacute" unicode="&#x139;" horiz-adv-x="1139" d="M150 0 L150 1466 L344 1466 L344 173 L1066 173 L1066 0 L150 0 Z M304 1556 L437 1836 L673 1836 L453 1556 L304 1556 Z " />
<glyph glyph-name="lacute" unicode="&#x13a;" horiz-adv-x="455" d="M131 0 L131 1466 L311 1466 L311 0 L131 0 Z M66 1541 L199 1821 L435 1821 L215 1541 L66 1541 Z " />
<glyph glyph-name="Lcaron" unicode="&#x13d;" horiz-adv-x="1139" d="M712 1261 L712 1466 L917 1466 L917 1261 Q917 1148 877 1078.5 Q837 1009 750 971 L700 1048 Q757 1073 784.5 1121.5 Q812 1170 814 1261 L712 1261 Z M150 0 L150 1466 L344 1466 L344 173 L1066 173 L1066 0 L150 0 Z " />
<glyph glyph-name="lcaron" unicode="&#x13e;" horiz-adv-x="597" d="M412 1281 L412 1466 L596 1466 L596 1281 Q596 1180 560 1117.5 Q524 1055 446 1021 L401 1089 Q452 1112 476.5 1155.5 Q501 1199 503 1281 L412 1281 Z M136 0 L136 1466 L316 1466 L316 0 L136 0 Z " />
<glyph glyph-name="Ldot" unicode="&#x13f;" horiz-adv-x="1139" d="M150 0 L150 1466 L344 1466 L344 173 L1066 173 L1066 0 L150 0 Z M538 637 L538 842 L743 842 L743 637 L538 637 Z " />
<glyph glyph-name="ldot" unicode="&#x140;" horiz-adv-x="684" d="M131 0 L131 1466 L311 1466 L311 0 L131 0 Z M460 637 L460 842 L665 842 L665 637 L460 637 Z " />
<glyph glyph-name="Nacute" unicode="&#x143;" horiz-adv-x="1479" d="M156 0 L156 1466 L355 1466 L1125 315 L1125 1466 L1311 1466 L1311 0 L1112 0 L342 1152 L342 0 L156 0 Z M570 1556 L703 1836 L939 1836 L719 1556 L570 1556 Z " />
<glyph glyph-name="nacute" unicode="&#x144;" horiz-adv-x="1139" d="M135 0 L135 1062 L297 1062 L297 911 Q414 1086 635 1086 Q731 1086 811.5 1051.5 Q892 1017 932 961 Q972 905 988 828 Q998 778 998 653 L998 0 L818 0 L818 646 Q818 756 797 810.5 Q776 865 722.5 897.5 Q669 930 597 930 Q482 930 398.5 857 Q315 784 315 580 L315 0 L135 0 Z M448 1194 L581 1474 L817 1474 L597 1194 L448 1194 Z " />
<glyph glyph-name="Ncaron" unicode="&#x147;" horiz-adv-x="1479" d="M156 0 L156 1466 L355 1466 L1125 315 L1125 1466 L1311 1466 L1311 0 L1112 0 L342 1152 L342 0 L156 0 Z M734 1666 L844 1836 L1048 1836 L823 1556 L631 1556 L415 1836 L621 1836 L734 1666 Z " />
<glyph glyph-name="ncaron" unicode="&#x148;" horiz-adv-x="1139" d="M135 0 L135 1062 L297 1062 L297 911 Q414 1086 635 1086 Q731 1086 811.5 1051.5 Q892 1017 932 961 Q972 905 988 828 Q998 778 998 653 L998 0 L818 0 L818 646 Q818 756 797 810.5 Q776 865 722.5 897.5 Q669 930 597 930 Q482 930 398.5 857 Q315 784 315 580 L315 0 L135 0 Z M585 1304 L695 1474 L899 1474 L674 1194 L482 1194 L266 1474 L472 1474 L585 1304 Z " />
<glyph glyph-name="Ohungarumlaut" unicode="&#x150;" horiz-adv-x="1593" d="M99 714 Q99 1079 295 1285.5 Q491 1492 801 1492 Q1004 1492 1167 1395 Q1330 1298 1415.5 1124.5 Q1501 951 1501 731 Q1501 508 1411 332 Q1321 156 1156 65.5 Q991 -25 800 -25 Q593 -25 430 75 Q267 175 183 348 Q99 521 99 714 Z M299 711 Q299 446 441.5 293.5 Q584 141 799 141 Q1018 141 1159.5 295 Q1301 449 1301 732 Q1301 911 1240.5 1044.5 Q1180 1178 1063.5 1251.5 Q947 1325 802 1325 Q596 1325 447.5 1183.5 Q299 1042 299 711 Z M473 1556 L594 1836 L828 1836 L617 1556 L473 1556 Z M820 1556 L947 1836 L1178 1836 L971 1556 L820 1556 Z " />
<glyph glyph-name="ohungarumlaut" unicode="&#x151;" horiz-adv-x="1139" d="M68 531 Q68 826 232 968 Q369 1086 566 1086 Q785 1086 924 942.5 Q1063 799 1063 546 Q1063 341 1001.5 223.5 Q940 106 822.5 41 Q705 -24 566 -24 Q343 -24 205.5 119 Q68 262 68 531 Z M253 531 Q253 327 342 225.5 Q431 124 566 124 Q700 124 789 226 Q878 328 878 537 Q878 734 788.5 835.5 Q699 937 566 937 Q431 937 342 836 Q253 735 253 531 Z M283 1194 L404 1474 L638 1474 L427 1194 L283 1194 Z M630 1194 L757 1474 L988 1474 L781 1194 L630 1194 Z " />
<glyph glyph-name="Racute" unicode="&#x154;" horiz-adv-x="1479" d="M161 0 L161 1466 L811 1466 Q1007 1466 1109 1426.5 Q1211 1387 1272 1287 Q1333 1187 1333 1066 Q1333 910 1232 803 Q1131 696 920 667 Q997 630 1037 594 Q1122 516 1198 399 L1453 0 L1209 0 L1015 305 Q930 437 875 507 Q820 577 776.5 605 Q733 633 688 644 Q655 651 580 651 L355 651 L355 0 L161 0 Z M355 819 L772 819 Q905 819 980 846.5 Q1055 874 1094 934.5 Q1133 995 1133 1066 Q1133 1170 1057.5 1237 Q982 1304 819 1304 L355 1304 L355 819 Z M503 1556 L636 1836 L872 1836 L652 1556 L503 1556 Z " />
<glyph glyph-name="racute" unicode="&#x155;" horiz-adv-x="682" d="M133 0 L133 1062 L295 1062 L295 901 Q357 1014 409.5 1050 Q462 1086 525 1086 Q616 1086 710 1028 L648 861 Q582 900 516 900 Q457 900 410 864.5 Q363 829 343 766 Q313 670 313 556 L313 0 L133 0 Z M242 1194 L375 1474 L611 1474 L391 1194 L242 1194 Z " />
<glyph glyph-name="Rcaron" unicode="&#x158;" horiz-adv-x="1479" d="M161 0 L161 1466 L811 1466 Q1007 1466 1109 1426.5 Q1211 1387 1272 1287 Q1333 1187 1333 1066 Q1333 910 1232 803 Q1131 696 920 667 Q997 630 1037 594 Q1122 516 1198 399 L1453 0 L1209 0 L1015 305 Q930 437 875 507 Q820 577 776.5 605 Q733 633 688 644 Q655 651 580 651 L355 651 L355 0 L161 0 Z M355 819 L772 819 Q905 819 980 846.5 Q1055 874 1094 934.5 Q1133 995 1133 1066 Q1133 1170 1057.5 1237 Q982 1304 819 1304 L355 1304 L355 819 Z M649 1660 L759 1830 L963 1830 L738 1550 L546 1550 L330 1830 L536 1830 L649 1660 Z " />
<glyph glyph-name="rcaron" unicode="&#x159;" horiz-adv-x="682" d="M133 0 L133 1062 L295 1062 L295 901 Q357 1014 409.5 1050 Q462 1086 525 1086 Q616 1086 710 1028 L648 861 Q582 900 516 900 Q457 900 410 864.5 Q363 829 343 766 Q313 670 313 556 L313 0 L133 0 Z M379 1304 L489 1474 L693 1474 L468 1194 L276 1194 L60 1474 L266 1474 L379 1304 Z " />
<glyph glyph-name="Sacute" unicode="&#x15a;" horiz-adv-x="1366" d="M92 471 L275 487 Q288 377 335.5 306.5 Q383 236 483 192.5 Q583 149 708 149 Q819 149 904 182 Q989 215 1030.5 272.5 Q1072 330 1072 398 Q1072 467 1032 518.5 Q992 570 900 605 Q841 628 639 676.5 Q437 725 356 768 Q251 823 199.5 904.5 Q148 986 148 1087 Q148 1198 211 1294.5 Q274 1391 395 1441 Q516 1491 664 1491 Q827 1491 951.5 1438.5 Q1076 1386 1143 1284 Q1210 1182 1215 1053 L1029 1039 Q1014 1178 927.5 1249 Q841 1320 672 1320 Q496 1320 415.5 1255.5 Q335 1191 335 1100 Q335 1021 392 970 Q448 919 684.5 865.5 Q921 812 1009 772 Q1137 713 1198 622.5 Q1259 532 1259 414 Q1259 297 1192 193.5 Q1125 90 999.5 32.5 Q874 -25 717 -25 Q518 -25 383.5 33 Q249 91 172.5 207.5 Q96 324 92 471 Z M492 1556 L625 1836 L861 1836 L641 1556 L492 1556 Z " />
<glyph glyph-name="sacute" unicode="&#x15b;" horiz-adv-x="1024" d="M63 317 L241 345 Q256 238 324.5 181 Q393 124 516 124 Q640 124 700 174.5 Q760 225 760 293 Q760 354 707 389 Q670 413 523 450 Q325 500 248.5 536.5 Q172 573 132.5 637.5 Q93 702 93 780 Q93 851 125.5 911.5 Q158 972 214 1012 Q256 1043 328.5 1064.5 Q401 1086 484 1086 Q609 1086 703.5 1050 Q798 1014 843 952.5 Q888 891 905 788 L729 764 Q717 846 659.5 892 Q602 938 497 938 Q373 938 320 897 Q267 856 267 801 Q267 766 289 738 Q311 709 358 690 Q385 680 517 644 Q708 593 783.5 560.5 Q859 528 902 466 Q945 404 945 312 Q945 222 892.5 142.5 Q840 63 741 19.5 Q642 -24 517 -24 Q310 -24 201.5 62 Q93 148 63 317 Z M394 1194 L527 1474 L763 1474 L543 1194 L394 1194 Z " />
<glyph glyph-name="uni0162" unicode="&#x162;" horiz-adv-x="1251" d="M531 0 L531 1293 L48 1293 L48 1466 L1210 1466 L1210 1293 L725 1293 L725 0 L531 0 Z M516 -154 L568 23 L702 23 L669 -84 Q754 -94 797 -136.5 Q840 -179 840 -231 Q840 -306 768 -363.5 Q696 -421 551 -421 Q469 -421 407 -409 L418 -292 Q482 -296 512 -296 Q606 -296 644 -270 Q673 -250 673 -221 Q673 -203 661.5 -189 Q650 -175 619 -165 Q588 -155 516 -154 Z " />
<glyph glyph-name="uni0163" unicode="&#x163;" horiz-adv-x="569" d="M528 161 L554 2 Q478 -14 418 -14 Q320 -14 266 17 Q212 48 190 98.5 Q168 149 168 311 L168 922 L36 922 L36 1062 L168 1062 L168 1325 L347 1433 L347 1062 L528 1062 L528 922 L347 922 L347 301 Q347 224 356.5 202 Q366 180 387.5 167 Q409 154 449 154 Q479 154 528 161 Z M276 -154 L328 23 L462 23 L429 -84 Q514 -94 557 -136.5 Q600 -179 600 -231 Q600 -306 528 -363.5 Q456 -421 311 -421 Q229 -421 167 -409 L178 -292 Q242 -296 272 -296 Q366 -296 404 -270 Q433 -250 433 -221 Q433 -203 421.5 -189 Q410 -175 379 -165 Q348 -155 276 -154 Z " />
<glyph glyph-name="Tcaron" unicode="&#x164;" horiz-adv-x="1251" d="M531 0 L531 1293 L48 1293 L48 1466 L1210 1466 L1210 1293 L725 1293 L725 0 L531 0 Z M630 1660 L740 1830 L944 1830 L719 1550 L527 1550 L311 1830 L517 1830 L630 1660 Z " />
<glyph glyph-name="tcaron" unicode="&#x165;" horiz-adv-x="768" d="M581 1281 L581 1466 L765 1466 L765 1281 Q765 1180 729 1117.5 Q693 1055 615 1021 L570 1089 Q621 1112 645.5 1155.5 Q670 1199 672 1281 L581 1281 Z M527 161 L553 2 Q477 -14 417 -14 Q319 -14 265 17 Q211 48 189 98.5 Q167 149 167 311 L167 922 L35 922 L35 1062 L167 1062 L167 1325 L346 1433 L346 1062 L527 1062 L527 922 L346 922 L346 301 Q346 224 355.5 202 Q365 180 386.5 167 Q408 154 448 154 Q478 154 527 161 Z " />
<glyph glyph-name="Uring" unicode="&#x16e;" horiz-adv-x="1479" d="M1120 1466 L1314 1466 L1314 619 Q1314 398 1264 268 Q1214 138 1083.5 56.5 Q953 -25 741 -25 Q535 -25 404 46 Q273 117 217 251.5 Q161 386 161 619 L161 1466 L355 1466 L355 620 Q355 429 390.5 338.5 Q426 248 512.5 199 Q599 150 724 150 Q938 150 1029 247 Q1120 344 1120 620 L1120 1466 Z M556 1656 Q556 1729 609.5 1782 Q663 1835 736 1835 Q810 1835 863 1781.5 Q916 1728 916 1652 Q916 1575 863 1522 Q810 1469 737 1469 Q662 1469 609 1522.5 Q556 1576 556 1656 Z M632 1655 Q632 1608 663.5 1576 Q695 1544 738 1544 Q781 1544 812.5 1576 Q844 1608 844 1653 Q844 1698 813 1730 Q782 1762 738 1762 Q695 1762 663.5 1730.5 Q632 1699 632 1655 Z " />
<glyph glyph-name="uring" unicode="&#x16f;" horiz-adv-x="1139" d="M831 0 L831 156 Q707 -24 494 -24 Q400 -24 318.5 12 Q237 48 197.5 102.5 Q158 157 142 236 Q131 289 131 404 L131 1062 L311 1062 L311 473 Q311 332 322 283 Q339 212 394 171.5 Q449 131 530 131 Q611 131 682 172.5 Q753 214 782.5 285.5 Q812 357 812 493 L812 1062 L992 1062 L992 0 L831 0 Z M382 1338 Q382 1411 435.5 1464 Q489 1517 562 1517 Q636 1517 689 1463.5 Q742 1410 742 1334 Q742 1257 689 1204 Q636 1151 563 1151 Q488 1151 435 1204.5 Q382 1258 382 1338 Z M458 1337 Q458 1290 489.5 1258 Q521 1226 564 1226 Q607 1226 638.5 1258 Q670 1290 670 1335 Q670 1380 639 1412 Q608 1444 564 1444 Q521 1444 489.5 1412.5 Q458 1381 458 1337 Z " />
<glyph glyph-name="Uhungarumlaut" unicode="&#x170;" horiz-adv-x="1479" d="M1120 1466 L1314 1466 L1314 619 Q1314 398 1264 268 Q1214 138 1083.5 56.5 Q953 -25 741 -25 Q535 -25 404 46 Q273 117 217 251.5 Q161 386 161 619 L161 1466 L355 1466 L355 620 Q355 429 390.5 338.5 Q426 248 512.5 199 Q599 150 724 150 Q938 150 1029 247 Q1120 344 1120 620 L1120 1466 Z M465 1556 L586 1836 L820 1836 L609 1556 L465 1556 Z M812 1556 L939 1836 L1170 1836 L963 1556 L812 1556 Z " />
<glyph glyph-name="uhungarumlaut" unicode="&#x171;" horiz-adv-x="1139" d="M831 0 L831 156 Q707 -24 494 -24 Q400 -24 318.5 12 Q237 48 197.5 102.5 Q158 157 142 236 Q131 289 131 404 L131 1062 L311 1062 L311 473 Q311 332 322 283 Q339 212 394 171.5 Q449 131 530 131 Q611 131 682 172.5 Q753 214 782.5 285.5 Q812 357 812 493 L812 1062 L992 1062 L992 0 L831 0 Z M238 1194 L359 1474 L593 1474 L382 1194 L238 1194 Z M585 1194 L712 1474 L943 1474 L736 1194 L585 1194 Z " />
<glyph glyph-name="Zacute" unicode="&#x179;" horiz-adv-x="1251" d="M41 0 L41 180 L792 1119 Q872 1219 944 1293 L126 1293 L126 1466 L1176 1466 L1176 1293 L353 276 L264 173 L1200 173 L1200 0 L41 0 Z M473 1556 L606 1836 L842 1836 L622 1556 L473 1556 Z " />
<glyph glyph-name="zacute" unicode="&#x17a;" horiz-adv-x="1024" d="M40 0 L40 146 L716 922 Q601 916 513 916 L80 916 L80 1062 L948 1062 L948 943 L373 269 L262 146 Q383 155 489 155 L980 155 L980 0 L40 0 Z M391 1194 L524 1474 L760 1474 L540 1194 L391 1194 Z " />
<glyph glyph-name="Zdotaccent" unicode="&#x17b;" horiz-adv-x="1251" d="M41 0 L41 180 L792 1119 Q872 1219 944 1293 L126 1293 L126 1466 L1176 1466 L1176 1293 L353 276 L264 173 L1200 173 L1200 0 L41 0 Z M533 1556 L533 1780 L756 1780 L756 1556 L533 1556 Z " />
<glyph glyph-name="zdotaccent" unicode="&#x17c;" horiz-adv-x="1024" d="M40 0 L40 146 L716 922 Q601 916 513 916 L80 916 L80 1062 L948 1062 L948 943 L373 269 L262 146 Q383 155 489 155 L980 155 L980 0 L40 0 Z M398 1194 L398 1418 L621 1418 L621 1194 L398 1194 Z " />
<glyph glyph-name="Gamma" unicode="&#x393;" horiz-adv-x="1128" d="M164 1466 L1080 1466 L1080 1293 L358 1293 L358 0 L164 0 L164 1466 Z " />
<glyph glyph-name="Theta" unicode="&#x398;" horiz-adv-x="1593" d="M96 714 Q96 1080 293 1286 Q490 1492 798 1492 Q1107 1492 1302.5 1282.5 Q1498 1073 1498 731 Q1498 391 1301 183 Q1104 -25 797 -25 Q576 -25 409.5 85.5 Q243 196 169.5 369.5 Q96 543 96 714 Z M296 711 Q296 460 432 300.5 Q568 141 796 141 Q1020 141 1159 298.5 Q1298 456 1298 732 Q1298 1012 1158 1168.5 Q1018 1325 799 1325 Q584 1325 440 1178 Q296 1031 296 711 Z M507 647 L507 819 L1087 819 L1087 647 L507 647 Z " />
<glyph glyph-name="Phi" unicode="&#x3a6;" horiz-adv-x="1634" d="M720 1510 L914 1510 L914 1329 Q1222 1310 1385.5 1149 Q1549 988 1549 749 Q1549 481 1372 326 Q1195 171 914 161 L914 -53 L720 -53 L720 161 Q431 172 258 331.5 Q85 491 85 740 Q85 903 160 1035 Q235 1167 372 1243 Q509 1319 720 1329 L720 1510 Z M720 1161 Q514 1155 400.5 1048 Q287 941 287 741 Q287 539 411 434 Q535 329 720 326 L720 1161 Z M914 326 Q1119 332 1235 441 Q1351 550 1351 744 Q1351 928 1240 1044.5 Q1129 1161 914 1161 L914 326 Z " />
<glyph glyph-name="alpha" unicode="&#x3b1;" horiz-adv-x="1184" d="M923 1062 L1107 1062 Q1037 842 978 531 Q1048 145 1107 0 L928 0 Q885 100 863 194 Q780 -24 516 -24 Q316 -24 194 126 Q72 276 72 533 Q72 797 194.5 941.5 Q317 1086 519 1086 Q644 1086 723 1035.5 Q802 985 870 882 Q877 917 923 1062 Z M549 937 Q420 937 345 833 Q270 729 270 533 Q270 342 341 233 Q412 124 539 124 Q663 124 746 231.5 Q829 339 829 541 Q829 737 751.5 837 Q674 937 549 937 Z " />
<glyph glyph-name="delta" unicode="&#x3b4;" horiz-adv-x="1140" d="M174 1466 L975 1466 L975 1320 L415 1320 Q515 1218 728 1071 Q918 939 993 826 Q1068 713 1068 520 Q1068 261 928.5 118.5 Q789 -24 565 -24 Q320 -24 196 136 Q72 296 72 516 Q72 772 203 906.5 Q334 1041 516 1048 Q423 1113 174 1336 L174 1466 Z M256 514 Q256 344 345.5 234 Q435 124 574 124 Q696 124 789.5 218 Q883 312 883 515 Q883 703 794 806 Q705 909 570 909 Q421 909 338.5 793 Q256 677 256 514 Z " />
<glyph glyph-name="epsilon" unicode="&#x3b5;" horiz-adv-x="913" d="M829 942 L700 838 Q577 931 470 931 Q382 931 341.5 884 Q301 837 301 783 Q301 713 361 666.5 Q421 620 537 620 Q552 620 587 621 L587 470 Q555 471 539 471 Q396 471 340.5 416 Q285 361 285 292 Q285 221 341 172.5 Q397 124 474 124 Q615 124 738 255 L867 146 Q707 -24 469 -24 Q282 -24 190 71 Q98 166 98 292 Q98 473 274 549 Q127 632 127 778 Q127 897 214 991.5 Q301 1086 481 1086 Q687 1086 829 942 Z " />
<glyph glyph-name="sigma" unicode="&#x3c3;" horiz-adv-x="1264" d="M1219 1062 L1219 916 L930 916 Q1063 792 1063 530 Q1063 245 917.5 110.5 Q772 -24 564 -24 Q348 -24 208 116 Q68 256 68 531 Q68 814 213.5 950 Q359 1086 564 1086 Q639 1086 734 1062 L1219 1062 Z M561 937 Q430 937 341.5 835 Q253 733 253 530 Q253 328 339.5 226 Q426 124 564 124 Q709 124 794.5 230.5 Q880 337 880 531 Q880 708 801.5 822.5 Q723 937 561 937 Z " />
<glyph glyph-name="tau" unicode="&#x3c4;" horiz-adv-x="809" d="M506 916 L506 0 L326 0 L326 916 L46 916 L46 1062 L762 1062 L762 916 L506 916 Z " />
<glyph glyph-name="phi" unicode="&#x3c6;" horiz-adv-x="1328" d="M499 1083 L464 927 Q257 858 257 565 Q257 410 338.5 288.5 Q420 167 582 132 L582 792 Q582 898 597 955.5 Q612 1013 665.5 1049.5 Q719 1086 811 1086 Q954 1086 1043.5 1028 Q1133 970 1195 845 Q1257 720 1257 576 Q1257 456 1208 335.5 Q1159 215 1049 114 Q939 13 760 -25 L760 -407 L582 -407 L582 -25 Q396 -25 234 138 Q72 301 72 557 Q72 794 201.5 940.5 Q331 1087 499 1083 Z M760 140 Q887 163 977.5 282 Q1068 401 1068 594 Q1068 773 1002 855 Q936 937 862 937 Q809 937 784.5 900.5 Q760 864 760 740 L760 140 Z " />
<glyph glyph-name="underscoredbl" unicode="&#x2017;" horiz-adv-x="1131" d="M-31 -407 L-31 -277 L1162 -277 L1162 -407 L-31 -407 Z M-31 -665 L-31 -536 L1162 -536 L1162 -665 L-31 -665 Z " />
<glyph glyph-name="exclamdbl" unicode="&#x203c;" horiz-adv-x="1024" d="M231 364 L176 1141 L176 1466 L399 1466 L399 1141 L347 364 L231 364 Z M184 0 L184 205 L391 205 L391 0 L184 0 Z M679 364 L624 1141 L624 1466 L847 1466 L847 1141 L795 364 L679 364 Z M632 0 L632 205 L839 205 L839 0 L632 0 Z " />
<glyph glyph-name="uni207F" unicode="&#x207f;" horiz-adv-x="747" d="M82 519 L82 1184 L212 1184 L212 1115 Q253 1156 304.5 1177 Q356 1198 420 1198 Q503 1198 560 1166.5 Q617 1135 642 1084.5 Q667 1034 667 925 L667 519 L526 519 L526 920 Q526 1008 493.5 1042.5 Q461 1077 393 1077 Q312 1077 267.5 1031 Q223 985 223 881 L223 519 L82 519 Z " />
<glyph glyph-name="peseta" unicode="&#x20a7;" horiz-adv-x="2240" d="M51 1466 L513 1466 Q747 1466 870 1337 Q964 1238 977 1064 L1069 1064 L1069 1374 L1251 1373 L1251 1064 L1571 1064 Q1656 1092 1748 1092 Q1937 1092 2055 990 Q2150 908 2154 763 L1967 764 Q1961 847 1909 890.5 Q1857 934 1755 934 Q1653 934 1602.5 894 Q1552 854 1552 808 Q1552 753 1609 717 Q1665 681 1823.5 643 Q1982 605 2051.5 564.5 Q2121 524 2158 456 Q2195 388 2195 313 Q2195 180 2077.5 77 Q1960 -26 1764 -26 Q1639 -26 1560 11 Q1481 48 1412 131 L1411 0 Q1383 -8 1359.5 -12 Q1336 -16 1318 -16 Q1171 -16 1106 62 Q1069 106 1069 208 L1069 919 L967 919 Q936 803 864 728 Q792 653 678 620 Q599 598 404 598 L245 598 L245 0 L51 0 L51 1466 Z M245 1295 L245 767 L377 767 Q537 767 614 792 Q691 817 735 878 Q779 939 779 1031 Q779 1114 743 1174.5 Q707 1235 644.5 1265 Q582 1295 450 1295 L245 1295 Z M1251 919 L1251 264 L1250 233 Q1250 195 1273 173 Q1296 151 1340 151 Q1352 151 1365 153.5 Q1378 156 1392 161 Q1369 208 1360 246 Q1351 284 1350 338 L1532 337 Q1540 238 1604.5 182.5 Q1669 127 1777 127 Q1882 127 1958 188 Q2015 234 2015 294 Q2015 340 1980 372 Q1934 414 1765.5 459.5 Q1597 505 1541 534 Q1455 580 1414.5 640 Q1374 700 1374 778 Q1374 855 1406 918 L1251 919 Z " />
<glyph glyph-name="arrowleft" unicode="&#x2190;" horiz-adv-x="2048" d="M492 876 L568 876 Q509 758 479.5 710.5 Q450 663 373 567 L1968 567 L1968 466 L373 466 Q477 358 571 157 L493 157 Q364 301 271 375.5 Q178 450 79 498 L79 543 Q166 580 263 656 Q360 732 492 876 Z " />
<glyph glyph-name="arrowup" unicode="&#x2191;" horiz-adv-x="1024" d="M153 926 Q298 1059 373.5 1156 Q449 1253 486 1339 L532 1339 Q579 1240 653.5 1147 Q728 1054 872 925 L872 848 Q671 942 563 1045 L563 -429 L462 -429 L462 1045 Q366 969 318.5 939 Q271 909 153 850 L153 926 Z " />
<glyph glyph-name="arrowright" unicode="&#x2192;" horiz-adv-x="2048" d="M1555 876 Q1688 731 1785 655.5 Q1882 580 1968 543 L1968 498 Q1869 450 1776 375.5 Q1683 301 1554 157 L1477 157 Q1571 358 1674 466 L79 466 L79 567 L1674 567 Q1598 664 1568 711 Q1538 758 1479 876 L1555 876 Z " />
<glyph glyph-name="arrowdown" unicode="&#x2193;" horiz-adv-x="1024" d="M153 -16 L153 60 Q272 1 319 -29 Q366 -59 462 -135 L462 1339 L563 1339 L563 -135 Q671 -32 872 62 L872 -15 Q728 -144 653.5 -237 Q579 -330 532 -429 L486 -429 Q449 -343 373.5 -246 Q298 -149 153 -16 Z " />
<glyph glyph-name="arrowboth" unicode="&#x2194;" horiz-adv-x="2048" d="M1968 540 L1968 495 Q1874 452 1783 379 Q1692 306 1562 158 L1482 158 Q1551 330 1676 469 L371 469 Q496 330 565 158 L485 158 Q355 306 264 379 Q173 452 79 495 L79 540 Q173 584 264 656.5 Q355 729 485 878 L565 878 Q496 706 371 567 L1676 567 Q1551 706 1482 878 L1562 878 Q1692 729 1783 656.5 Q1874 584 1968 540 Z " />
<glyph glyph-name="arrowupdn" unicode="&#x2195;" horiz-adv-x="1024" d="M489 1463 L534 1463 Q578 1369 650.5 1277.5 Q723 1186 871 1056 L871 976 Q700 1045 560 1171 L560 -135 Q700 -9 871 59 L871 -20 Q723 -150 650.5 -241.5 Q578 -333 534 -427 L489 -427 Q446 -333 373 -241.5 Q300 -150 152 -20 L152 59 Q323 -9 463 -135 L463 1171 Q323 1045 152 976 L152 1056 Q300 1186 373 1277.5 Q446 1369 489 1463 Z " />
<glyph glyph-name="arrowupdnbse" unicode="&#x21a8;" horiz-adv-x="1024" d="M489 1463 L534 1463 Q578 1369 650.5 1277.5 Q723 1186 871 1056 L871 976 Q700 1045 560 1171 L560 -135 Q700 -9 871 59 L871 -20 Q723 -150 650.5 -241.5 Q578 -333 534 -427 L489 -427 Q446 -333 373 -241.5 Q300 -150 152 -20 L152 59 Q323 -9 463 -135 L463 1171 Q323 1045 152 976 L152 1056 Q300 1186 373 1277.5 Q446 1369 489 1463 Z M154 -522 L871 -522 L871 -620 L154 -620 L154 -522 Z " />
<glyph glyph-name="orthogonal" unicode="&#x221f;" horiz-adv-x="2005" d="M362 1279 L462 1279 L462 100 L1643 100 L1643 0 L362 0 L362 1279 Z " />
<glyph glyph-name="intersection" unicode="&#x2229;" horiz-adv-x="1472" d="M293 0 L158 0 L158 621 Q158 882 165 951 Q177 1076 211 1157 Q245 1238 319.5 1316 Q394 1394 503.5 1443 Q613 1492 737 1492 Q856 1492 963.5 1445.5 Q1071 1399 1151 1319 Q1231 1239 1265.5 1149 Q1300 1059 1311 924 Q1315 872 1315 621 L1315 0 L1181 0 L1181 628 Q1181 855 1175 918 Q1165 1032 1138.5 1099.5 Q1112 1167 1056.5 1226 Q1001 1285 914.5 1323 Q828 1361 736 1361 Q644 1361 554 1321 Q464 1281 406.5 1215.5 Q349 1150 326 1072 Q303 994 296 890 Q293 836 293 628 L293 0 Z " />
<glyph glyph-name="equivalence" unicode="&#x2261;" horiz-adv-x="1195" d="M1082 1085 L114 1085 L114 1252 L1082 1252 L1082 1085 Z M1082 639 L114 639 L114 807 L1082 807 L1082 639 Z M1082 194 L114 194 L114 362 L1082 362 L1082 194 Z " />
<glyph glyph-name="house" unicode="&#x2302;" horiz-adv-x="1237" d="M157 0 L157 634 L618 1153 L1080 634 L1080 0 L157 0 Z M238 81 L999 81 L999 600 L618 1027 L238 600 L238 81 Z " />
<glyph glyph-name="revlogicalnot" unicode="&#x2310;" horiz-adv-x="1196" d="M113 424 L113 1030 L1081 1030 L1081 862 L283 862 L283 424 L113 424 Z " />
<glyph glyph-name="integraltp" unicode="&#x2320;" horiz-adv-x="1237" d="M691 -515 L546 -515 L546 1296 Q546 1515 635.5 1626 Q725 1737 838 1737 Q905 1737 940.5 1704.5 Q976 1672 976 1628 Q976 1588 950.5 1562 Q925 1536 888 1536 Q858 1536 831 1551 Q813 1561 789.5 1597.5 Q766 1634 743 1634 Q726 1634 712 1622 Q702 1614 698 1595 Q691 1562 691 1456 L691 -515 Z " />
<glyph glyph-name="integralbt" unicode="&#x2321;" horiz-adv-x="1237" d="M546 1737 L691 1737 L691 -74 Q691 -293 601.5 -404 Q512 -515 399 -515 Q332 -515 296.5 -482.5 Q261 -450 261 -406 Q261 -366 286.5 -340 Q312 -314 348 -314 Q379 -314 407 -330 Q425 -340 448 -376 Q471 -412 494 -412 Q511 -412 525 -400 Q535 -393 539 -372 Q546 -340 546 -234 L546 1737 Z " />
<glyph glyph-name="SF100000" unicode="&#x2500;" horiz-adv-x="1451" d="M1473 534 L-23 534 L-23 709 L1473 709 L1473 534 Z " />
<glyph glyph-name="SF110000" unicode="&#x2502;" horiz-adv-x="1280" d="M457 -621 L457 1864 L632 1864 L632 -621 L457 -621 Z " />
<glyph glyph-name="SF010000" unicode="&#x250c;" horiz-adv-x="1451" d="M1474 709 L1474 534 L813 534 L813 -621 L638 -621 L638 709 L1474 709 Z " />
<glyph glyph-name="SF030000" unicode="&#x2510;" horiz-adv-x="1451" d="M637 534 L-23 534 L-23 709 L812 709 L812 -621 L637 -621 L637 534 Z " />
<glyph glyph-name="SF020000" unicode="&#x2514;" horiz-adv-x="1451" d="M638 534 L638 1864 L813 1864 L813 709 L1474 709 L1474 534 L638 534 Z " />
<glyph glyph-name="SF040000" unicode="&#x2518;" horiz-adv-x="1451" d="M812 534 L-23 534 L-23 709 L637 709 L637 1864 L812 1864 L812 534 Z " />
<glyph glyph-name="SF080000" unicode="&#x251c;" horiz-adv-x="1451" d="M638 -621 L638 1864 L813 1864 L813 709 L1474 709 L1474 534 L813 534 L813 -621 L638 -621 Z " />
<glyph glyph-name="SF090000" unicode="&#x2524;" horiz-adv-x="1451" d="M637 -621 L637 534 L-23 534 L-23 709 L637 709 L637 1864 L812 1864 L812 -621 L637 -621 Z " />
<glyph glyph-name="SF060000" unicode="&#x252c;" horiz-adv-x="1451" d="M637 534 L-23 534 L-23 709 L1473 709 L1473 534 L812 534 L812 -621 L637 -621 L637 534 Z " />
<glyph glyph-name="SF070000" unicode="&#x2534;" horiz-adv-x="1451" d="M1473 534 L-23 534 L-23 709 L637 709 L637 1864 L812 1864 L812 709 L1473 709 L1473 534 Z " />
<glyph glyph-name="SF050000" unicode="&#x253c;" horiz-adv-x="1451" d="M637 534 L-23 534 L-23 709 L637 709 L637 1864 L812 1864 L812 709 L1473 709 L1473 534 L812 534 L812 -621 L637 -621 L637 534 Z " />
<glyph glyph-name="SF430000" unicode="&#x2550;" horiz-adv-x="1451" d="M1473 724 L-23 724 L-23 899 L1473 899 L1473 724 Z M1473 344 L-23 344 L-23 519 L1473 519 L1473 344 Z " />
<glyph glyph-name="SF240000" unicode="&#x2551;" horiz-adv-x="1451" d="M828 -621 L828 1864 L1003 1864 L1003 -621 L828 -621 Z M448 -621 L448 1864 L623 1864 L623 -621 L448 -621 Z " />
<glyph glyph-name="SF510000" unicode="&#x2552;" horiz-adv-x="1451" d="M638 -621 L638 899 L1474 899 L1474 724 L813 724 L813 519 L1474 519 L1474 344 L813 344 L813 -621 L638 -621 Z " />
<glyph glyph-name="SF520000" unicode="&#x2553;" horiz-adv-x="1451" d="M448 -621 L448 709 L1474 709 L1474 534 L1003 534 L1003 -621 L828 -621 L828 519 L623 519 L623 -621 L448 -621 Z " />
<glyph glyph-name="SF390000" unicode="&#x2554;" horiz-adv-x="1451" d="M623 -621 L448 -621 L448 899 L1473 899 L1473 724 L623 724 L623 -621 Z M1003 344 L1003 -621 L828 -621 L828 519 L1473 519 L1473 344 L1003 344 Z " />
<glyph glyph-name="SF220000" unicode="&#x2555;" horiz-adv-x="1451" d="M637 344 L-23 344 L-23 519 L637 519 L637 724 L-23 724 L-23 899 L812 899 L812 -621 L637 -621 L637 344 Z " />
<glyph glyph-name="SF210000" unicode="&#x2556;" horiz-adv-x="1451" d="M447 -621 L448 534 L-23 534 L-23 709 L1002 709 L1002 -621 L827 -621 L827 534 L622 534 L622 -621 L447 -621 Z " />
<glyph glyph-name="SF250000" unicode="&#x2557;" horiz-adv-x="1451" d="M827 -621 L827 724 L-23 724 L-23 899 L1002 899 L1002 -621 L827 -621 Z M447 344 L-23 344 L-23 519 L622 519 L622 -621 L447 -621 L447 344 Z " />
<glyph glyph-name="SF500000" unicode="&#x2558;" horiz-adv-x="1451" d="M638 344 L638 1864 L813 1864 L813 899 L1474 899 L1474 724 L813 724 L813 519 L1474 519 L1474 344 L638 344 Z " />
<glyph glyph-name="SF490000" unicode="&#x2559;" horiz-adv-x="1451" d="M1474 534 L448 534 L448 1864 L623 1864 L623 709 L828 709 L828 1864 L1003 1864 L1003 709 L1474 709 L1474 534 Z " />
<glyph glyph-name="SF380000" unicode="&#x255a;" horiz-adv-x="1451" d="M623 1864 L623 519 L1473 519 L1473 344 L448 344 L448 1864 L623 1864 Z M1003 899 L1473 899 L1473 724 L828 724 L828 1864 L1003 1864 L1003 899 Z " />
<glyph glyph-name="SF280000" unicode="&#x255b;" horiz-adv-x="1451" d="M812 344 L-23 344 L-23 519 L637 519 L637 724 L-23 724 L-23 899 L637 899 L637 1864 L812 1864 L812 344 Z " />
<glyph glyph-name="SF270000" unicode="&#x255c;" horiz-adv-x="1451" d="M1002 534 L-23 534 L-23 709 L447 709 L447 1864 L622 1864 L622 709 L827 709 L827 1864 L1002 1864 L1002 534 Z " />
<glyph glyph-name="SF260000" unicode="&#x255d;" horiz-adv-x="1451" d="M827 1864 L1002 1864 L1002 344 L-23 344 L-23 519 L827 519 L827 1864 Z M447 899 L447 1864 L622 1864 L622 724 L-23 724 L-23 899 L447 899 Z " />
<glyph glyph-name="SF360000" unicode="&#x255e;" horiz-adv-x="1451" d="M638 -621 L638 1864 L813 1864 L813 899 L1474 899 L1474 724 L813 724 L813 519 L1474 519 L1474 344 L813 344 L813 -621 L638 -621 Z " />
<glyph glyph-name="SF370000" unicode="&#x255f;" horiz-adv-x="1451" d="M828 -621 L828 1864 L1003 1864 L1003 709 L1474 709 L1474 534 L1003 534 L1003 -621 L828 -621 Z M448 -621 L448 1864 L623 1864 L623 -621 L448 -621 Z " />
<glyph glyph-name="SF420000" unicode="&#x2560;" horiz-adv-x="1451" d="M448 -621 L448 1864 L623 1864 L623 -621 L448 -621 Z M828 724 L828 1864 L1003 1864 L1003 899 L1474 899 L1474 724 L828 724 Z M828 -621 L828 519 L1474 519 L1474 344 L1003 344 L1003 -621 L828 -621 Z " />
<glyph glyph-name="SF190000" unicode="&#x2561;" horiz-adv-x="1451" d="M637 344 L-23 344 L-23 519 L638 519 L637 724 L-23 724 L-23 899 L637 899 L637 1864 L812 1864 L812 -621 L637 -621 L637 344 Z " />
<glyph glyph-name="SF200000" unicode="&#x2562;" horiz-adv-x="1451" d="M447 -621 L448 534 L-23 534 L-23 709 L447 709 L447 1864 L622 1864 L622 -621 L447 -621 Z M827 -621 L827 1864 L1002 1864 L1002 -621 L827 -621 Z " />
<glyph glyph-name="SF230000" unicode="&#x2563;" horiz-adv-x="1451" d="M827 -621 L827 1864 L1002 1864 L1002 -621 L827 -621 Z M622 1864 L622 724 L-23 724 L-23 899 L447 899 L447 1864 L622 1864 Z M447 344 L-23 344 L-23 519 L622 519 L622 -621 L447 -621 L447 344 Z " />
<glyph glyph-name="SF470000" unicode="&#x2564;" horiz-adv-x="1451" d="M1473 724 L-23 724 L-23 899 L1473 899 L1473 724 Z M637 344 L-23 344 L-23 519 L1473 519 L1473 344 L812 344 L812 -621 L637 -621 L637 344 Z " />
<glyph glyph-name="SF480000" unicode="&#x2565;" horiz-adv-x="1451" d="M447 -621 L448 534 L-23 534 L-23 709 L1473 709 L1473 534 L1002 534 L1002 -621 L827 -621 L827 519 L622 519 L622 -621 L447 -621 Z " />
<glyph glyph-name="SF410000" unicode="&#x2566;" horiz-adv-x="1451" d="M1473 724 L-23 724 L-23 899 L1473 899 L1473 724 Z M447 344 L-23 344 L-23 519 L622 519 L622 -621 L447 -621 L447 344 Z M827 -621 L827 519 L1473 519 L1473 344 L1002 344 L1002 -621 L827 -621 Z " />
<glyph glyph-name="SF450000" unicode="&#x2567;" horiz-adv-x="1451" d="M1473 724 L-23 724 L-23 899 L637 899 L637 1864 L812 1864 L812 899 L1473 899 L1473 724 Z M1473 344 L-23 344 L-23 519 L1473 519 L1473 344 Z " />
<glyph glyph-name="SF460000" unicode="&#x2568;" horiz-adv-x="1451" d="M1473 534 L-23 534 L-23 709 L447 709 L447 1864 L622 1864 L622 709 L827 709 L827 1864 L1002 1864 L1002 709 L1473 709 L1473 534 Z " />
<glyph glyph-name="SF400000" unicode="&#x2569;" horiz-adv-x="1451" d="M622 724 L-23 724 L-23 899 L447 899 L447 1864 L622 1864 L622 724 Z M1473 724 L827 724 L827 1864 L1002 1864 L1002 899 L1473 899 L1473 724 Z M1473 344 L-23 344 L-23 519 L1473 519 L1473 344 Z " />
<glyph glyph-name="SF540000" unicode="&#x256a;" horiz-adv-x="1451" d="M637 344 L-23 344 L-23 519 L637 519 L637 724 L-23 724 L-23 899 L637 899 L637 1864 L812 1864 L812 899 L1473 899 L1473 724 L812 724 L812 519 L1473 519 L1473 344 L812 344 L812 -621 L637 -621 L637 344 Z " />
<glyph glyph-name="SF530000" unicode="&#x256b;" horiz-adv-x="1451" d="M447 -621 L448 534 L-23 534 L-23 709 L447 709 L447 1864 L622 1864 L622 709 L827 709 L827 1864 L1002 1864 L1002 709 L1473 709 L1473 534 L1002 534 L1002 -621 L827 -621 L827 534 L622 534 L622 -621 L447 -621 Z " />
<glyph glyph-name="SF440000" unicode="&#x256c;" horiz-adv-x="1451" d="M1003 899 L1473 899 L1473 724 L828 724 L828 1864 L1003 1864 L1003 899 Z M447 899 L447 1864 L622 1864 L622 724 L-23 724 L-23 899 L447 899 Z M447 344 L-23 344 L-23 519 L622 519 L622 -621 L447 -621 L447 344 Z M1003 344 L1003 -621 L828 -621 L828 519 L1473 519 L1473 344 L1003 344 Z " />
<glyph glyph-name="upblock" unicode="&#x2580;" horiz-adv-x="1451" d="M1473 621 L-23 621 L-23 1864 L1473 1864 L1473 621 Z " />
<glyph glyph-name="dnblock" unicode="&#x2584;" horiz-adv-x="1451" d="M1473 -621 L-23 -621 L-23 621 L1473 621 L1473 -621 Z " />
<glyph glyph-name="block" unicode="&#x2588;" horiz-adv-x="1451" d="M-23 -621 L-23 1864 L1473 1864 L1473 -621 L-23 -621 Z " />
<glyph glyph-name="lfblock" unicode="&#x258c;" horiz-adv-x="1451" d="M-23 -621 L-23 1864 L725 1864 L725 -621 L-23 -621 Z " />
<glyph glyph-name="rtblock" unicode="&#x2590;" horiz-adv-x="1451" d="M726 -621 L726 1864 L1474 1864 L1474 -621 L726 -621 Z " />
<glyph glyph-name="ltshade" unicode="&#x2591;" horiz-adv-x="1451" d="M102 1864 L227 1864 L227 1739 L102 1739 L102 1864 Z M600 1864 L725 1864 L725 1739 L600 1739 L600 1864 Z M1099 1864 L1224 1864 L1224 1739 L1099 1739 L1099 1864 Z M351 1615 L476 1615 L476 1490 L351 1490 L351 1615 Z M850 1615 L974 1615 L974 1490 L850 1490 L850 1615 Z M1348 1615 L1473 1615 L1473 1490 L1348 1490 L1348 1615 Z M1099 1366 L1224 1366 L1224 1241 L1099 1241 L1099 1366 Z M600 1366 L725 1366 L725 1241 L600 1241 L600 1366 Z M102 1366 L227 1366 L227 1241 L102 1241 L102 1366 Z M1348 1116 L1473 1116 L1473 992 L1348 992 L1348 1116 Z M850 1116 L974 1116 L974 992 L850 992 L850 1116 Z M351 1116 L476 1116 L476 992 L351 992 L351 1116 Z M102 867 L227 867 L227 742 L102 742 L102 867 Z M600 867 L725 867 L725 742 L600 742 L600 867 Z M1099 867 L1224 867 L1224 742 L1099 742 L1099 867 Z M1348 618 L1473 618 L1473 493 L1348 493 L1348 618 Z M850 618 L974 618 L974 493 L850 493 L850 618 Z M351 618 L476 618 L476 493 L351 493 L351 618 Z M102 369 L227 369 L227 244 L102 244 L102 369 Z M600 369 L725 369 L725 244 L600 244 L600 369 Z M1099 369 L1224 369 L1224 244 L1099 244 L1099 369 Z M351 119 L476 119 L476 -5 L351 -5 L351 119 Z M850 119 L974 119 L974 -5 L850 -5 L850 119 Z M1348 119 L1473 119 L1473 -5 L1348 -5 L1348 119 Z M1099 -130 L1224 -130 L1224 -255 L1099 -255 L1099 -130 Z M600 -130 L725 -130 L725 -255 L600 -255 L600 -130 Z M102 -130 L227 -130 L227 -255 L102 -255 L102 -130 Z M351 -379 L476 -379 L476 -504 L351 -504 L351 -379 Z M850 -379 L974 -379 L974 -504 L850 -504 L850 -379 Z M1348 -379 L1473 -379 L1473 -504 L1348 -504 L1348 -379 Z " />
<glyph glyph-name="shade" unicode="&#x2592;" horiz-adv-x="1451" d="M103 1864 L227 1864 L227 1739 L103 1739 L103 1864 Z M352 1864 L476 1864 L476 1739 L352 1739 L352 1864 Z M601 1864 L726 1864 L726 1739 L601 1739 L601 1864 Z M850 1864 L975 1864 L975 1739 L850 1739 L850 1864 Z M1100 1864 L1224 1864 L1224 1739 L1100 1739 L1100 1864 Z M1349 1864 L1473 1864 L1473 1739 L1349 1739 L1349 1864 Z M-22 1615 L103 1615 L103 1490 L-22 1490 L-22 1615 Z M227 1615 L352 1615 L352 1490 L227 1490 L227 1615 Z M476 1615 L601 1615 L601 1490 L476 1490 L476 1615 Z M726 1615 L850 1615 L850 1490 L726 1490 L726 1615 Z M975 1615 L1100 1615 L1100 1490 L975 1490 L975 1615 Z M1224 1615 L1349 1615 L1349 1490 L1224 1490 L1224 1615 Z M103 1366 L227 1366 L227 1241 L103 1241 L103 1366 Z M352 1366 L476 1366 L476 1241 L352 1241 L352 1366 Z M601 1366 L726 1366 L726 1241 L601 1241 L601 1366 Z M850 1366 L975 1366 L975 1241 L850 1241 L850 1366 Z M1100 1366 L1224 1366 L1224 1241 L1100 1241 L1100 1366 Z M1349 1366 L1473 1366 L1473 1241 L1349 1241 L1349 1366 Z M-22 1116 L103 1116 L103 992 L-22 992 L-22 1116 Z M227 1116 L352 1116 L352 992 L227 992 L227 1116 Z M476 1116 L601 1116 L601 992 L476 992 L476 1116 Z M726 1116 L850 1116 L850 992 L726 992 L726 1116 Z M975 1116 L1100 1116 L1100 992 L975 992 L975 1116 Z M1224 1116 L1349 1116 L1349 992 L1224 992 L1224 1116 Z M103 867 L227 867 L227 742 L103 742 L103 867 Z M352 867 L476 867 L476 742 L352 742 L352 867 Z M601 867 L726 867 L726 742 L601 742 L601 867 Z M850 867 L975 867 L975 742 L850 742 L850 867 Z M1100 867 L1224 867 L1224 742 L1100 742 L1100 867 Z M1349 867 L1473 867 L1473 742 L1349 742 L1349 867 Z M-22 618 L103 618 L103 493 L-22 493 L-22 618 Z M476 618 L601 618 L601 493 L476 493 L476 618 Z M726 618 L850 618 L850 493 L726 493 L726 618 Z M975 618 L1100 618 L1100 493 L975 493 L975 618 Z M1224 618 L1349 618 L1349 493 L1224 493 L1224 618 Z M227 618 L352 618 L352 493 L227 493 L227 618 Z M1349 369 L1473 369 L1473 244 L1349 244 L1349 369 Z M1100 369 L1224 369 L1224 244 L1100 244 L1100 369 Z M850 369 L975 369 L975 244 L850 244 L850 369 Z M601 369 L726 369 L726 244 L601 244 L601 369 Z M352 369 L476 369 L476 244 L352 244 L352 369 Z M103 369 L227 369 L227 244 L103 244 L103 369 Z M-22 119 L103 119 L103 -5 L-22 -5 L-22 119 Z M227 119 L352 119 L352 -5 L227 -5 L227 119 Z M476 119 L601 119 L601 -5 L476 -5 L476 119 Z M726 119 L850 119 L850 -5 L726 -5 L726 119 Z M975 119 L1100 119 L1100 -5 L975 -5 L975 119 Z M1224 119 L1349 119 L1349 -5 L1224 -5 L1224 119 Z M1349 -130 L1473 -130 L1473 -255 L1349 -255 L1349 -130 Z M1100 -130 L1224 -130 L1224 -255 L1100 -255 L1100 -130 Z M850 -130 L975 -130 L975 -255 L850 -255 L850 -130 Z M601 -130 L726 -130 L726 -255 L601 -255 L601 -130 Z M352 -130 L476 -130 L476 -255 L352 -255 L352 -130 Z M103 -130 L227 -130 L227 -255 L103 -255 L103 -130 Z M-22 -379 L103 -379 L103 -504 L-22 -504 L-22 -379 Z M227 -379 L352 -379 L352 -504 L227 -504 L227 -379 Z M476 -379 L601 -379 L601 -504 L476 -504 L476 -379 Z M726 -379 L850 -379 L850 -504 L726 -504 L726 -379 Z M975 -379 L1100 -379 L1100 -504 L975 -504 L975 -379 Z M1224 -379 L1349 -379 L1349 -504 L1224 -504 L1224 -379 Z " />
<glyph glyph-name="dkshade" unicode="&#x2593;" horiz-adv-x="1493" d="M1494 1490 L1494 1116 L1370 1116 L1370 992 L1494 992 L1494 618 L1370 618 L1370 493 L1494 493 L1494 119 L1370 119 L1370 -5 L1494 -5 L1494 -379 L1370 -379 L1370 -504 L1494 -504 L1494 -628 L-1 -628 L-1 -255 L124 -255 L124 -130 L-1 -130 L-1 244 L124 244 L124 369 L-1 369 L-1 742 L124 742 L124 867 L-1 867 L-1 1241 L124 1241 L124 1366 L-1 1366 L-1 1739 L124 1739 L124 1864 L248 1864 L248 1739 L373 1739 L373 1864 L497 1864 L497 1739 L622 1739 L622 1864 L747 1864 L747 1739 L871 1739 L871 1864 L996 1864 L996 1739 L1121 1739 L1121 1864 L1245 1864 L1245 1739 L1370 1739 L1370 1864 L1494 1864 L1494 1615 L1370 1615 L1370 1490 L1494 1490 Z M124 1615 L124 1490 L248 1490 L248 1615 L124 1615 Z M373 1615 L373 1490 L497 1490 L497 1615 L373 1615 Z M622 1615 L622 1490 L747 1490 L747 1615 L622 1615 Z M871 1615 L871 1490 L996 1490 L996 1615 L871 1615 Z M1121 1615 L1121 1490 L1245 1490 L1245 1615 L1121 1615 Z M1370 1366 L1245 1366 L1245 1241 L1370 1241 L1370 1366 Z M1121 1366 L996 1366 L996 1241 L1121 1241 L1121 1366 Z M871 1366 L747 1366 L747 1241 L871 1241 L871 1366 Z M622 1366 L497 1366 L497 1241 L622 1241 L622 1366 Z M373 1366 L248 1366 L248 1241 L373 1241 L373 1366 Z M124 1116 L124 992 L248 992 L248 1116 L124 1116 Z M373 1116 L373 992 L497 992 L497 1116 L373 1116 Z M622 1116 L622 992 L747 992 L747 1116 L622 1116 Z M871 1116 L871 992 L996 992 L996 1116 L871 1116 Z M1121 1116 L1121 992 L1245 992 L1245 1116 L1121 1116 Z M373 867 L248 867 L248 742 L373 742 L373 867 Z M497 867 L497 742 L622 742 L622 867 L497 867 Z M747 867 L747 742 L871 742 L871 867 L747 867 Z M996 867 L996 742 L1121 742 L1121 867 L996 867 Z M1245 867 L1245 742 L1370 742 L1370 867 L1245 867 Z M124 618 L124 493 L248 493 L248 618 L124 618 Z M622 618 L622 493 L747 493 L747 618 L622 618 Z M497 493 L497 618 L373 618 L373 493 L497 493 Z M871 618 L871 493 L996 493 L996 618 L871 618 Z M1121 618 L1121 493 L1245 493 L1245 618 L1121 618 Z M1370 244 L1370 369 L1245 369 L1245 244 L1370 244 Z M1121 244 L1121 369 L996 369 L996 244 L1121 244 Z M871 244 L871 369 L747 369 L747 244 L871 244 Z M622 244 L622 369 L497 369 L497 244 L622 244 Z M373 244 L373 369 L248 369 L248 244 L373 244 Z M124 119 L124 -5 L248 -5 L248 119 L124 119 Z M373 119 L373 -5 L497 -5 L497 119 L373 119 Z M622 119 L622 -5 L747 -5 L747 119 L622 119 Z M871 119 L871 -5 L996 -5 L996 119 L871 119 Z M1121 119 L1121 -5 L1245 -5 L1245 119 L1121 119 Z M1370 -255 L1370 -130 L1245 -130 L1245 -255 L1370 -255 Z M1121 -255 L1121 -130 L996 -130 L996 -255 L1121 -255 Z M871 -255 L871 -130 L747 -130 L747 -255 L871 -255 Z M622 -255 L622 -130 L497 -130 L497 -255 L622 -255 Z M373 -255 L373 -130 L248 -130 L248 -255 L373 -255 Z M124 -379 L124 -504 L248 -504 L248 -379 L124 -379 Z M373 -379 L373 -504 L497 -504 L497 -379 L373 -379 Z M622 -379 L622 -504 L747 -504 L747 -379 L622 -379 Z M871 -379 L871 -504 L996 -504 L996 -379 L871 -379 Z M1121 -379 L1121 -504 L1245 -504 L1245 -379 L1121 -379 Z " />
<glyph glyph-name="filledbox" unicode="&#x25a0;" horiz-adv-x="1237" d="M146 944 L1090 944 L1090 0 L146 0 L146 944 Z " />
<glyph glyph-name="filledrect" unicode="&#x25ac;" horiz-adv-x="2048" d="M0 703 L2047 703 L2047 317 L0 317 L0 703 Z " />
<glyph glyph-name="triagup" unicode="&#x25b2;" horiz-adv-x="2027" d="M304 0 L1014 1419 L1724 0 L304 0 Z " />
<glyph glyph-name="triagrt" unicode="&#x25ba;" horiz-adv-x="2027" d="M288 1417 L1739 693 L288 -31 L288 1417 Z " />
<glyph glyph-name="triagdn" unicode="&#x25bc;" horiz-adv-x="2027" d="M1724 1388 L1014 -31 L304 1388 L1724 1388 Z " />
<glyph glyph-name="triaglf" unicode="&#x25c4;" horiz-adv-x="2027" d="M1739 1417 L1739 -31 L288 693 L1739 1417 Z " />
<glyph glyph-name="circle" unicode="&#x25cb;" horiz-adv-x="1237" d="M618 1018 Q729 1018 835 961 Q941 904 1000 798 Q1059 692 1059 578 Q1059 395 930 266 Q801 137 619 137 Q436 137 307 266 Q178 395 178 578 Q178 693 237 798.5 Q296 904 402 961 Q508 1018 618 1018 Z M619 942 Q526 942 439 895 Q352 848 303 760 Q254 672 254 578 Q254 427 361 320 Q468 213 619 213 Q770 213 876.5 320 Q983 427 983 578 Q983 672 934 760 Q885 848 798 895 Q711 942 619 942 Z " />
<glyph glyph-name="invbullet" unicode="&#x25d8;" horiz-adv-x="1237" d="M128 0 L128 980 L1108 980 L1108 0 L128 0 Z M618 692 Q534 692 475 633 Q416 574 416 490 Q416 407 475.5 347.5 Q535 288 618 288 Q702 288 761 347.5 Q820 407 820 490 Q820 574 761 633 Q702 692 618 692 Z " />
<glyph glyph-name="invcircle" unicode="&#x25d9;" horiz-adv-x="1237" d="M42 0 L42 1155 L1197 1155 L1197 0 L42 0 Z M620 1018 Q508 1018 402.5 961 Q297 904 238 798 Q179 692 179 577 Q179 395 308 266 Q437 137 620 137 Q802 137 931 266 Q1060 395 1060 577 Q1060 692 1001 798 Q942 904 836.5 961 Q731 1018 620 1018 Z M620 942 Q711 942 798.5 895 Q886 848 935 760.5 Q984 673 984 577 Q984 426 877.5 319.5 Q771 213 620 213 Q468 213 361.5 319.5 Q255 426 255 577 Q255 673 304 760.5 Q353 848 440.5 895 Q528 942 620 942 Z " />
<glyph glyph-name="smileface" unicode="&#x263a;" horiz-adv-x="2091" d="M1683 518 Q1683 254 1496.5 67.5 Q1310 -119 1046 -119 Q782 -119 595 67.5 Q408 254 408 518 Q408 783 595 969.5 Q782 1156 1046 1156 Q1310 1156 1496.5 969.5 Q1683 783 1683 518 Z M1591 518 Q1591 744 1431.5 903.5 Q1272 1063 1046 1063 Q820 1063 660.5 903.5 Q501 744 501 518 Q501 293 660.5 133.5 Q820 -26 1046 -26 Q1272 -26 1431.5 133.5 Q1591 293 1591 518 Z M882 650 Q882 617 858.5 593 Q835 569 801 569 Q768 569 744 593 Q720 617 720 650 Q720 684 744 707.5 Q768 731 801 731 Q835 731 858.5 707.5 Q882 684 882 650 Z M1371 650 Q1371 617 1347.5 593 Q1324 569 1290 569 Q1257 569 1233 593 Q1209 617 1209 650 Q1209 684 1233 707.5 Q1257 731 1290 731 Q1324 731 1347.5 707.5 Q1371 684 1371 650 Z M752 313 L814 349 Q893 205 1046 205 Q1199 205 1277 349 L1340 313 Q1290 218 1216.5 168 Q1143 118 1046 118 Q948 118 875 168 Q802 218 752 313 Z " />
<glyph glyph-name="invsmileface" unicode="&#x263b;" horiz-adv-x="2155" d="M1715 518 Q1715 254 1528.5 67.5 Q1342 -119 1078 -119 Q814 -119 627 67.5 Q440 254 440 518 Q440 783 627 969.5 Q814 1156 1078 1156 Q1342 1156 1528.5 969.5 Q1715 783 1715 518 Z M914 650 Q914 684 890.5 707.5 Q867 731 833 731 Q800 731 776 707.5 Q752 684 752 650 Q752 617 776 593 Q800 569 833 569 Q867 569 890.5 593 Q914 617 914 650 Z M1403 650 Q1403 684 1379.5 707.5 Q1356 731 1322 731 Q1289 731 1265 707.5 Q1241 684 1241 650 Q1241 617 1265 593 Q1289 569 1322 569 Q1356 569 1379.5 593 Q1403 617 1403 650 Z M784 313 Q834 218 907 168 Q980 118 1078 118 Q1175 118 1248.5 168 Q1322 218 1372 313 L1309 349 Q1231 205 1078 205 Q925 205 846 349 L784 313 Z " />
<glyph glyph-name="sun" unicode="&#x263c;" horiz-adv-x="1877" d="M902 1621 L978 1621 L978 1284 Q1080 1277 1159.5 1245.5 Q1239 1214 1327 1143 L1617 1427 L1669 1374 L1383 1088 Q1456 993 1486 919 Q1524 823 1526 730 L1862 730 L1862 661 L1527 661 Q1508 472 1384 314 L1669 23 L1612 -27 L1329 255 Q1231 183 1158 154.5 Q1085 126 978 114 L978 -223 L902 -223 L902 114 Q790 129 713.5 160 Q637 191 557 252 L263 -26 L212 25 L497 311 Q431 395 397 477 Q363 559 352 665 L16 665 L16 734 L352 734 Q361 840 394 919.5 Q427 999 496 1083 L212 1370 L260 1427 L552 1145 Q653 1215 731.5 1245.5 Q810 1276 902 1284 L902 1621 Z M1450 699 Q1450 911 1299.5 1061 Q1149 1211 937 1211 Q725 1211 575 1061 Q425 911 425 699 Q425 487 575 336.5 Q725 186 937 186 Q1149 186 1299.5 336.5 Q1450 487 1450 699 Z " />
<glyph glyph-name="female" unicode="&#x2640;" horiz-adv-x="1536" d="M796 461 L796 59 L1255 59 L1255 0 L796 0 L796 -439 L737 -439 L737 0 L277 0 L277 59 L737 59 L737 461 Q634 461 511.5 526.5 Q389 592 316.5 717.5 Q244 843 244 983 Q244 1119 313.5 1244 Q383 1369 507 1438 Q631 1507 768 1507 Q904 1507 1028.5 1437.5 Q1153 1368 1222 1243.5 Q1291 1119 1291 983 Q1291 774 1147.5 622.5 Q1004 471 796 461 Z M767 1451 Q649 1451 536.5 1390.5 Q424 1330 361 1217 Q298 1104 298 982 Q298 787 435.5 649.5 Q573 512 767 512 Q962 512 1099.5 649.5 Q1237 787 1237 982 Q1237 1104 1174 1217 Q1111 1330 998.5 1390.5 Q886 1451 767 1451 Z " />
<glyph glyph-name="male" unicode="&#x2642;" horiz-adv-x="1536" d="M1216 1620 L1252 1604 L1415 938 L1358 923 L1216 1504 L858 736 Q1006 661 1082 534 Q1158 407 1158 262 Q1158 126 1089 1.5 Q1020 -123 895.5 -192.5 Q771 -262 634 -262 Q498 -262 373.5 -192.5 Q249 -123 180 1.5 Q111 126 111 262 Q111 479 264.5 632 Q418 785 637 785 Q715 785 803 758 L1163 1529 L626 1264 L602 1317 L1216 1620 Z M634 731 Q516 731 403.5 670.5 Q291 610 228 497 Q165 384 165 262 Q165 67 302.5 -70.5 Q440 -208 634 -208 Q829 -208 966.5 -70.5 Q1104 67 1104 262 Q1104 384 1041 497 Q978 610 865.5 670.5 Q753 731 634 731 Z " />
<glyph glyph-name="spade" unicode="&#x2660;" horiz-adv-x="1088" d="M545 1231 Q571 1123 625 1038 Q679 953 817.5 827.5 Q956 702 993 635 Q1030 568 1030 499 Q1030 403 966 339 Q902 275 810 275 Q732 275 668.5 323.5 Q605 372 556 465 Q557 318 594.5 231.5 Q632 145 714.5 95.5 Q797 46 934 37 L941 0 L148 0 L156 37 Q340 37 441.5 144.5 Q543 252 539 465 Q494 370 427.5 322.5 Q361 275 277 275 Q187 275 122.5 340 Q58 405 58 496 Q58 569 91 628 Q136 710 237 793 Q338 876 386 930 Q459 1013 492.5 1078 Q526 1143 545 1231 Z " />
<glyph glyph-name="club" unicode="&#x2663;" horiz-adv-x="1344" d="M1098 0 L250 0 L258 34 Q423 69 477 103 Q558 154 609.5 254 Q661 354 661 465 Q661 481 660 511 Q599 387 511.5 330 Q424 273 333 273 Q217 273 136 354 Q55 435 55 553 Q55 669 129 748.5 Q203 828 297 828 Q357 828 460 777 Q418 847 405.5 882.5 Q393 918 393 959 Q393 1073 472 1152 Q551 1231 669 1231 Q787 1231 867.5 1152 Q948 1073 948 964 Q948 875 879 777 Q963 817 980 822 Q1007 830 1041 830 Q1141 830 1214.5 751.5 Q1288 673 1288 557 Q1288 437 1207.5 355.5 Q1127 274 1014 274 Q951 274 884.5 304.5 Q818 335 769 386 Q734 423 682 511 Q686 352 730.5 259.5 Q775 167 867 106 Q929 65 1090 34 L1098 0 Z " />
<glyph glyph-name="heart" unicode="&#x2665;" horiz-adv-x="1216" d="M610 -24 Q579 94 521.5 197.5 Q464 301 299 519 Q178 679 150 722 Q104 792 83.5 850.5 Q63 909 63 969 Q63 1080 137 1155 Q211 1230 320 1230 Q430 1230 511 1152 Q572 1094 610 979 Q643 1092 703 1151 Q786 1231 895 1231 Q1003 1231 1078 1156.5 Q1153 1082 1153 979 Q1153 889 1109 791.5 Q1065 694 939 536 Q775 329 700 196 Q641 91 610 -24 Z " />
<glyph glyph-name="diamond" unicode="&#x2666;" horiz-adv-x="1045" d="M521 1231 Q610 1080 740 907 Q890 707 982 604 Q908 526 740 302 Q604 120 522 -24 Q495 28 448 97 Q367 217 247 376 Q221 411 64 604 Q165 719 324 932 Q442 1090 521 1231 Z " />
<glyph glyph-name="musicalnote" unicode="&#x266a;" horiz-adv-x="1024" d="M486 1363 L524 1363 Q696 1363 751 1349 Q830 1329 890 1272 Q935 1230 961 1153.5 Q987 1077 987 975 L987 872 L888 872 L888 915 Q888 983 859.5 1030.5 Q831 1078 775 1103 Q702 1135 613 1135 L585 1135 L585 300 Q585 179 553 111.5 Q521 44 443 3.5 Q365 -37 273 -37 Q164 -37 100.5 24.5 Q37 86 37 186 Q37 291 113 362.5 Q189 434 312 434 Q390 434 486 388 L486 1363 Z " />
<glyph glyph-name="musicalnotedbl" unicode="&#x266b;" horiz-adv-x="1536" d="M534 1271 L1330 1519 L1330 411 Q1330 287 1298.5 224 Q1267 161 1191.5 120 Q1116 79 1021 79 Q912 79 847 141.5 Q782 204 782 303 Q782 403 859 475.5 Q936 548 1058 548 Q1098 548 1128.5 541 Q1159 534 1228 505 L1228 1229 L633 1044 L633 208 Q633 87 601 19.5 Q569 -48 491 -88 Q413 -128 321 -128 Q212 -128 148.5 -66.5 Q85 -5 85 94 Q85 199 161 270.5 Q237 342 360 342 Q438 342 534 296 L534 1271 Z " />
<glyph glyph-name="IJ" unicode="&#x132;" horiz-adv-x="1505" d="M191 0 L191 1466 L385 1466 L385 0 L191 0 Z M594 416 L769 440 Q776 272 832 210 Q888 148 987 148 Q1060 148 1113 181.5 Q1166 215 1186 272.5 Q1206 330 1206 456 L1206 1466 L1400 1466 L1400 467 Q1400 283 1355.5 182 Q1311 81 1214.5 28 Q1118 -25 988 -25 Q795 -25 692.5 86 Q590 197 594 416 Z " />
<glyph glyph-name="ij" unicode="&#x133;" horiz-adv-x="909" d="M136 1259 L136 1466 L316 1466 L316 1259 L136 1259 Z M136 0 L136 1062 L316 1062 L316 0 L136 0 Z M612 1257 L612 1466 L792 1466 L792 1257 L612 1257 Z M384 -412 L418 -259 Q472 -273 503 -273 Q558 -273 585 -236.5 Q612 -200 612 -54 L612 1062 L792 1062 L792 -58 Q792 -254 741 -331 Q676 -431 525 -431 Q452 -431 384 -412 Z " />
<glyph glyph-name="napostrophe" unicode="&#x149;" horiz-adv-x="1237" d="M375 0 L375 1062 L537 1062 L537 911 Q654 1086 875 1086 Q971 1086 1051.5 1051.5 Q1132 1017 1172 961 Q1212 905 1228 828 Q1238 778 1238 653 L1238 0 L1058 0 L1058 646 Q1058 756 1037 810.5 Q1016 865 962.5 897.5 Q909 930 837 930 Q722 930 638.5 857 Q555 784 555 580 L555 0 L375 0 Z M124 1272 L124 1481 L317 1481 L317 1316 Q317 1182 286 1123 Q243 1042 152 1001 L108 1072 Q162 1094 188.5 1141.5 Q215 1189 218 1272 L124 1272 Z " />
<glyph glyph-name="minute" unicode="&#x2032;" horiz-adv-x="384" d="M128 947 L140 1221 L192 1466 L398 1466 L345 1221 L240 947 L128 947 Z " />
<glyph glyph-name="second" unicode="&#x2033;" horiz-adv-x="725" d="M128 947 L140 1221 L192 1466 L398 1466 L345 1221 L240 947 L128 947 Z M411 947 L423 1221 L475 1466 L681 1466 L628 1221 L523 947 L411 947 Z " />
<glyph glyph-name="uni2105" unicode="&#x2105;" horiz-adv-x="1813" d="M620 1004 L743 988 Q723 860 639.5 788 Q556 716 434 716 Q282 716 189.5 815.5 Q97 915 97 1101 Q97 1293 190 1392 Q283 1491 435 1491 Q557 1491 633.5 1430 Q710 1369 731 1257 L609 1237 Q592 1312 547.5 1350 Q503 1388 440 1388 Q345 1388 285.5 1320 Q226 1252 226 1104 Q226 955 283.5 887 Q341 819 433 819 Q507 819 556.5 864 Q606 909 620 1004 Z M408 -54 L1210 1491 L1356 1491 L557 -54 L408 -54 Z M1021 371 Q1021 558 1117 658.5 Q1213 759 1369 759 Q1523 759 1620 658.5 Q1717 558 1717 382 Q1717 184 1621.5 83.5 Q1526 -17 1369 -17 Q1214 -17 1117.5 83 Q1021 183 1021 371 Z M1150 371 Q1150 229 1212.5 158 Q1275 87 1369 87 Q1463 87 1525.5 158 Q1588 229 1588 375 Q1588 513 1525.5 584 Q1463 655 1369 655 Q1275 655 1212.5 584 Q1150 513 1150 371 Z " />
<glyph glyph-name="uni2113" unicode="&#x2113;" horiz-adv-x="662" d="M15 422 L192 657 L192 1112 Q192 1338 253.5 1414.5 Q315 1491 426 1491 Q522 1491 584 1426 Q646 1361 646 1252 Q646 1160 586 1027.5 Q526 895 361 665 L361 250 Q361 161 375.5 139.5 Q390 118 417 118 Q443 118 477 134.5 Q511 151 616 225 L616 63 Q505 -24 391 -24 Q299 -24 245.5 33 Q192 90 192 217 L192 442 L113 344 L15 422 Z M361 899 Q459 1068 482.5 1132 Q506 1196 506 1251 Q506 1312 480 1346 Q460 1371 430 1371 Q399 1371 384 1345 Q361 1303 361 1126 L361 899 Z " />
<glyph glyph-name="H22073" unicode="&#x25a1;" horiz-adv-x="1237" d="M146 944 L1090 944 L1090 0 L146 0 L146 944 Z M222 868 L222 76 L1014 76 L1014 868 L222 868 Z " />
<glyph glyph-name="H18543" unicode="&#x25aa;" horiz-adv-x="726" d="M594 908 L594 445 L131 445 L131 908 L594 908 Z " />
<glyph glyph-name="H18551" unicode="&#x25ab;" horiz-adv-x="726" d="M594 908 L594 445 L131 445 L131 908 L594 908 Z M518 832 L207 832 L207 521 L518 521 L518 832 Z " />
<glyph glyph-name="H18533" unicode="&#x25cf;" horiz-adv-x="1237" d="M619 1018 Q729 1018 835 961 Q941 904 1000 798 Q1059 692 1059 578 Q1059 395 930 266 Q801 137 619 137 Q436 137 307 266 Q178 395 178 578 Q178 693 237 798.5 Q296 904 402 961 Q508 1018 619 1018 Z " />
<glyph glyph-name="openbullet" unicode="&#x25e6;" horiz-adv-x="726" d="M363 928 Q467 928 540.5 854.5 Q614 781 614 677 Q614 573 540.5 499.5 Q467 426 363 426 Q259 426 185.5 499.5 Q112 573 112 677 Q112 781 185 854.5 Q258 928 363 928 Z M363 852 Q290 852 239 800.5 Q188 749 188 677 Q188 604 239.5 553 Q291 502 363 502 Q435 502 486.5 553 Q538 604 538 677 Q538 749 487 800.5 Q436 852 363 852 Z " />
<glyph glyph-name="Amacron" unicode="&#x100;" horiz-adv-x="1366" d="M-3 0 L560 1466 L769 1466 L1369 0 L1148 0 L977 444 L364 444 L203 0 L-3 0 Z M420 602 L917 602 L764 1008 Q694 1193 660 1312 Q632 1171 581 1032 L420 602 Z M359 1578 L359 1726 L983 1726 L983 1578 L359 1578 Z " />
<glyph glyph-name="amacron" unicode="&#x101;" horiz-adv-x="1139" d="M828 131 Q728 46 635.5 11 Q543 -24 437 -24 Q262 -24 168 61.5 Q74 147 74 280 Q74 358 109.5 422.5 Q145 487 202.5 526 Q260 565 332 585 Q385 599 492 612 Q710 638 813 674 Q814 711 814 721 Q814 831 763 876 Q694 937 558 937 Q431 937 370.5 892.5 Q310 848 281 735 L105 759 Q129 872 184 941.5 Q239 1011 343 1048.5 Q447 1086 584 1086 Q720 1086 805 1054 Q890 1022 930 973.5 Q970 925 986 851 Q995 805 995 685 L995 445 Q995 194 1006.5 127.5 Q1018 61 1052 0 L864 0 Q836 56 828 131 Z M813 533 Q715 493 519 465 Q408 449 362 429 Q316 409 291 370.5 Q266 332 266 285 Q266 213 320.5 165 Q375 117 480 117 Q584 117 665 162.5 Q746 208 784 287 Q813 348 813 467 L813 533 Z M274 1227 L274 1375 L898 1375 L898 1227 L274 1227 Z " />
<glyph glyph-name="Ccircumflex" unicode="&#x108;" horiz-adv-x="1479" d="M1204 514 L1398 465 Q1337 226 1178.5 100.5 Q1020 -25 791 -25 Q554 -25 405.5 71.5 Q257 168 179.5 351 Q102 534 102 744 Q102 973 189.5 1143.5 Q277 1314 438.5 1402.5 Q600 1491 794 1491 Q1014 1491 1164 1379 Q1314 1267 1373 1064 L1182 1019 Q1131 1179 1034 1252 Q937 1325 790 1325 Q621 1325 507.5 1244 Q394 1163 348 1026.5 Q302 890 302 745 Q302 558 356.5 418.5 Q411 279 526 210 Q641 141 775 141 Q938 141 1051 235 Q1164 329 1204 514 Z M776 1720 L663 1550 L457 1550 L673 1830 L865 1830 L1090 1550 L886 1550 L776 1720 Z " />
<glyph glyph-name="ccircumflex" unicode="&#x109;" horiz-adv-x="1024" d="M828 389 L1005 366 Q976 183 856.5 79.5 Q737 -24 563 -24 Q345 -24 212.5 118.5 Q80 261 80 527 Q80 699 137 828 Q194 957 310.5 1021.5 Q427 1086 564 1086 Q737 1086 847 998.5 Q957 911 988 750 L813 723 Q788 830 724.5 884 Q661 938 571 938 Q435 938 350 840.5 Q265 743 265 532 Q265 318 347 221 Q429 124 561 124 Q667 124 738 189 Q809 254 828 389 Z M594 1364 L481 1194 L275 1194 L491 1474 L683 1474 L908 1194 L704 1194 L594 1364 Z " />
<glyph glyph-name="Cdotaccent" unicode="&#x10a;" horiz-adv-x="1479" d="M1204 514 L1398 465 Q1337 226 1178.5 100.5 Q1020 -25 791 -25 Q554 -25 405.5 71.5 Q257 168 179.5 351 Q102 534 102 744 Q102 973 189.5 1143.5 Q277 1314 438.5 1402.5 Q600 1491 794 1491 Q1014 1491 1164 1379 Q1314 1267 1373 1064 L1182 1019 Q1131 1179 1034 1252 Q937 1325 790 1325 Q621 1325 507.5 1244 Q394 1163 348 1026.5 Q302 890 302 745 Q302 558 356.5 418.5 Q411 279 526 210 Q641 141 775 141 Q938 141 1051 235 Q1164 329 1204 514 Z M661 1594 L661 1818 L884 1818 L884 1594 L661 1594 Z " />
<glyph glyph-name="cdotaccent" unicode="&#x10b;" horiz-adv-x="1024" d="M828 389 L1005 366 Q976 183 856.5 79.5 Q737 -24 563 -24 Q345 -24 212.5 118.5 Q80 261 80 527 Q80 699 137 828 Q194 957 310.5 1021.5 Q427 1086 564 1086 Q737 1086 847 998.5 Q957 911 988 750 L813 723 Q788 830 724.5 884 Q661 938 571 938 Q435 938 350 840.5 Q265 743 265 532 Q265 318 347 221 Q429 124 561 124 Q667 124 738 189 Q809 254 828 389 Z M469 1194 L469 1418 L692 1418 L692 1194 L469 1194 Z " />
<glyph glyph-name="Emacron" unicode="&#x112;" horiz-adv-x="1366" d="M162 0 L162 1466 L1222 1466 L1222 1293 L356 1293 L356 844 L1167 844 L1167 672 L356 672 L356 173 L1256 173 L1256 0 L162 0 Z M414 1589 L414 1737 L1038 1737 L1038 1589 L414 1589 Z " />
<glyph glyph-name="emacron" unicode="&#x113;" horiz-adv-x="1139" d="M862 342 L1048 319 Q1004 156 885 66 Q766 -24 581 -24 Q348 -24 211.5 119.5 Q75 263 75 522 Q75 790 213 938 Q351 1086 571 1086 Q784 1086 919 941 Q1054 796 1054 533 Q1054 517 1053 485 L261 485 Q271 310 360 217 Q449 124 582 124 Q681 124 751 176 Q821 228 862 342 Z M271 633 L864 633 Q852 767 796 834 Q710 938 573 938 Q449 938 364.5 855 Q280 772 271 633 Z M253 1227 L253 1375 L877 1375 L877 1227 L253 1227 Z " />
<glyph glyph-name="Ebreve" unicode="&#x114;" horiz-adv-x="1366" d="M162 0 L162 1466 L1222 1466 L1222 1293 L356 1293 L356 844 L1167 844 L1167 672 L356 672 L356 173 L1256 173 L1256 0 L162 0 Z M877 1826 L1000 1826 Q985 1701 908.5 1634 Q832 1567 705 1567 Q577 1567 500.5 1633.5 Q424 1700 409 1826 L532 1826 Q546 1758 587.5 1724.5 Q629 1691 699 1691 Q780 1691 821.5 1723.5 Q863 1756 877 1826 Z " />
<glyph glyph-name="ebreve" unicode="&#x115;" horiz-adv-x="1139" d="M862 342 L1048 319 Q1004 156 885 66 Q766 -24 581 -24 Q348 -24 211.5 119.5 Q75 263 75 522 Q75 790 213 938 Q351 1086 571 1086 Q784 1086 919 941 Q1054 796 1054 533 Q1054 517 1053 485 L261 485 Q271 310 360 217 Q449 124 582 124 Q681 124 751 176 Q821 228 862 342 Z M271 633 L864 633 Q852 767 796 834 Q710 938 573 938 Q449 938 364.5 855 Q280 772 271 633 Z M758 1464 L881 1464 Q866 1339 789.5 1272 Q713 1205 586 1205 Q458 1205 381.5 1271.5 Q305 1338 290 1464 L413 1464 Q427 1396 468.5 1362.5 Q510 1329 580 1329 Q661 1329 702.5 1361.5 Q744 1394 758 1464 Z " />
<glyph glyph-name="Edotaccent" unicode="&#x116;" horiz-adv-x="1366" d="M162 0 L162 1466 L1222 1466 L1222 1293 L356 1293 L356 844 L1167 844 L1167 672 L356 672 L356 173 L1256 173 L1256 0 L162 0 Z M614 1556 L614 1780 L837 1780 L837 1556 L614 1556 Z " />
<glyph glyph-name="edotaccent" unicode="&#x117;" horiz-adv-x="1139" d="M862 342 L1048 319 Q1004 156 885 66 Q766 -24 581 -24 Q348 -24 211.5 119.5 Q75 263 75 522 Q75 790 213 938 Q351 1086 571 1086 Q784 1086 919 941 Q1054 796 1054 533 Q1054 517 1053 485 L261 485 Q271 310 360 217 Q449 124 582 124 Q681 124 751 176 Q821 228 862 342 Z M271 633 L864 633 Q852 767 796 834 Q710 938 573 938 Q449 938 364.5 855 Q280 772 271 633 Z M479 1194 L479 1418 L702 1418 L702 1194 L479 1194 Z " />
<glyph glyph-name="Gcircumflex" unicode="&#x11c;" horiz-adv-x="1593" d="M844 575 L844 747 L1465 748 L1465 204 Q1322 90 1170 32.5 Q1018 -25 858 -25 Q642 -25 465.5 67.5 Q289 160 199 335 Q109 510 109 726 Q109 940 198.5 1125.5 Q288 1311 456 1401 Q624 1491 843 1491 Q1002 1491 1130.5 1439.5 Q1259 1388 1332 1296 Q1405 1204 1443 1056 L1268 1008 Q1235 1120 1186 1184 Q1137 1248 1046 1286.5 Q955 1325 844 1325 Q711 1325 614 1284.5 Q517 1244 457.5 1178 Q398 1112 365 1033 Q309 897 309 738 Q309 542 376.5 410 Q444 278 573 214 Q702 150 847 150 Q973 150 1093 198.5 Q1213 247 1275 302 L1275 575 L844 575 Z M870 1715 L757 1545 L551 1545 L767 1825 L959 1825 L1184 1545 L980 1545 L870 1715 Z " />
<glyph glyph-name="gcircumflex" unicode="&#x11d;" horiz-adv-x="1139" d="M102 -88 L277 -114 Q288 -195 338 -232 Q405 -282 521 -282 Q646 -282 714 -232 Q782 -182 806 -92 Q820 -37 819 139 Q701 0 525 0 Q306 0 186 158 Q66 316 66 537 Q66 689 121 817.5 Q176 946 280.5 1016 Q385 1086 526 1086 Q714 1086 836 934 L836 1062 L1002 1062 L1002 144 Q1002 -104 951.5 -207.5 Q901 -311 791.5 -371 Q682 -431 522 -431 Q332 -431 215 -345.5 Q98 -260 102 -88 Z M251 550 Q251 341 334 245 Q417 149 542 149 Q666 149 750 244.5 Q834 340 834 544 Q834 739 747.5 838 Q661 937 539 937 Q419 937 335 839.5 Q251 742 251 550 Z M544 1364 L431 1194 L225 1194 L441 1474 L633 1474 L858 1194 L654 1194 L544 1364 Z " />
<glyph glyph-name="Gdotaccent" unicode="&#x120;" horiz-adv-x="1593" d="M844 575 L844 747 L1465 748 L1465 204 Q1322 90 1170 32.5 Q1018 -25 858 -25 Q642 -25 465.5 67.5 Q289 160 199 335 Q109 510 109 726 Q109 940 198.5 1125.5 Q288 1311 456 1401 Q624 1491 843 1491 Q1002 1491 1130.5 1439.5 Q1259 1388 1332 1296 Q1405 1204 1443 1056 L1268 1008 Q1235 1120 1186 1184 Q1137 1248 1046 1286.5 Q955 1325 844 1325 Q711 1325 614 1284.5 Q517 1244 457.5 1178 Q398 1112 365 1033 Q309 897 309 738 Q309 542 376.5 410 Q444 278 573 214 Q702 150 847 150 Q973 150 1093 198.5 Q1213 247 1275 302 L1275 575 L844 575 Z M755 1545 L755 1769 L978 1769 L978 1545 L755 1545 Z " />
<glyph glyph-name="gdotaccent" unicode="&#x121;" horiz-adv-x="1139" d="M102 -88 L277 -114 Q288 -195 338 -232 Q405 -282 521 -282 Q646 -282 714 -232 Q782 -182 806 -92 Q820 -37 819 139 Q701 0 525 0 Q306 0 186 158 Q66 316 66 537 Q66 689 121 817.5 Q176 946 280.5 1016 Q385 1086 526 1086 Q714 1086 836 934 L836 1062 L1002 1062 L1002 144 Q1002 -104 951.5 -207.5 Q901 -311 791.5 -371 Q682 -431 522 -431 Q332 -431 215 -345.5 Q98 -260 102 -88 Z M251 550 Q251 341 334 245 Q417 149 542 149 Q666 149 750 244.5 Q834 340 834 544 Q834 739 747.5 838 Q661 937 539 937 Q419 937 335 839.5 Q251 742 251 550 Z M457 1194 L457 1418 L680 1418 L680 1194 L457 1194 Z " />
<glyph glyph-name="uni0122" unicode="&#x122;" horiz-adv-x="1593" d="M844 575 L844 747 L1465 748 L1465 204 Q1322 90 1170 32.5 Q1018 -25 858 -25 Q642 -25 465.5 67.5 Q289 160 199 335 Q109 510 109 726 Q109 940 198.5 1125.5 Q288 1311 456 1401 Q624 1491 843 1491 Q1002 1491 1130.5 1439.5 Q1259 1388 1332 1296 Q1405 1204 1443 1056 L1268 1008 Q1235 1120 1186 1184 Q1137 1248 1046 1286.5 Q955 1325 844 1325 Q711 1325 614 1284.5 Q517 1244 457.5 1178 Q398 1112 365 1033 Q309 897 309 738 Q309 542 376.5 410 Q444 278 573 214 Q702 150 847 150 Q973 150 1093 198.5 Q1213 247 1275 302 L1275 575 L844 575 Z M733 -50 Q768 -46 799 -46 Q936 -46 998 -101 Q1060 -156 1060 -228 Q1060 -305 989.5 -363 Q919 -421 767 -421 Q704 -421 627 -409 L638 -292 Q682 -296 725 -296 Q892 -296 892 -220 Q892 -153 765 -153 Q751 -153 733 -155 L733 -50 Z " />
<glyph glyph-name="uni0123" unicode="&#x123;" horiz-adv-x="1139" d="M632 1345 L632 1170 L423 1170 L423 1287 Q423 1399 460 1469 Q497 1539 591 1576 L645 1493 Q552 1454 536 1345 L632 1345 Z M102 -88 L277 -114 Q294 -282 521 -282 Q642 -282 711.5 -234 Q781 -186 800 -114 Q819 -42 819 139 Q702 0 528 0 Q308 0 187 157.5 Q66 315 66 535 Q66 776 187 931 Q308 1086 528 1086 Q714 1086 836 934 L836 1062 L1002 1062 L1002 144 Q1002 -87 956 -196 Q910 -305 795.5 -368 Q681 -431 526 -431 Q312 -431 205 -337.5 Q98 -244 102 -88 Z M251 550 Q251 337 336 243 Q421 149 542 149 Q671 149 752.5 247.5 Q834 346 834 548 Q834 718 756.5 827.5 Q679 937 539 937 Q409 937 330 833.5 Q251 730 251 550 Z " />
<glyph glyph-name="Hcircumflex" unicode="&#x124;" horiz-adv-x="1479" d="M164 0 L164 1466 L358 1466 L358 864 L1120 864 L1120 1466 L1314 1466 L1314 0 L1120 0 L1120 691 L358 691 L358 0 L164 0 Z M774 1726 L661 1556 L455 1556 L671 1836 L863 1836 L1088 1556 L884 1556 L774 1726 Z " />
<glyph glyph-name="hcircumflex" unicode="&#x125;" horiz-adv-x="1139" d="M135 0 L135 1466 L315 1466 L315 940 Q441 1086 633 1086 Q751 1086 838 1039.5 Q925 993 962.5 911 Q1000 829 1000 673 L1000 0 L820 0 L820 673 Q820 808 761.5 869.5 Q703 931 596 931 Q516 931 445.5 889.5 Q375 848 345 777 Q315 706 315 581 L315 0 L135 0 Z M644 1726 L531 1556 L325 1556 L541 1836 L733 1836 L958 1556 L754 1556 L644 1726 Z " />
<glyph glyph-name="Hbar" unicode="&#x126;" horiz-adv-x="1479" d="M164 1099 L31 1099 L31 1247 L164 1247 L164 1466 L358 1466 L358 1247 L1120 1247 L1120 1466 L1314 1466 L1314 1247 L1447 1247 L1447 1099 L1314 1099 L1314 0 L1120 0 L1120 691 L358 691 L358 0 L164 0 L164 1099 Z M358 1099 L358 864 L1120 864 L1120 1099 L358 1099 Z " />
<glyph glyph-name="hbar" unicode="&#x127;" horiz-adv-x="1139" d="M135 1199 L6 1199 L6 1333 L135 1333 L135 1466 L315 1466 L315 1333 L682 1333 L682 1199 L315 1199 L315 940 Q437 1086 635 1086 Q772 1086 886 1010 Q1000 934 1000 673 L1000 0 L820 0 L820 673 Q820 931 595 931 Q472 931 393.5 850.5 Q315 770 315 581 L315 0 L135 0 L135 1199 Z " />
<glyph glyph-name="Itilde" unicode="&#x128;" horiz-adv-x="569" d="M191 0 L191 1466 L385 1466 L385 0 L191 0 Z M-63 1581 Q-64 1685 -6 1747 Q51 1809 140 1809 Q202 1809 309 1755 Q368 1725 403 1725 Q435 1725 452 1742.5 Q469 1760 476 1812 L606 1812 Q603 1698 548.5 1641 Q494 1584 410 1584 Q347 1584 244 1640 Q177 1676 146 1676 Q112 1676 91 1652 Q69 1628 70 1581 L-63 1581 Z " />
<glyph glyph-name="itilde" unicode="&#x129;" horiz-adv-x="569" d="M198 0 L198 1062 L378 1062 L378 0 L198 0 Z M-45 1219 Q-46 1323 12 1385 Q69 1447 158 1447 Q220 1447 327 1393 Q386 1363 421 1363 Q453 1363 470 1380.5 Q487 1398 494 1450 L624 1450 Q621 1336 566.5 1279 Q512 1222 428 1222 Q365 1222 262 1278 Q195 1314 164 1314 Q130 1314 109 1290 Q87 1266 88 1219 L-45 1219 Z " />
<glyph glyph-name="Imacron" unicode="&#x12a;" horiz-adv-x="569" d="M191 0 L191 1466 L385 1466 L385 0 L191 0 Z M-28 1563 L-28 1711 L596 1711 L596 1563 L-28 1563 Z " />
<glyph glyph-name="imacron" unicode="&#x12b;" horiz-adv-x="569" d="M198 0 L198 1062 L378 1062 L378 0 L198 0 Z M-23 1227 L-23 1375 L601 1375 L601 1227 L-23 1227 Z " />
<glyph glyph-name="Ibreve" unicode="&#x12c;" horiz-adv-x="569" d="M191 0 L191 1466 L385 1466 L385 0 L191 0 Z M467 1800 L590 1800 Q575 1675 498.5 1608 Q422 1541 295 1541 Q167 1541 90.5 1607.5 Q14 1674 -1 1800 L122 1800 Q136 1732 177.5 1698.5 Q219 1665 289 1665 Q370 1665 411.5 1697.5 Q453 1730 467 1800 Z " />
<glyph glyph-name="ibreve" unicode="&#x12d;" horiz-adv-x="569" d="M198 0 L198 1062 L378 1062 L378 0 L198 0 Z M462 1464 L585 1464 Q570 1339 493.5 1272 Q417 1205 290 1205 Q162 1205 85.5 1271.5 Q9 1338 -6 1464 L117 1464 Q131 1396 172.5 1362.5 Q214 1329 284 1329 Q365 1329 406.5 1361.5 Q448 1394 462 1464 Z " />
<glyph glyph-name="Iogonek" unicode="&#x12e;" horiz-adv-x="569" d="M191 0 L191 1466 L385 1466 L385 0 L191 0 Z M345 0 Q288 -35 256.5 -86.5 Q225 -138 225 -191 Q225 -233 248 -262 Q271 -291 323 -291 Q346 -291 370 -284.5 Q394 -278 414 -267 L414 -395 Q341 -430 278 -430 Q227 -430 189 -415.5 Q151 -401 125.5 -375.5 Q100 -350 87.5 -317 Q75 -284 75 -246 Q75 -182 111 -117.5 Q147 -53 213 0 L345 0 Z " />
<glyph glyph-name="iogonek" unicode="&#x12f;" horiz-adv-x="455" d="M136 1259 L136 1466 L316 1466 L316 1259 L136 1259 Z M136 0 L136 1062 L316 1062 L316 0 L136 0 Z M295 0 Q238 -35 206.5 -86.5 Q175 -138 175 -191 Q175 -233 198 -262 Q221 -291 273 -291 Q296 -291 320 -284.5 Q344 -278 364 -267 L364 -395 Q291 -430 228 -430 Q177 -430 139 -415.5 Q101 -401 75.5 -375.5 Q50 -350 37.5 -317 Q25 -284 25 -246 Q25 -182 61 -117.5 Q97 -53 163 0 L295 0 Z " />
<glyph glyph-name="Jcircumflex" unicode="&#x134;" horiz-adv-x="1024" d="M59 416 L234 440 Q241 272 297 210 Q353 148 452 148 Q525 148 578 181.5 Q631 215 651 272.5 Q671 330 671 456 L671 1466 L865 1466 L865 467 Q865 283 820.5 182 Q776 81 679.5 28 Q583 -25 453 -25 Q260 -25 157.5 86 Q55 197 59 416 Z M794 1726 L681 1556 L475 1556 L691 1836 L883 1836 L1108 1556 L904 1556 L794 1726 Z " />
<glyph glyph-name="jcircumflex" unicode="&#x135;" horiz-adv-x="455" d="M230 1364 L117 1194 L-88 1194 L128 1474 L320 1474 L544 1194 L341 1194 L230 1364 Z M-94 -412 L-60 -259 Q-8 -273 25 -273 Q88 -273 111 -231.5 Q134 -190 134 -54 L134 1062 L314 1062 L314 -58 Q314 -255 255.5 -343 Q197 -431 47 -431 Q-26 -431 -94 -412 Z " />
<glyph glyph-name="uni0136" unicode="&#x136;" horiz-adv-x="1366" d="M150 0 L150 1466 L344 1466 L344 739 L1072 1466 L1335 1466 L720 872 L1362 0 L1106 0 L584 742 L344 508 L344 0 L150 0 Z M673 -50 Q708 -46 739 -46 Q876 -46 938 -101 Q1000 -156 1000 -228 Q1000 -305 929.5 -363 Q859 -421 707 -421 Q644 -421 567 -409 L578 -292 Q622 -296 665 -296 Q832 -296 832 -220 Q832 -153 705 -153 Q691 -153 673 -155 L673 -50 Z " />
<glyph glyph-name="uni0137" unicode="&#x137;" horiz-adv-x="1024" d="M136 0 L136 1466 L316 1466 L316 630 L742 1062 L975 1062 L569 668 L1016 0 L794 0 L443 543 L316 421 L316 0 L136 0 Z M502 -50 Q537 -46 568 -46 Q705 -46 767 -101 Q829 -156 829 -228 Q829 -305 758.5 -363 Q688 -421 536 -421 Q473 -421 396 -409 L407 -292 Q451 -296 494 -296 Q661 -296 661 -220 Q661 -153 534 -153 Q520 -153 502 -155 L502 -50 Z " />
<glyph glyph-name="kgreenlandic" unicode="&#x138;" horiz-adv-x="1024" d="M134 0 L134 1062 L314 1062 L314 630 L740 1062 L973 1062 L567 668 L1014 0 L792 0 L441 543 L314 421 L314 0 L134 0 Z " />
<glyph glyph-name="uni013B" unicode="&#x13b;" horiz-adv-x="1139" d="M150 0 L150 1466 L344 1466 L344 173 L1066 173 L1066 0 L150 0 Z M553 -50 Q588 -46 619 -46 Q756 -46 818 -101 Q880 -156 880 -228 Q880 -305 809.5 -363 Q739 -421 587 -421 Q524 -421 447 -409 L458 -292 Q502 -296 545 -296 Q712 -296 712 -220 Q712 -153 585 -153 Q571 -153 553 -155 L553 -50 Z " />
<glyph glyph-name="uni013C" unicode="&#x13c;" horiz-adv-x="455" d="M131 0 L131 1466 L311 1466 L311 0 L131 0 Z M103 -50 Q138 -46 169 -46 Q306 -46 368 -101 Q430 -156 430 -228 Q430 -305 359.5 -363 Q289 -421 137 -421 Q74 -421 -3 -409 L8 -292 Q52 -296 95 -296 Q262 -296 262 -220 Q262 -153 135 -153 Q121 -153 103 -155 L103 -50 Z " />
<glyph glyph-name="uni0145" unicode="&#x145;" horiz-adv-x="1479" d="M156 0 L156 1466 L355 1466 L1125 315 L1125 1466 L1311 1466 L1311 0 L1112 0 L342 1152 L342 0 L156 0 Z M699 -50 Q734 -46 765 -46 Q902 -46 964 -101 Q1026 -156 1026 -228 Q1026 -305 955.5 -363 Q885 -421 733 -421 Q670 -421 593 -409 L604 -292 Q648 -296 691 -296 Q858 -296 858 -220 Q858 -153 731 -153 Q717 -153 699 -155 L699 -50 Z " />
<glyph glyph-name="uni0146" unicode="&#x146;" horiz-adv-x="1139" d="M135 0 L135 1062 L297 1062 L297 911 Q414 1086 635 1086 Q731 1086 811.5 1051.5 Q892 1017 932 961 Q972 905 988 828 Q998 778 998 653 L998 0 L818 0 L818 646 Q818 756 797 810.5 Q776 865 722.5 897.5 Q669 930 597 930 Q482 930 398.5 857 Q315 784 315 580 L315 0 L135 0 Z M463 -50 Q498 -46 529 -46 Q666 -46 728 -101 Q790 -156 790 -228 Q790 -305 719.5 -363 Q649 -421 497 -421 Q434 -421 357 -409 L368 -292 Q412 -296 455 -296 Q622 -296 622 -220 Q622 -153 495 -153 Q481 -153 463 -155 L463 -50 Z " />
<glyph glyph-name="Eng" unicode="&#x14a;" horiz-adv-x="1481" d="M165 1466 L361 1466 L361 1284 Q476 1416 589 1453.5 Q702 1491 827 1491 Q1008 1491 1122.5 1410 Q1237 1329 1305 1176.5 Q1373 1024 1373 754 Q1373 360 1243 167.5 Q1113 -25 893 -25 Q766 -25 645 47 L732 200 Q828 148 893 148 Q970 148 1035 212.5 Q1100 277 1138 408.5 Q1176 540 1176 749 Q1176 1328 771 1328 Q638 1328 537.5 1265.5 Q437 1203 399 1106.5 Q361 1010 361 801 L361 0 L165 0 L165 1466 Z " />
<glyph glyph-name="eng" unicode="&#x14b;" horiz-adv-x="1139" d="M1002 653 L1002 -58 Q1002 -255 943.5 -343 Q885 -431 735 -431 Q662 -431 594 -412 L628 -259 Q681 -273 713 -273 Q778 -273 800 -229 Q822 -185 822 -54 L822 646 Q822 794 770 862 Q718 930 599 930 Q482 930 400.5 855 Q319 780 319 580 L319 0 L139 0 L139 1062 L301 1062 L301 911 Q418 1086 639 1086 Q769 1086 857 1030 Q945 974 973.5 891.5 Q1002 809 1002 653 Z " />
<glyph glyph-name="Omacron" unicode="&#x14c;" horiz-adv-x="1593" d="M99 714 Q99 1079 295 1285.5 Q491 1492 801 1492 Q1004 1492 1167 1395 Q1330 1298 1415.5 1124.5 Q1501 951 1501 731 Q1501 508 1411 332 Q1321 156 1156 65.5 Q991 -25 800 -25 Q593 -25 430 75 Q267 175 183 348 Q99 521 99 714 Z M299 711 Q299 446 441.5 293.5 Q584 141 799 141 Q1018 141 1159.5 295 Q1301 449 1301 732 Q1301 911 1240.5 1044.5 Q1180 1178 1063.5 1251.5 Q947 1325 802 1325 Q596 1325 447.5 1183.5 Q299 1042 299 711 Z M504 1599 L504 1747 L1128 1747 L1128 1599 L504 1599 Z " />
<glyph glyph-name="omacron" unicode="&#x14d;" horiz-adv-x="1139" d="M68 531 Q68 826 232 968 Q369 1086 566 1086 Q785 1086 924 942.5 Q1063 799 1063 546 Q1063 341 1001.5 223.5 Q940 106 822.5 41 Q705 -24 566 -24 Q343 -24 205.5 119 Q68 262 68 531 Z M253 531 Q253 327 342 225.5 Q431 124 566 124 Q700 124 789 226 Q878 328 878 537 Q878 734 788.5 835.5 Q699 937 566 937 Q431 937 342 836 Q253 735 253 531 Z M264 1227 L264 1375 L888 1375 L888 1227 L264 1227 Z " />
<glyph glyph-name="Obreve" unicode="&#x14e;" horiz-adv-x="1593" d="M99 714 Q99 1079 295 1285.5 Q491 1492 801 1492 Q1004 1492 1167 1395 Q1330 1298 1415.5 1124.5 Q1501 951 1501 731 Q1501 508 1411 332 Q1321 156 1156 65.5 Q991 -25 800 -25 Q593 -25 430 75 Q267 175 183 348 Q99 521 99 714 Z M299 711 Q299 446 441.5 293.5 Q584 141 799 141 Q1018 141 1159.5 295 Q1301 449 1301 732 Q1301 911 1240.5 1044.5 Q1180 1178 1063.5 1251.5 Q947 1325 802 1325 Q596 1325 447.5 1183.5 Q299 1042 299 711 Z M989 1826 L1112 1826 Q1097 1701 1020.5 1634 Q944 1567 817 1567 Q689 1567 612.5 1633.5 Q536 1700 521 1826 L644 1826 Q658 1758 699.5 1724.5 Q741 1691 811 1691 Q892 1691 933.5 1723.5 Q975 1756 989 1826 Z " />
<glyph glyph-name="obreve" unicode="&#x14f;" horiz-adv-x="1139" d="M68 531 Q68 826 232 968 Q369 1086 566 1086 Q785 1086 924 942.5 Q1063 799 1063 546 Q1063 341 1001.5 223.5 Q940 106 822.5 41 Q705 -24 566 -24 Q343 -24 205.5 119 Q68 262 68 531 Z M253 531 Q253 327 342 225.5 Q431 124 566 124 Q700 124 789 226 Q878 328 878 537 Q878 734 788.5 835.5 Q699 937 566 937 Q431 937 342 836 Q253 735 253 531 Z M749 1464 L872 1464 Q857 1339 780.5 1272 Q704 1205 577 1205 Q449 1205 372.5 1271.5 Q296 1338 281 1464 L404 1464 Q418 1396 459.5 1362.5 Q501 1329 571 1329 Q652 1329 693.5 1361.5 Q735 1394 749 1464 Z " />
<glyph glyph-name="uni0156" unicode="&#x156;" horiz-adv-x="1479" d="M161 0 L161 1466 L811 1466 Q1007 1466 1109 1426.5 Q1211 1387 1272 1287 Q1333 1187 1333 1066 Q1333 910 1232 803 Q1131 696 920 667 Q997 630 1037 594 Q1122 516 1198 399 L1453 0 L1209 0 L1015 305 Q930 437 875 507 Q820 577 776.5 605 Q733 633 688 644 Q655 651 580 651 L355 651 L355 0 L161 0 Z M355 819 L772 819 Q905 819 980 846.5 Q1055 874 1094 934.5 Q1133 995 1133 1066 Q1133 1170 1057.5 1237 Q982 1304 819 1304 L355 1304 L355 819 Z M699 -50 Q734 -46 765 -46 Q902 -46 964 -101 Q1026 -156 1026 -228 Q1026 -305 955.5 -363 Q885 -421 733 -421 Q670 -421 593 -409 L604 -292 Q648 -296 691 -296 Q858 -296 858 -220 Q858 -153 731 -153 Q717 -153 699 -155 L699 -50 Z " />
<glyph glyph-name="uni0157" unicode="&#x157;" horiz-adv-x="682" d="M133 0 L133 1062 L295 1062 L295 901 Q357 1014 409.5 1050 Q462 1086 525 1086 Q616 1086 710 1028 L648 861 Q582 900 516 900 Q457 900 410 864.5 Q363 829 343 766 Q313 670 313 556 L313 0 L133 0 Z M250 -50 Q285 -46 316 -46 Q453 -46 515 -101 Q577 -156 577 -228 Q577 -305 506.5 -363 Q436 -421 284 -421 Q221 -421 144 -409 L155 -292 Q199 -296 242 -296 Q409 -296 409 -220 Q409 -153 282 -153 Q268 -153 250 -155 L250 -50 Z " />
<glyph glyph-name="Scircumflex" unicode="&#x15c;" horiz-adv-x="1366" d="M92 471 L275 487 Q288 377 335.5 306.5 Q383 236 483 192.5 Q583 149 708 149 Q819 149 904 182 Q989 215 1030.5 272.5 Q1072 330 1072 398 Q1072 467 1032 518.5 Q992 570 900 605 Q841 628 639 676.5 Q437 725 356 768 Q251 823 199.5 904.5 Q148 986 148 1087 Q148 1198 211 1294.5 Q274 1391 395 1441 Q516 1491 664 1491 Q827 1491 951.5 1438.5 Q1076 1386 1143 1284 Q1210 1182 1215 1053 L1029 1039 Q1014 1178 927.5 1249 Q841 1320 672 1320 Q496 1320 415.5 1255.5 Q335 1191 335 1100 Q335 1021 392 970 Q448 919 684.5 865.5 Q921 812 1009 772 Q1137 713 1198 622.5 Q1259 532 1259 414 Q1259 297 1192 193.5 Q1125 90 999.5 32.5 Q874 -25 717 -25 Q518 -25 383.5 33 Q249 91 172.5 207.5 Q96 324 92 471 Z M676 1720 L563 1550 L357 1550 L573 1830 L765 1830 L990 1550 L786 1550 L676 1720 Z " />
<glyph glyph-name="scircumflex" unicode="&#x15d;" horiz-adv-x="1024" d="M63 317 L241 345 Q256 238 324.5 181 Q393 124 516 124 Q640 124 700 174.5 Q760 225 760 293 Q760 354 707 389 Q670 413 523 450 Q325 500 248.5 536.5 Q172 573 132.5 637.5 Q93 702 93 780 Q93 851 125.5 911.5 Q158 972 214 1012 Q256 1043 328.5 1064.5 Q401 1086 484 1086 Q609 1086 703.5 1050 Q798 1014 843 952.5 Q888 891 905 788 L729 764 Q717 846 659.5 892 Q602 938 497 938 Q373 938 320 897 Q267 856 267 801 Q267 766 289 738 Q311 709 358 690 Q385 680 517 644 Q708 593 783.5 560.5 Q859 528 902 466 Q945 404 945 312 Q945 222 892.5 142.5 Q840 63 741 19.5 Q642 -24 517 -24 Q310 -24 201.5 62 Q93 148 63 317 Z M534 1364 L421 1194 L215 1194 L431 1474 L623 1474 L848 1194 L644 1194 L534 1364 Z " />
<glyph glyph-name="Tbar" unicode="&#x166;" horiz-adv-x="1251" d="M531 629 L201 629 L201 761 L531 761 L531 1293 L48 1293 L48 1466 L1210 1466 L1210 1293 L725 1293 L725 761 L1053 761 L1053 629 L725 629 L725 0 L531 0 L531 629 Z " />
<glyph glyph-name="tbar" unicode="&#x167;" horiz-adv-x="569" d="M145 514 L12 514 L12 646 L145 646 L145 922 L13 922 L13 1062 L145 1062 L145 1325 L325 1433 L325 1062 L505 1062 L505 922 L325 922 L325 646 L497 646 L497 514 L325 514 L325 301 Q325 216 343.5 185 Q362 154 426 154 Q458 154 505 161 L531 2 Q458 -14 397 -14 Q291 -14 233.5 22 Q176 58 160.5 116.5 Q145 175 145 311 L145 514 Z " />
<glyph glyph-name="Utilde" unicode="&#x168;" horiz-adv-x="1479" d="M1120 1466 L1314 1466 L1314 619 Q1314 398 1264 268 Q1214 138 1083.5 56.5 Q953 -25 741 -25 Q535 -25 404 46 Q273 117 217 251.5 Q161 386 161 619 L161 1466 L355 1466 L355 620 Q355 429 390.5 338.5 Q426 248 512.5 199 Q599 150 724 150 Q938 150 1029 247 Q1120 344 1120 620 L1120 1466 Z M427 1575 Q426 1679 484 1741 Q541 1803 630 1803 Q692 1803 799 1749 Q858 1719 893 1719 Q925 1719 942 1736.5 Q959 1754 966 1806 L1096 1806 Q1093 1692 1038.5 1635 Q984 1578 900 1578 Q837 1578 734 1634 Q667 1670 636 1670 Q602 1670 581 1646 Q559 1622 560 1575 L427 1575 Z " />
<glyph glyph-name="utilde" unicode="&#x169;" horiz-adv-x="1139" d="M831 0 L831 156 Q707 -24 494 -24 Q400 -24 318.5 12 Q237 48 197.5 102.5 Q158 157 142 236 Q131 289 131 404 L131 1062 L311 1062 L311 473 Q311 332 322 283 Q339 212 394 171.5 Q449 131 530 131 Q611 131 682 172.5 Q753 214 782.5 285.5 Q812 357 812 493 L812 1062 L992 1062 L992 0 L831 0 Z M243 1219 Q242 1323 300 1385 Q357 1447 446 1447 Q508 1447 615 1393 Q674 1363 709 1363 Q741 1363 758 1380.5 Q775 1398 782 1450 L912 1450 Q909 1336 854.5 1279 Q800 1222 716 1222 Q653 1222 550 1278 Q483 1314 452 1314 Q418 1314 397 1290 Q375 1266 376 1219 L243 1219 Z " />
<glyph glyph-name="Umacron" unicode="&#x16a;" horiz-adv-x="1479" d="M1120 1466 L1314 1466 L1314 619 Q1314 398 1264 268 Q1214 138 1083.5 56.5 Q953 -25 741 -25 Q535 -25 404 46 Q273 117 217 251.5 Q161 386 161 619 L161 1466 L355 1466 L355 620 Q355 429 390.5 338.5 Q426 248 512.5 199 Q599 150 724 150 Q938 150 1029 247 Q1120 344 1120 620 L1120 1466 Z M449 1583 L449 1731 L1073 1731 L1073 1583 L449 1583 Z " />
<glyph glyph-name="umacron" unicode="&#x16b;" horiz-adv-x="1139" d="M831 0 L831 156 Q707 -24 494 -24 Q400 -24 318.5 12 Q237 48 197.5 102.5 Q158 157 142 236 Q131 289 131 404 L131 1062 L311 1062 L311 473 Q311 332 322 283 Q339 212 394 171.5 Q449 131 530 131 Q611 131 682 172.5 Q753 214 782.5 285.5 Q812 357 812 493 L812 1062 L992 1062 L992 0 L831 0 Z M265 1227 L265 1375 L889 1375 L889 1227 L265 1227 Z " />
<glyph glyph-name="Ubreve" unicode="&#x16c;" horiz-adv-x="1479" d="M1120 1466 L1314 1466 L1314 619 Q1314 398 1264 268 Q1214 138 1083.5 56.5 Q953 -25 741 -25 Q535 -25 404 46 Q273 117 217 251.5 Q161 386 161 619 L161 1466 L355 1466 L355 620 Q355 429 390.5 338.5 Q426 248 512.5 199 Q599 150 724 150 Q938 150 1029 247 Q1120 344 1120 620 L1120 1466 Z M914 1820 L1037 1820 Q1022 1695 945.5 1628 Q869 1561 742 1561 Q614 1561 537.5 1627.5 Q461 1694 446 1820 L569 1820 Q583 1752 624.5 1718.5 Q666 1685 736 1685 Q817 1685 858.5 1717.5 Q900 1750 914 1820 Z " />
<glyph glyph-name="ubreve" unicode="&#x16d;" horiz-adv-x="1139" d="M831 0 L831 156 Q707 -24 494 -24 Q400 -24 318.5 12 Q237 48 197.5 102.5 Q158 157 142 236 Q131 289 131 404 L131 1062 L311 1062 L311 473 Q311 332 322 283 Q339 212 394 171.5 Q449 131 530 131 Q611 131 682 172.5 Q753 214 782.5 285.5 Q812 357 812 493 L812 1062 L992 1062 L992 0 L831 0 Z M750 1464 L873 1464 Q858 1339 781.5 1272 Q705 1205 578 1205 Q450 1205 373.5 1271.5 Q297 1338 282 1464 L405 1464 Q419 1396 460.5 1362.5 Q502 1329 572 1329 Q653 1329 694.5 1361.5 Q736 1394 750 1464 Z " />
<glyph glyph-name="Uogonek" unicode="&#x172;" horiz-adv-x="1479" d="M1120 1466 L1314 1466 L1314 619 Q1314 398 1264 268 Q1214 138 1083.5 56.5 Q953 -25 741 -25 Q535 -25 404 46 Q273 117 217 251.5 Q161 386 161 619 L161 1466 L355 1466 L355 620 Q355 429 390.5 338.5 Q426 248 512.5 199 Q599 150 724 150 Q938 150 1029 247 Q1120 344 1120 620 L1120 1466 Z M921 0 Q864 -35 832.5 -86.5 Q801 -138 801 -191 Q801 -233 824 -262 Q847 -291 899 -291 Q922 -291 946 -284.5 Q970 -278 990 -267 L990 -395 Q917 -430 854 -430 Q803 -430 765 -415.5 Q727 -401 701.5 -375.5 Q676 -350 663.5 -317 Q651 -284 651 -246 Q651 -182 687 -117.5 Q723 -53 789 0 L921 0 Z " />
<glyph glyph-name="uogonek" unicode="&#x173;" horiz-adv-x="1139" d="M831 0 L831 156 Q707 -24 494 -24 Q400 -24 318.5 12 Q237 48 197.5 102.5 Q158 157 142 236 Q131 289 131 404 L131 1062 L311 1062 L311 473 Q311 332 322 283 Q339 212 394 171.5 Q449 131 530 131 Q611 131 682 172.5 Q753 214 782.5 285.5 Q812 357 812 493 L812 1062 L992 1062 L992 0 L831 0 Z M976 0 Q919 -35 887.5 -86.5 Q856 -138 856 -191 Q856 -233 879 -262 Q902 -291 954 -291 Q977 -291 1001 -284.5 Q1025 -278 1045 -267 L1045 -395 Q972 -430 909 -430 Q858 -430 820 -415.5 Q782 -401 756.5 -375.5 Q731 -350 718.5 -317 Q706 -284 706 -246 Q706 -182 742 -117.5 Q778 -53 844 0 L976 0 Z " />
<glyph glyph-name="Wcircumflex" unicode="&#x174;" horiz-adv-x="1933" d="M414 0 L25 1466 L224 1466 L447 505 Q483 354 509 205 Q565 440 575 476 L854 1466 L1088 1466 L1298 724 Q1377 448 1412 205 Q1440 344 1485 524 L1715 1466 L1910 1466 L1508 0 L1321 0 L1012 1117 Q973 1257 966 1289 Q943 1188 923 1117 L612 0 L414 0 Z M964 1726 L851 1556 L645 1556 L861 1836 L1053 1836 L1278 1556 L1074 1556 L964 1726 Z " />
<glyph glyph-name="wcircumflex" unicode="&#x175;" horiz-adv-x="1479" d="M331 0 L6 1062 L192 1062 L361 449 L424 221 Q428 238 479 440 L648 1062 L833 1062 L992 446 L1045 243 L1106 448 L1288 1062 L1463 1062 L1131 0 L944 0 L775 636 L734 817 L519 0 L331 0 Z M754 1364 L641 1194 L435 1194 L651 1474 L843 1474 L1068 1194 L864 1194 L754 1364 Z " />
<glyph glyph-name="Ycircumflex" unicode="&#x176;" horiz-adv-x="1366" d="M571 0 L571 621 L6 1466 L242 1466 L531 1024 Q611 900 680 776 Q746 891 840 1035 L1124 1466 L1350 1466 L765 621 L765 0 L571 0 Z M709 1726 L596 1556 L390 1556 L606 1836 L798 1836 L1023 1556 L819 1556 L709 1726 Z " />
<glyph glyph-name="ycircumflex" unicode="&#x177;" horiz-adv-x="1024" d="M127 -409 L107 -240 Q166 -256 210 -256 Q270 -256 306 -236 Q342 -216 365 -180 Q382 -153 420 -46 Q425 -31 436 -2 L33 1062 L227 1062 L448 447 Q491 330 525 201 Q556 325 599 443 L826 1062 L1006 1062 L602 -18 Q537 -193 501 -259 Q453 -348 391 -389.5 Q329 -431 243 -431 Q191 -431 127 -409 Z M559 1364 L446 1194 L240 1194 L456 1474 L648 1474 L873 1194 L669 1194 L559 1364 Z " />
<glyph glyph-name="longs" unicode="&#x17f;" horiz-adv-x="455" d="M137 0 L137 1175 Q137 1290 164 1353.5 Q191 1417 258 1454 Q325 1491 431 1491 Q510 1491 598 1473 L572 1316 Q518 1326 466 1326 Q376 1326 346.5 1286.5 Q317 1247 317 1160 L317 0 L137 0 Z " />
<glyph glyph-name="Aringacute" unicode="&#x1fa;" horiz-adv-x="1366" d="M-3 0 L560 1466 L769 1466 L1369 0 L1148 0 L977 444 L364 444 L203 0 L-3 0 Z M420 602 L917 602 L764 1008 Q694 1193 660 1312 Q632 1171 581 1032 L420 602 Z M481 1601 Q481 1674 534.5 1727 Q588 1780 661 1780 Q735 1780 788 1726.5 Q841 1673 841 1597 Q841 1520 788 1467 Q735 1414 662 1414 Q587 1414 534 1467.5 Q481 1521 481 1601 Z M557 1600 Q557 1553 588.5 1521 Q620 1489 663 1489 Q706 1489 737.5 1521 Q769 1553 769 1598 Q769 1643 738 1675 Q707 1707 663 1707 Q620 1707 588.5 1675.5 Q557 1644 557 1600 Z M561 1780 L694 2060 L930 2060 L710 1780 L561 1780 Z " />
<glyph glyph-name="aringacute" unicode="&#x1fb;" horiz-adv-x="1139" d="M828 131 Q728 46 635.5 11 Q543 -24 437 -24 Q262 -24 168 61.5 Q74 147 74 280 Q74 358 109.5 422.5 Q145 487 202.5 526 Q260 565 332 585 Q385 599 492 612 Q710 638 813 674 Q814 711 814 721 Q814 831 763 876 Q694 937 558 937 Q431 937 370.5 892.5 Q310 848 281 735 L105 759 Q129 872 184 941.5 Q239 1011 343 1048.5 Q447 1086 584 1086 Q720 1086 805 1054 Q890 1022 930 973.5 Q970 925 986 851 Q995 805 995 685 L995 445 Q995 194 1006.5 127.5 Q1018 61 1052 0 L864 0 Q836 56 828 131 Z M813 533 Q715 493 519 465 Q408 449 362 429 Q316 409 291 370.5 Q266 332 266 285 Q266 213 320.5 165 Q375 117 480 117 Q584 117 665 162.5 Q746 208 784 287 Q813 348 813 467 L813 533 Z M383 1338 Q383 1411 436.5 1464 Q490 1517 563 1517 Q637 1517 690 1463.5 Q743 1410 743 1334 Q743 1257 690 1204 Q637 1151 564 1151 Q489 1151 436 1204.5 Q383 1258 383 1338 Z M459 1337 Q459 1290 490.5 1258 Q522 1226 565 1226 Q608 1226 639.5 1258 Q671 1290 671 1335 Q671 1380 640 1412 Q609 1444 565 1444 Q522 1444 490.5 1412.5 Q459 1381 459 1337 Z M493 1644 L626 1924 L862 1924 L642 1644 L493 1644 Z " />
<glyph glyph-name="AEacute" unicode="&#x1fc;" horiz-adv-x="2048" d="M1 0 L706 1466 L1909 1466 L1909 1293 L1172 1293 L1172 842 L1857 842 L1857 670 L1172 670 L1172 173 L1936 173 L1936 0 L977 0 L977 423 L411 423 L211 0 L1 0 Z M493 595 L977 595 L977 1293 L832 1293 L493 595 Z M881 1556 L1014 1836 L1250 1836 L1030 1556 L881 1556 Z " />
<glyph glyph-name="aeacute" unicode="&#x1fd;" horiz-adv-x="1821" d="M1734 325 Q1684 158 1564 67 Q1444 -24 1266 -24 Q1139 -24 1043.5 24 Q948 72 871 174 Q767 72 660.5 24 Q554 -24 431 -24 Q259 -24 163.5 64.5 Q68 153 68 280 Q68 366 117.5 441.5 Q167 517 255.5 556 Q344 595 538 620 Q688 640 790 669 Q791 694 791 710 Q791 836 738.5 886.5 Q686 937 555 937 Q468 937 408 916 Q348 895 319.5 856.5 Q291 818 272 733 L97 754 Q125 871 177.5 939.5 Q230 1008 328 1047 Q426 1086 557 1086 Q724 1086 826 1036 Q885 1007 925 943 Q989 1013 1070 1049.5 Q1151 1086 1266 1086 Q1428 1086 1534 1007.5 Q1640 929 1689 800 Q1738 671 1738 546 Q1738 527 1736 485 L969 485 Q971 341 1004.5 276 Q1038 211 1111.5 167.5 Q1185 124 1273 124 Q1376 124 1447.5 183 Q1519 242 1546 349 L1734 325 Z M969 633 L1553 633 Q1539 791 1463 864 Q1387 937 1265 937 Q1139 937 1058.5 857 Q978 777 969 633 Z M793 533 Q714 499 471 460 Q362 443 318 409 Q259 362 259 286 Q259 215 312 166.5 Q365 118 466 118 Q581 118 666.5 175 Q752 232 778 317 Q793 369 793 533 Z M822 1194 L955 1474 L1191 1474 L971 1194 L822 1194 Z " />
<glyph glyph-name="Oslashacute" unicode="&#x1fe;" horiz-adv-x="1593" d="M1250 1332 L1418 1520 L1517 1436 L1341 1238 Q1427 1110 1457 1014 Q1497 888 1497 732 Q1497 507 1406 331 Q1315 155 1150.5 65 Q986 -25 801 -25 Q663 -25 551 14 Q465 44 350 129 L182 -59 L83 25 L259 222 Q161 371 128 476.5 Q95 582 95 730 Q95 956 185 1132.5 Q275 1309 437.5 1400 Q600 1491 799 1491 Q933 1491 1033.5 1455.5 Q1134 1420 1250 1332 Z M1130 1197 Q1036 1271 965.5 1298 Q895 1325 800 1325 Q581 1325 438 1176.5 Q295 1028 295 733 Q295 617 317 527 Q333 460 384 362 L1130 1197 Z M1212 1094 L469 262 Q546 199 611 174 Q696 141 795 141 Q1013 141 1155 295 Q1297 449 1297 727 Q1297 935 1212 1094 Z M681 1556 L814 1836 L1050 1836 L830 1556 L681 1556 Z " />
<glyph glyph-name="oslashacute" unicode="&#x1ff;" horiz-adv-x="1251" d="M919 999 L1018 1127 L1114 1057 L1007 919 Q1070 833 1093 763 Q1124 663 1124 530 Q1124 230 955 89 Q818 -24 625 -24 Q466 -24 344 56 L239 -79 L145 -8 L253 133 Q194 201 169 269 Q129 378 129 516 Q129 817 276 951.5 Q423 1086 621 1086 Q703 1086 772 1065 Q841 1044 919 999 Z M818 867 Q727 937 627 937 Q494 937 404 835 Q314 733 314 531 Q314 381 366 280 L818 867 Z M893 770 L444 187 Q522 124 620 124 Q759 124 849.5 226 Q940 328 940 532 Q940 608 928 665 Q920 707 893 770 Z M532 1194 L665 1474 L901 1474 L681 1194 L532 1194 Z " />
<glyph glyph-name="anoteleia" unicode="&#x387;" horiz-adv-x="569" d="M185 857 L185 1062 L390 1062 L390 857 L185 857 Z " />
<glyph glyph-name="Wgrave" unicode="&#x1e80;" horiz-adv-x="1933" d="M414 0 L25 1466 L224 1466 L447 505 Q483 354 509 205 Q565 440 575 476 L854 1466 L1088 1466 L1298 724 Q1377 448 1412 205 Q1440 344 1485 524 L1715 1466 L1910 1466 L1508 0 L1321 0 L1012 1117 Q973 1257 966 1289 Q943 1188 923 1117 L612 0 L414 0 Z M1115 1556 L970 1556 L739 1836 L980 1836 L1115 1556 Z " />
<glyph glyph-name="wgrave" unicode="&#x1e81;" horiz-adv-x="1479" d="M331 0 L6 1062 L192 1062 L361 449 L424 221 Q428 238 479 440 L648 1062 L833 1062 L992 446 L1045 243 L1106 448 L1288 1062 L1463 1062 L1131 0 L944 0 L775 636 L734 817 L519 0 L331 0 Z M825 1194 L680 1194 L449 1474 L690 1474 L825 1194 Z " />
<glyph glyph-name="Wacute" unicode="&#x1e82;" horiz-adv-x="1933" d="M414 0 L25 1466 L224 1466 L447 505 Q483 354 509 205 Q565 440 575 476 L854 1466 L1088 1466 L1298 724 Q1377 448 1412 205 Q1440 344 1485 524 L1715 1466 L1910 1466 L1508 0 L1321 0 L1012 1117 Q973 1257 966 1289 Q943 1188 923 1117 L612 0 L414 0 Z M872 1556 L1005 1836 L1241 1836 L1021 1556 L872 1556 Z " />
<glyph glyph-name="wacute" unicode="&#x1e83;" horiz-adv-x="1479" d="M331 0 L6 1062 L192 1062 L361 449 L424 221 Q428 238 479 440 L648 1062 L833 1062 L992 446 L1045 243 L1106 448 L1288 1062 L1463 1062 L1131 0 L944 0 L775 636 L734 817 L519 0 L331 0 Z M582 1194 L715 1474 L951 1474 L731 1194 L582 1194 Z " />
<glyph glyph-name="Wdieresis" unicode="&#x1e84;" horiz-adv-x="1933" d="M414 0 L25 1466 L224 1466 L447 505 Q483 354 509 205 Q565 440 575 476 L854 1466 L1088 1466 L1298 724 Q1377 448 1412 205 Q1440 344 1485 524 L1715 1466 L1910 1466 L1508 0 L1321 0 L1012 1117 Q973 1257 966 1289 Q943 1188 923 1117 L612 0 L414 0 Z M681 1556 L681 1761 L869 1761 L869 1556 L681 1556 Z M1054 1556 L1054 1761 L1242 1761 L1242 1556 L1054 1556 Z " />
<glyph glyph-name="wdieresis" unicode="&#x1e85;" horiz-adv-x="1479" d="M331 0 L6 1062 L192 1062 L361 449 L424 221 Q428 238 479 440 L648 1062 L833 1062 L992 446 L1045 243 L1106 448 L1288 1062 L1463 1062 L1131 0 L944 0 L775 636 L734 817 L519 0 L331 0 Z M471 1270 L471 1475 L659 1475 L659 1270 L471 1270 Z M844 1270 L844 1475 L1032 1475 L1032 1270 L844 1270 Z " />
<glyph glyph-name="Ygrave" unicode="&#x1ef2;" horiz-adv-x="1366" d="M571 0 L571 621 L6 1466 L242 1466 L531 1024 Q611 900 680 776 Q746 891 840 1035 L1124 1466 L1350 1466 L765 621 L765 0 L571 0 Z M798 1556 L653 1556 L422 1836 L663 1836 L798 1556 Z " />
<glyph glyph-name="ygrave" unicode="&#x1ef3;" horiz-adv-x="1024" d="M127 -409 L107 -240 Q166 -256 210 -256 Q270 -256 306 -236 Q342 -216 365 -180 Q382 -153 420 -46 Q425 -31 436 -2 L33 1062 L227 1062 L448 447 Q491 330 525 201 Q556 325 599 443 L826 1062 L1006 1062 L602 -18 Q537 -193 501 -259 Q453 -348 391 -389.5 Q329 -431 243 -431 Q191 -431 127 -409 Z M648 1194 L503 1194 L272 1474 L513 1474 L648 1194 Z " />
<glyph glyph-name="quotereversed" unicode="&#x201b;" horiz-adv-x="455" d="M331 1272 L237 1272 Q239 1116 347 1072 L303 1001 Q210 1043 174 1114 Q138 1185 138 1316 L138 1481 L331 1481 L331 1272 Z " />
<glyph glyph-name="uni203E" unicode="&#x203e;" horiz-adv-x="682" d="M-31 1227 L-31 1375 L714 1375 L714 1227 L-31 1227 Z " />
<glyph glyph-name="lira" unicode="&#x20a4;" horiz-adv-x="1139" d="M433 614 L711 614 L711 466 L429 466 Q396 322 268 191 Q345 213 409 213 Q496 213 599 188 Q769 147 837 147 Q906 147 1024 203 L1082 38 Q936 -25 844 -25 Q770 -25 626 19 Q475 65 405 65 Q240 65 96 -28 L27 145 Q221 257 253 466 L44 466 L44 614 L253 614 Q249 645 212 762 L44 762 L44 910 L170 910 Q147 1000 147 1077 Q147 1271 279.5 1381 Q412 1491 605 1491 Q771 1491 894.5 1395.5 Q1018 1300 1044 1112 L865 1085 Q852 1198 778 1270.5 Q704 1343 597 1343 Q480 1343 409.5 1268 Q339 1193 339 1101 Q339 1043 367 910 L711 910 L711 762 L401 762 Q427 657 433 614 Z " />
<glyph glyph-name="estimated" unicode="&#x212e;" horiz-adv-x="1229" d="M321 531 L321 160 Q441 39 619 39 Q873 39 1014 285 L1086 242 Q966 69 854 17.5 Q742 -34 619 -34 Q382 -34 236 126 Q90 286 90 531 Q90 778 237 937 Q384 1096 619 1096 Q833 1096 985 954 Q1137 812 1148 531 L321 531 Z M917 605 L917 902 Q789 1023 617 1023 Q442 1023 321 901 L321 605 L917 605 Z " />
<glyph glyph-name="oneeighth" unicode="&#x215b;" horiz-adv-x="1708" d="M228 -57 L1329 1491 L1486 1491 L385 -57 L228 -57 Z M331 733 L331 1287 Q229 1206 107 1174 L107 1297 Q162 1314 242 1368.5 Q322 1423 368 1484 L476 1484 L476 733 L331 733 Z M1225 367 Q1095 414 1095 529 Q1095 609 1157.5 664.5 Q1220 720 1359 720 Q1498 720 1567.5 666.5 Q1637 613 1637 527 Q1637 412 1497 367 Q1664 326 1664 183 Q1664 77 1580 14 Q1496 -49 1366 -49 Q1228 -49 1147.5 14.5 Q1067 78 1067 178 Q1067 326 1225 367 Z M1244 519 Q1244 469 1279 443 Q1314 417 1365 417 Q1416 417 1452.5 443 Q1489 469 1489 514 Q1489 560 1453 587.5 Q1417 615 1363 615 Q1308 615 1276 586 Q1244 557 1244 519 Z M1216 190 Q1216 63 1365 63 Q1436 63 1476 97.5 Q1516 132 1516 185 Q1516 243 1473 277 Q1430 311 1362 311 Q1292 311 1254 276.5 Q1216 242 1216 190 Z " />
<glyph glyph-name="threeeighths" unicode="&#x215c;" horiz-adv-x="1708" d="M229 -57 L1330 1491 L1486 1491 L386 -57 L229 -57 Z M34 929 L180 944 Q211 832 334 832 Q401 832 446 869.5 Q491 907 491 964 Q491 1075 335 1075 L277 1072 L299 1182 Q455 1182 455 1284 Q455 1373 334 1373 Q230 1373 194 1271 L51 1294 Q92 1405 159 1444.5 Q226 1484 326 1484 Q612 1484 612 1296 Q612 1176 474 1137 Q647 1094 647 948 Q647 847 564.5 781 Q482 715 344 715 Q77 715 34 929 Z M1226 367 Q1096 414 1096 529 Q1096 619 1164.5 669.5 Q1233 720 1359 720 Q1499 720 1568.5 666.5 Q1638 613 1638 527 Q1638 415 1497 367 Q1665 326 1665 183 Q1665 74 1580 12.5 Q1495 -49 1367 -49 Q1232 -49 1150 12.5 Q1068 74 1068 178 Q1068 326 1226 367 Z M1245 519 Q1245 469 1280 443 Q1315 417 1366 417 Q1415 417 1452 442.5 Q1489 468 1489 514 Q1489 560 1453 587.5 Q1417 615 1363 615 Q1309 615 1277 586 Q1245 557 1245 519 Z M1217 190 Q1217 63 1366 63 Q1438 63 1477 98 Q1516 133 1516 185 Q1516 243 1473.5 277 Q1431 311 1363 311 Q1293 311 1255 276.5 Q1217 242 1217 190 Z " />
<glyph glyph-name="fiveeighths" unicode="&#x215d;" horiz-adv-x="1708" d="M229 -57 L1330 1491 L1486 1491 L386 -57 L229 -57 Z M34 926 L178 944 Q204 839 325 839 Q401 839 447 880.5 Q493 922 493 985 Q493 1043 451.5 1085.5 Q410 1128 344 1128 Q274 1128 204 1064 L63 1089 L142 1466 L612 1466 L612 1345 L238 1345 L204 1187 Q283 1240 372 1240 Q485 1240 564 1166.5 Q643 1093 643 985 Q643 865 550.5 790 Q458 715 328 715 Q210 715 132.5 771.5 Q55 828 34 926 Z M1226 367 Q1096 414 1096 529 Q1096 619 1164.5 669.5 Q1233 720 1359 720 Q1499 720 1568.5 666.5 Q1638 613 1638 527 Q1638 415 1497 367 Q1665 326 1665 183 Q1665 74 1580 12.5 Q1495 -49 1367 -49 Q1232 -49 1150 12.5 Q1068 74 1068 178 Q1068 326 1226 367 Z M1245 519 Q1245 469 1280 443 Q1315 417 1366 417 Q1415 417 1452 442.5 Q1489 468 1489 514 Q1489 560 1453 587.5 Q1417 615 1363 615 Q1309 615 1277 586 Q1245 557 1245 519 Z M1217 190 Q1217 63 1366 63 Q1438 63 1477 98 Q1516 133 1516 185 Q1516 243 1473.5 277 Q1431 311 1363 311 Q1293 311 1255 276.5 Q1217 242 1217 190 Z " />
<glyph glyph-name="seveneighths" unicode="&#x215e;" horiz-adv-x="1708" d="M204 -57 L1305 1491 L1462 1491 L361 -57 L204 -57 Z M197 733 Q221 1054 458 1345 L74 1345 L74 1466 L623 1466 L623 1386 Q379 1102 345 733 L197 733 Z M1225 367 Q1095 414 1095 529 Q1095 609 1157.5 664.5 Q1220 720 1359 720 Q1498 720 1567.5 666.5 Q1637 613 1637 527 Q1637 412 1497 367 Q1664 326 1664 183 Q1664 74 1579.5 12.5 Q1495 -49 1366 -49 Q1232 -49 1149.5 12.5 Q1067 74 1067 178 Q1067 326 1225 367 Z M1244 519 Q1244 470 1279 443.5 Q1314 417 1365 417 Q1414 417 1451.5 442.5 Q1489 468 1489 514 Q1489 560 1453 587.5 Q1417 615 1363 615 Q1308 615 1276 586 Q1244 557 1244 519 Z M1216 190 Q1216 63 1365 63 Q1436 63 1476 97.5 Q1516 132 1516 185 Q1516 243 1473 277 Q1430 311 1362 311 Q1292 311 1254 276.5 Q1216 242 1216 190 Z " />
<glyph glyph-name="tonos" unicode="&#x384;" horiz-adv-x="682" d="M222 1194 L355 1474 L591 1474 L371 1194 L222 1194 Z " />
<glyph glyph-name="dieresistonos" unicode="&#x385;" horiz-adv-x="682" d="M347 1507 L533 1507 L333 1230 L216 1230 L347 1507 Z M532 1422 L705 1422 L705 1230 L532 1230 L532 1422 Z M-22 1422 L151 1422 L151 1230 L-22 1230 L-22 1422 Z " />
<glyph glyph-name="Alphatonos" unicode="&#x386;" horiz-adv-x="1367" d="M-1 0 L562 1466 L771 1466 L1371 0 L1150 0 L979 444 L366 444 L205 0 L-1 0 Z M422 602 L919 602 L766 1008 Q693 1202 662 1312 Q634 1171 583 1032 L422 602 Z M54 1186 L187 1466 L423 1466 L203 1186 L54 1186 Z " />
<glyph glyph-name="Epsilontonos" unicode="&#x388;" horiz-adv-x="1606" d="M401 0 L401 1466 L1461 1466 L1461 1293 L595 1293 L595 844 L1406 844 L1406 672 L595 672 L595 173 L1495 173 L1495 0 L401 0 Z M-89 1186 L44 1466 L280 1466 L60 1186 L-89 1186 Z " />
<glyph glyph-name="Etatonos" unicode="&#x389;" horiz-adv-x="1716" d="M360 0 L360 1466 L554 1466 L554 864 L1316 864 L1316 1466 L1510 1466 L1510 0 L1316 0 L1316 691 L554 691 L554 0 L360 0 Z M-88 1186 L45 1466 L281 1466 L61 1186 L-88 1186 Z " />
<glyph glyph-name="Iotatonos" unicode="&#x38a;" horiz-adv-x="786" d="M360 0 L360 1466 L554 1466 L554 0 L360 0 Z M-88 1186 L45 1466 L281 1466 L61 1186 L-88 1186 Z " />
<glyph glyph-name="Omicrontonos" unicode="&#x38c;" horiz-adv-x="1586" d="M88 714 Q88 1080 285 1286 Q482 1492 790 1492 Q1099 1492 1294.5 1282.5 Q1490 1073 1490 731 Q1490 391 1293 183 Q1096 -25 789 -25 Q568 -25 401.5 85.5 Q235 196 161.5 369.5 Q88 543 88 714 Z M288 711 Q288 460 424 300.5 Q560 141 788 141 Q1012 141 1151 298.5 Q1290 456 1290 732 Q1290 1012 1150 1168.5 Q1010 1325 791 1325 Q576 1325 432 1178 Q288 1031 288 711 Z M-89 1186 L44 1466 L280 1466 L60 1186 L-89 1186 Z " />
</font>
</svg>
